<?xml version="1.0" encoding="UTF-8"?>
<svg width="61px" height="60px" viewBox="0 0 61 60" version="1.1" xmlns="http://www.w3.org/2000/svg" xmlns:xlink="http://www.w3.org/1999/xlink">
    <!-- Generator: Sketch 52.4 (67378) - http://www.bohemiancoding.com/sketch -->
    <title>Group</title>
    <desc>Created with Sketch.</desc>
    <g id="Klickbar-Prototyp" stroke="none" stroke-width="1" fill="none" fill-rule="evenodd">
        <g id="Onbaording---Requiered-information-(1)" transform="translate(-836.000000, -47.000000)">
            <g id="Group-106" transform="translate(418.000000, 47.000000)">
                <g id="Group-11" transform="translate(382.333333, 0.000000)">
                    <g id="Group-5" transform="translate(36.000000, 0.000000)">
                        <g id="Group" transform="translate(6.000000, 6.000000)" fill-rule="nonzero">
                            <path d="M7.61666667,4.31 L43.7667239,4.31 C45.9758629,4.31 47.7667239,6.100861 47.7667239,8.31 L47.7667239,46.9156304 C47.7667239,49.1247694 45.9758629,50.9156304 43.7667239,50.9156304 L7.61666667,50.9156304 C5.40752767,50.9156304 3.61666667,49.1247694 3.61666667,46.9156304 L3.61666667,8.31 C3.61666667,6.100861 5.40752767,4.31 7.61666667,4.31 Z" id="Rectangle-Copy" fill="#373A5B" opacity="0.100000001"></path>
                            <path d="M4.62666667,0.29 L39.6266667,0.29 C41.8358057,0.29 43.6266667,2.080861 43.6266667,4.29 L43.6266667,42.28 C43.6266667,44.489139 41.8358057,46.28 39.6266667,46.28 L4.62666667,46.28 C2.41752767,46.28 0.626666667,44.489139 0.626666667,42.28 L0.626666667,4.29 C0.626666667,2.080861 2.41752767,0.29 4.62666667,0.29 Z" id="Rectangle" stroke="#C5C7CC" stroke-width="1.5" fill="#FFFFFF" stroke-linecap="round" stroke-linejoin="round"></path>
                            <g id="Group-2" transform="translate(3.666667, 18.058824)" stroke="#C5C7CC" stroke-linecap="round" stroke-linejoin="round" stroke-width="1.5">
                                <path d="M2.58275534,0.394209531 L4.40467631,1.82010638" id="Path-2"></path>
                                <path d="M2.58275534,16.2765625 L4.40467631,17.7024593" id="Path-2-Copy" transform="translate(3.493716, 16.989511) scale(1, -1) translate(-3.493716, -16.989511) "></path>
                                <path d="M0.804977561,9.07853487 L2.62689853,9.07853487" id="Path-2-Copy-2" transform="translate(1.715938, 9.078535) scale(1, -1) translate(-1.715938, -9.078535) "></path>
                            </g>
                            <g id="Group-2-Copy" transform="translate(37.500000, 27.058824) scale(-1, 1) translate(-37.500000, -27.058824) translate(35.000000, 18.058824)" stroke="#C5C7CC" stroke-linecap="round" stroke-linejoin="round" stroke-width="1.5">
                                <path d="M2.58275534,0.394209531 L4.40467631,1.82010638" id="Path-2"></path>
                                <path d="M2.58275534,16.2765625 L4.40467631,17.7024593" id="Path-2-Copy" transform="translate(3.493716, 16.989511) scale(1, -1) translate(-3.493716, -16.989511) "></path>
                                <path d="M0.804977561,9.07853487 L2.62689853,9.07853487" id="Path-2-Copy-2" transform="translate(1.715938, 9.078535) scale(1, -1) translate(-1.715938, -9.078535) "></path>
                            </g>
                        </g>
                        <g id="Group-4" transform="translate(17.882062, 22.639509)" fill-rule="nonzero">
                            <g id="Group-3">
                                <path d="M2.25601415,9.19443517 C2.63095939,4.31243615 3.91441187,1.87143664 6.1063716,1.87143664 C8.29833133,1.87143664 9.23545345,4.71298417 8.91773796,10.3960792 L8.42571856,18.79814 C8.3475169,20.1335652 7.24175301,21.1764706 5.90404003,21.1764706 C4.54962353,21.1764706 3.41365289,20.1541692 3.27138202,18.8072456 L2.25601415,9.19443517 Z" id="Combined-Shape-Copy" fill="#373A5B" opacity="0.100000001"></path>
                                <path d="M0.414581927,7.35300295 C0.789527163,2.47100393 2.07297964,0.0300044164 4.26493937,0.0300044164 C6.4568991,0.0300044164 7.39402122,2.87155195 7.07630574,8.55464701 L6.58428633,16.9567078 C6.50608467,18.292133 5.40032078,19.3350384 4.06260781,19.3350384 C2.70819131,19.3350384 1.57222067,18.312737 1.4299498,16.9658134 L0.414581927,7.35300295 Z M0.65040935,10.6911842 C1.81718631,8.80019276 2.86067187,7.85469702 3.78086604,7.85469702 C4.7010602,7.85469702 5.74413044,8.80019276 6.91007677,10.6911842" id="Combined-Shape" stroke="#C5C7CC" stroke-width="1.5" fill="#FFFFFF"></path>
                            </g>
                            <g id="Group-3-Copy" transform="translate(16.676471, 11.000000) scale(-1, 1) translate(-16.676471, -11.000000) translate(12.176471, 0.000000)">
                                <path d="M0.414581927,9.19443517 C0.789527163,4.31243615 2.07297964,1.87143664 4.26493937,1.87143664 C6.4568991,1.87143664 7.39402122,4.71298417 7.07630574,10.3960792 L6.58428633,18.79814 C6.50608467,20.1335652 5.40032078,21.1764706 4.06260781,21.1764706 C2.70819131,21.1764706 1.57222067,20.1541692 1.4299498,18.8072456 L0.414581927,9.19443517 Z" id="Combined-Shape-Copy" fill="#373A5B" opacity="0.100000001"></path>
                                <path d="M2.25601415,7.35300295 C2.63095939,2.47100393 3.91441187,0.0300044164 6.1063716,0.0300044164 C8.29833133,0.0300044164 9.23545345,2.87155195 8.91773796,8.55464701 L8.42571856,16.9567078 C8.3475169,18.292133 7.24175301,19.3350384 5.90404003,19.3350384 C4.54962353,19.3350384 3.41365289,18.312737 3.27138202,16.9658134 L2.25601415,7.35300295 Z M2.49184157,10.6911842 C3.65861854,8.80019276 4.7021041,7.85469702 5.62229826,7.85469702 C6.54249243,7.85469702 7.58556267,8.80019276 8.75150899,10.6911842" id="Combined-Shape" stroke="#C5C7CC" stroke-width="1.5" fill="#FFFFFF"></path>
                            </g>
                        </g>
                        <path d="M16.8298817,12.260352 C16.8757871,12.1318168 16.9503823,12.0331216 17.0536696,11.9642634 C17.1569568,11.8954053 17.270571,11.8609767 17.3945157,11.8609767 C17.5460036,11.8609767 17.6779798,11.9091767 17.7904481,12.0055781 C17.9029164,12.1019795 17.9591497,12.2328081 17.9591497,12.3980676 C17.9591497,12.4715163 17.9407878,12.5633258 17.9040635,12.6734988 L16.5200216,16.4193635 C16.4741161,16.5478987 16.39034,16.6477415 16.2686906,16.718895 C16.1470412,16.7900484 16.0127698,16.8256246 15.8658724,16.8256246 C15.718975,16.8256246 15.5858513,16.7900484 15.4664971,16.718895 C15.347143,16.6477415 15.2645145,16.5478987 15.218609,16.4193635 L14.3234575,13.8647389 L13.3869914,16.4193635 C13.3364954,16.5478987 13.2515716,16.6477415 13.1322175,16.718895 C13.0128634,16.7900484 12.8820348,16.8256246 12.739728,16.8256246 C12.5928306,16.8256246 12.4597069,16.7900484 12.3403527,16.718895 C12.2209986,16.6477415 12.1383701,16.5478987 12.0924646,16.4193635 L10.7015369,12.6734988 C10.6694031,12.581688 10.6533365,12.494469 10.6533365,12.4118392 C10.6533365,12.2419891 10.7141603,12.1077177 10.8358097,12.009021 C10.9574591,11.9103243 11.0986161,11.8609767 11.2592852,11.8609767 C11.3878204,11.8609767 11.5060251,11.8942577 11.6139029,11.9608205 C11.7217806,12.0273834 11.7986711,12.1272262 11.8445765,12.260352 L12.7879285,14.9733496 L13.7863667,12.260352 C13.8322721,12.1318168 13.9068673,12.0331216 14.0101545,11.9642634 C14.1134418,11.8954053 14.227056,11.8609767 14.3510007,11.8609767 C14.4749453,11.8609767 14.587412,11.8954053 14.6884039,11.9642634 C14.7893959,12.0331216 14.8628435,12.134112 14.9087489,12.2672378 L15.8452151,15.0353216 L16.8298817,12.260352 Z M19.1917044,16.7636525 C19.0034922,16.7636525 18.8588922,16.7131573 18.7579003,16.6121654 C18.6569083,16.5111734 18.6064131,16.3665735 18.6064131,16.1783612 L18.6064131,12.4944685 C18.6064131,12.3062563 18.6569083,12.1616563 18.7579003,12.0606644 C18.8588922,11.9596724 19.0034922,11.9091772 19.1917044,11.9091772 L21.5741845,11.9091772 C21.7715779,11.9091772 21.9207683,11.9504915 22.0217603,12.0331212 C22.1227522,12.115751 22.1732475,12.2351034 22.1732475,12.3911818 C22.1732475,12.721701 21.9735618,12.886958 21.5741845,12.886958 L19.8389678,12.886958 L19.8389678,13.8096526 L21.4364689,13.8096526 C21.8358462,13.8096526 22.0355318,13.9726145 22.0355318,14.2985431 C22.0355318,14.4546215 21.9850366,14.5739739 21.8840447,14.6566037 C21.7830527,14.7392334 21.6338623,14.7805477 21.4364689,14.7805477 L19.8389678,14.7805477 L19.8389678,15.7858717 L21.5741845,15.7858717 C21.9735618,15.7858717 22.1732475,15.9511288 22.1732475,16.2816479 C22.1732475,16.4377264 22.1227522,16.5570787 22.0217603,16.6397085 C21.9207683,16.7223383 21.7715779,16.7636525 21.5741845,16.7636525 L19.1917044,16.7636525 Z M23.3025155,16.7636525 C23.1143032,16.7636525 22.9697033,16.7131573 22.8687113,16.6121654 C22.7677193,16.5111734 22.7172241,16.3642782 22.7172241,16.1714754 L22.7172241,12.4944685 C22.7172241,12.3062563 22.7734574,12.1559182 22.8859258,12.0434499 C22.9983941,11.9309816 23.1510273,11.8747483 23.3438302,11.8747483 C23.5412235,11.8747483 23.6972997,11.9309816 23.8120632,12.0434499 C23.9268268,12.1559182 23.9842078,12.3062563 23.9842078,12.4944685 L23.9842078,15.7376712 L25.5679373,15.7376712 C25.9673146,15.7376712 26.1670002,15.909814 26.1670002,16.2541048 C26.1670002,16.4285454 26.1176526,16.5570787 26.0189559,16.6397085 C25.9202593,16.7223383 25.7699212,16.7636525 25.5679373,16.7636525 L23.3025155,16.7636525 Z M28.9557414,16.8256246 C28.4691438,16.8256246 28.0433773,16.7246341 27.6784291,16.5226502 C27.3134809,16.3206663 27.0311667,16.0314664 26.8314781,15.6550418 C26.6317894,15.2786173 26.5319466,14.8379317 26.5319466,14.332972 C26.5319466,13.8326027 26.6317894,13.3942124 26.8314781,13.0177879 C27.0311667,12.6413633 27.3134809,12.3521634 27.6784291,12.1501795 C28.0433773,11.9481956 28.4691438,11.8472052 28.9557414,11.8472052 C29.5387404,11.8472052 30.0505783,12.0009861 30.4912705,12.3085525 C30.5693097,12.363639 30.625543,12.4233152 30.6599721,12.4875828 C30.6944012,12.5518504 30.7116154,12.6344789 30.7116154,12.7354709 C30.7116154,12.8777777 30.6714488,12.9982777 30.5911143,13.0969743 C30.5107798,13.195671 30.4132322,13.2450186 30.2984686,13.2450186 C30.2296104,13.2450186 30.167639,13.2346901 30.1125525,13.2140326 C30.057466,13.1933752 29.9931994,13.1600942 29.9197507,13.1141888 C29.7590816,13.0177874 29.607596,12.9489303 29.4652891,12.9076154 C29.3229823,12.8663005 29.1760871,12.8456434 29.0245992,12.8456434 C28.6160408,12.8456434 28.3119219,12.9684385 28.1122332,13.2140326 C27.9125446,13.4596267 27.8127018,13.8326027 27.8127018,14.332972 C27.8127018,14.8379317 27.9125446,15.213203 28.1122332,15.4587971 C28.3119219,15.7043912 28.6160408,15.8271864 29.0245992,15.8271864 C29.1623155,15.8271864 29.2954392,15.8053816 29.4239745,15.7617714 C29.5525097,15.7181613 29.7177668,15.6504518 29.9197507,15.5586409 C30.0161521,15.5081449 30.0873044,15.4737164 30.1332099,15.4553542 C30.1791153,15.436992 30.234201,15.4278111 30.2984686,15.4278111 C30.4132322,15.4278111 30.5107798,15.4771587 30.5911143,15.5758554 C30.6714488,15.6745521 30.7116154,15.795052 30.7116154,15.9373589 C30.7116154,16.0337603 30.6944012,16.1152412 30.6599721,16.1818041 C30.625543,16.2483669 30.5693097,16.3091907 30.4912705,16.3642773 C30.0505783,16.6718437 29.5387404,16.8256246 28.9557414,16.8256246 Z M33.6311864,16.8256246 C33.1354077,16.8256246 32.7050508,16.7234865 32.3401026,16.5192073 C31.9751544,16.3149281 31.6939878,16.0257282 31.4965944,15.651599 C31.2992011,15.2774697 31.2005059,14.8379317 31.2005059,14.332972 C31.2005059,13.8280122 31.2992011,13.3884743 31.4965944,13.014345 C31.6939878,12.6402157 31.9751544,12.3521634 32.3401026,12.1501795 C32.7050508,11.9481956 33.1354077,11.8472052 33.6311864,11.8472052 C34.1269651,11.8472052 34.5573221,11.9481956 34.9222703,12.1501795 C35.2872185,12.3521634 35.5672374,12.6402157 35.7623355,13.014345 C35.9574336,13.3884743 36.0549812,13.8280122 36.0549812,14.332972 C36.0549812,14.8379317 35.956286,15.2774697 35.7588926,15.651599 C35.5614993,16.0257282 35.2803327,16.3149281 34.9153845,16.5192073 C34.5504363,16.7234865 34.1223746,16.8256246 33.6311864,16.8256246 Z M33.6311864,15.8547295 C33.9984299,15.8547295 34.2853345,15.7250486 34.491909,15.4656829 C34.6984835,15.2063172 34.8017691,14.8287507 34.8017691,14.332972 C34.8017691,13.8371933 34.6973358,13.4607744 34.4884661,13.2037039 C34.2795964,12.9466335 33.9938393,12.8181002 33.6311864,12.8181002 C33.263943,12.8181002 32.9770383,12.9454859 32.7704638,13.2002611 C32.5638894,13.4550362 32.4606037,13.8326027 32.4606037,14.332972 C32.4606037,14.8333412 32.5638894,15.2120553 32.7704638,15.4691258 C32.9770383,15.7261962 33.263943,15.8547295 33.6311864,15.8547295 Z M41.11603,11.8747483 C41.2904706,11.8747483 41.4327753,11.9321292 41.5429484,12.0468928 C41.6531214,12.1616564 41.7082071,12.3108468 41.7082071,12.4944685 L41.7082071,16.2403332 C41.7082071,16.4147738 41.6577119,16.5524881 41.5567199,16.65348 C41.455728,16.754472 41.3226042,16.8049672 41.1573446,16.8049672 C40.9966756,16.8049672 40.8646995,16.754472 40.7614123,16.65348 C40.658125,16.5524881 40.6064822,16.4147738 40.6064822,16.2403332 L40.6064822,14.2159137 L39.8215032,15.6619276 C39.743464,15.808825 39.6608354,15.9132583 39.5736151,15.9752306 C39.4863948,16.037203 39.3831091,16.0681887 39.263755,16.0681887 C39.1444008,16.0681887 39.0411152,16.037203 38.9538948,15.9752306 C38.8666745,15.9132583 38.784046,15.808825 38.7060067,15.6619276 L37.9279135,14.2572284 L37.9279135,16.2403332 C37.9279135,16.4101833 37.8762707,16.5467499 37.7729835,16.6500371 C37.6696962,16.7533244 37.5354249,16.8049672 37.3701653,16.8049672 C37.2094963,16.8049672 37.0775201,16.754472 36.9742329,16.65348 C36.8709457,16.5524881 36.8193029,16.4147738 36.8193029,16.2403332 L36.8193029,12.4944685 C36.8193029,12.3108468 36.8755362,12.1616564 36.9880045,12.0468928 C37.1004728,11.9321292 37.2439251,11.8747483 37.4183658,11.8747483 C37.5423104,11.8747483 37.6547771,11.9103245 37.755769,11.9814779 C37.856761,12.0526313 37.9416847,12.1547694 38.0105429,12.2878951 L39.2775265,14.6703752 L40.5376244,12.2878951 C40.6799312,12.0124625 40.8727312,11.8747483 41.11603,11.8747483 Z M43.1886499,16.7636525 C43.0004377,16.7636525 42.8558377,16.7131573 42.7548458,16.6121654 C42.6538538,16.5111734 42.6033586,16.3665735 42.6033586,16.1783612 L42.6033586,12.4944685 C42.6033586,12.3062563 42.6538538,12.1616563 42.7548458,12.0606644 C42.8558377,11.9596724 43.0004377,11.9091772 43.1886499,11.9091772 L45.57113,11.9091772 C45.7685234,11.9091772 45.9177138,11.9504915 46.0187058,12.0331212 C46.1196977,12.115751 46.1701929,12.2351034 46.1701929,12.3911818 C46.1701929,12.721701 45.9705073,12.886958 45.57113,12.886958 L43.8359133,12.886958 L43.8359133,13.8096526 L45.4334144,13.8096526 C45.8327917,13.8096526 46.0324773,13.9726145 46.0324773,14.2985431 C46.0324773,14.4546215 45.9819821,14.5739739 45.8809902,14.6566037 C45.7799982,14.7392334 45.6308078,14.7805477 45.4334144,14.7805477 L43.8359133,14.7805477 L43.8359133,15.7858717 L45.57113,15.7858717 C45.9705073,15.7858717 46.1701929,15.9511288 46.1701929,16.2816479 C46.1701929,16.4377264 46.1196977,16.5570787 46.0187058,16.6397085 C45.9177138,16.7223383 45.7685234,16.7636525 45.57113,16.7636525 L43.1886499,16.7636525 Z" id="WELCOME" fill="#C5C7CC"></path>
                    </g>
                </g>
            </g>
        </g>
    </g>
</svg>