<?xml version="1.0" encoding="UTF-8"?>
<svg width="520px" height="215px" viewBox="0 0 520 215" version="1.1" xmlns="http://www.w3.org/2000/svg" xmlns:xlink="http://www.w3.org/1999/xlink">
    <!-- Generator: Sketch 53.2 (72643) - https://sketchapp.com -->
    <title>Logotype - red</title>
    <desc>Created with Sketch.</desc>
    <g id="Symbols" stroke="none" stroke-width="1" fill="none" fill-rule="evenodd">
        <g id="Logotype---red" fill="#F46C63">
            <g>
                <path d="M403.3905,46.9267 C399.8145,46.9707 396.2565,46.4017 392.8735,45.2407 C389.7725,44.1407 386.9275,42.4217 384.5125,40.1857 C382.1875,38.0747 380.3285,35.5027 379.0515,32.6337 C377.8195,29.7357 377.1995,26.6137 377.2325,23.4647 C377.1995,20.3157 377.8195,17.1937 379.0515,14.2947 C380.3285,11.4257 382.1885,8.8537 384.5125,6.7427 C386.9275,4.5077 389.7725,2.7867 392.8735,1.6877 C396.2565,0.5277 399.8145,-0.0423 403.3905,0.0027 C406.9615,-0.0413 410.5155,0.5067 413.9085,1.6217 C416.9915,2.6667 419.8335,4.3177 422.2695,6.4777 C424.5855,8.4887 426.4475,10.9707 427.7305,13.7577 C428.9625,16.5607 429.5825,19.5947 429.5495,22.6577 C429.5875,25.9487 428.9685,29.2147 427.7305,32.2637 C426.4775,35.2147 424.6165,37.8687 422.2695,40.0527 C419.8655,42.3267 417.0195,44.0827 413.9085,45.2107 C410.5295,46.3917 406.9695,46.9727 403.3905,46.9267 L403.3905,46.9267 Z M104.3245,212.2347 L60.9025,212.2347 L29.6445,137.8247 L72.1445,137.8247 L83.5555,165.8537 L95.3455,137.8247 L135.7125,137.8247 L104.3225,212.2337 L104.3245,212.2347 Z M424.4235,212.2347 L382.3555,212.2347 L382.3555,67.1527 L424.4245,67.1527 L424.4245,212.2327 L424.4235,212.2347 Z M261.2715,99.5117 C256.2185,99.4527 251.2025,100.3807 246.5055,102.2437 C241.9985,104.1087 237.9335,106.8997 234.5735,110.4357 C231.0675,114.0857 228.3775,118.4407 226.6855,123.2097 C223.1795,133.9197 223.1795,145.4677 226.6855,156.1777 C228.3785,160.9477 231.0675,165.3017 234.5735,168.9517 C237.9335,172.4877 241.9985,175.2777 246.5055,177.1437 C256.0015,180.7857 266.5095,180.7857 276.0055,177.1437 C280.4865,175.2807 284.5195,172.4887 287.8395,168.9517 C291.3075,165.2907 293.9605,160.9367 295.6265,156.1777 C299.0885,145.4607 299.0885,133.9257 295.6265,123.2097 C293.9605,118.4497 291.3075,114.0967 287.8395,110.4357 C284.5195,106.8987 280.4865,104.1057 276.0055,102.2437 C271.3205,100.3777 266.3145,99.4497 261.2715,99.5117 L261.2715,99.5117 Z M261.2715,214.3927 C253.9555,214.4267 246.6615,213.6247 239.5295,212.0027 C232.7885,210.4457 226.2755,208.0327 220.1485,204.8227 C214.2585,201.7517 208.8055,197.9087 203.9325,193.3957 C194.3085,184.3877 187.4065,172.8607 184.0115,160.1237 C180.5935,146.7207 180.5935,132.6737 184.0115,119.2707 C187.4075,106.5347 194.3095,95.0067 203.9325,85.9987 C208.8045,81.4837 214.2555,77.6387 220.1455,74.5667 C226.2735,71.3577 232.7855,68.9447 239.5265,67.3877 C253.8335,64.1957 268.6695,64.1957 282.9785,67.3877 C289.6865,68.9417 296.1665,71.3547 302.2575,74.5667 C308.1135,77.6437 313.5325,81.4877 318.3725,85.9947 C323.1145,90.4577 327.2195,95.5507 330.5735,101.1317 C333.9795,106.7827 336.5675,112.8887 338.2575,119.2677 C341.6725,132.6717 341.6725,146.7177 338.2575,160.1207 C336.5665,166.4997 333.9795,172.6057 330.5735,178.2577 C327.2195,183.8387 323.1145,188.9307 318.3725,193.3927 C313.5325,197.8997 308.1135,201.7427 302.2575,204.8197 C296.1665,208.0317 289.6865,210.4457 282.9785,211.9997 C275.8575,213.6237 268.5745,214.4267 261.2715,214.3927 L261.2715,214.3927 Z M492.9215,214.3927 C489.4395,214.4267 485.9835,213.7837 482.7445,212.5027 C476.3625,209.8287 471.2965,204.7397 468.6545,198.3447 C466.1365,191.6167 466.1365,184.2067 468.6545,177.4787 C469.9205,174.3477 471.8535,171.5287 474.3175,169.2177 C476.7465,166.8957 479.6115,165.0747 482.7445,163.8597 C489.3235,161.4807 496.5275,161.4807 503.1055,163.8597 C506.2395,165.0747 509.1025,166.8947 511.5325,169.2177 C513.9955,171.5287 515.9275,174.3477 517.1955,177.4787 C519.7115,184.2067 519.7115,191.6167 517.1955,198.3447 C514.5515,204.7387 509.4875,209.8287 503.1055,212.5027 C499.8655,213.7847 496.4065,214.4267 492.9215,214.3927 L492.9215,214.3927 Z" id="Fill-1"></path>
                <path d="M30.0639,138.8227 L-0.0001,67.2507 L-0.0001,67.1507 L43.3729,67.1507 L72.5519,138.8227 L30.0639,138.8227 Z M94.9269,138.8227 L125.0839,67.1507 L165.5359,67.1507 L135.2949,138.8227 L94.9269,138.8227 Z" id="Fill-3"></path>
            </g>
        </g>
    </g>
</svg>