<?xml version="1.0" encoding="UTF-8"?>
<svg width="518px" height="322px" viewBox="0 0 518 322" version="1.1" xmlns="http://www.w3.org/2000/svg" xmlns:xlink="http://www.w3.org/1999/xlink">
    <!-- Generator: Sketch 52.3 (67297) - http://www.bohemiancoding.com/sketch -->
    <title>illustration</title>
    <desc>Created with Sketch.</desc>
    <defs>
        <linearGradient x1="60.3837112%" y1="0%" x2="37.0808269%" y2="73.703274%" id="linearGradient-1">
            <stop stop-color="#F9F9FC" offset="0%"></stop>
            <stop stop-color="#C7CCE3" offset="100%"></stop>
        </linearGradient>
        <path d="M7.20255676,20.4459122 C79.5689564,20.4459122 139.56045,33.7831988 156.751731,148.599275 C173.943012,263.415352 351.129672,154.810697 381.769267,234.387211 C412.408862,313.963725 451.193623,342.889319 554.993216,313.949075 C624.192945,294.65558 652.923211,356.659923 641.184015,499.962107 L641.184015,0.0378932587 C170.285443,13.6432392 -41.0417097,20.4459122 7.20255676,20.4459122 Z" id="path-2"></path>
        <path d="M-98.8433235,20.4459122 C-26.4769238,20.4459122 58.359095,38.4196439 112.365478,142.610588 C166.371861,246.801533 396.233642,125.795653 426.873236,205.372167 C457.512831,284.948681 463.211664,384.433824 567.011257,355.493581 C636.210986,336.200085 660.935239,384.35626 641.184015,499.962107 L641.184015,0.0378932587 C99.5881895,13.6432392 -147.08759,20.4459122 -98.8433235,20.4459122 Z" id="path-4"></path>
        <filter x="-75.4%" y="-53.8%" width="250.7%" height="207.7%" filterUnits="objectBoundingBox" id="filter-6">
            <feOffset dx="0" dy="15" in="SourceAlpha" result="shadowOffsetOuter1"></feOffset>
            <feGaussianBlur stdDeviation="20" in="shadowOffsetOuter1" result="shadowBlurOuter1"></feGaussianBlur>
            <feColorMatrix values="0 0 0 0 0.0240552561   0 0 0 0 0.0416192671   0 0 0 0 0.0648915816  0 0 0 0.106289629 0" type="matrix" in="shadowBlurOuter1" result="shadowMatrixOuter1"></feColorMatrix>
            <feMerge>
                <feMergeNode in="shadowMatrixOuter1"></feMergeNode>
                <feMergeNode in="SourceGraphic"></feMergeNode>
            </feMerge>
        </filter>
        <filter x="-45.9%" y="-53.6%" width="191.7%" height="207.1%" filterUnits="objectBoundingBox" id="filter-7">
            <feOffset dx="0" dy="15" in="SourceAlpha" result="shadowOffsetOuter1"></feOffset>
            <feGaussianBlur stdDeviation="20" in="shadowOffsetOuter1" result="shadowBlurOuter1"></feGaussianBlur>
            <feColorMatrix values="0 0 0 0 0.0240552561   0 0 0 0 0.0416192671   0 0 0 0 0.0648915816  0 0 0 0.106289629 0" type="matrix" in="shadowBlurOuter1" result="shadowMatrixOuter1"></feColorMatrix>
            <feMerge>
                <feMergeNode in="shadowMatrixOuter1"></feMergeNode>
                <feMergeNode in="SourceGraphic"></feMergeNode>
            </feMerge>
        </filter>
        <linearGradient x1="13.1133482%" y1="-70.0294641%" x2="100%" y2="139.227321%" id="linearGradient-8">
            <stop stop-color="#F8BC81" offset="0%"></stop>
            <stop stop-color="#EF604A" offset="100%"></stop>
        </linearGradient>
        <linearGradient x1="50%" y1="0%" x2="100%" y2="139.227321%" id="linearGradient-9">
            <stop stop-color="#F8BC81" offset="0%"></stop>
            <stop stop-color="#EF604A" offset="100%"></stop>
        </linearGradient>
        <filter x="-555.3%" y="-73.8%" width="1210.5%" height="247.6%" filterUnits="objectBoundingBox" id="filter-10">
            <feOffset dx="0" dy="15" in="SourceAlpha" result="shadowOffsetOuter1"></feOffset>
            <feGaussianBlur stdDeviation="20" in="shadowOffsetOuter1" result="shadowBlurOuter1"></feGaussianBlur>
            <feColorMatrix values="0 0 0 0 0.0240552561   0 0 0 0 0.0416192671   0 0 0 0 0.0648915816  0 0 0 0.106289629 0" type="matrix" in="shadowBlurOuter1" result="shadowMatrixOuter1"></feColorMatrix>
            <feMerge>
                <feMergeNode in="shadowMatrixOuter1"></feMergeNode>
                <feMergeNode in="SourceGraphic"></feMergeNode>
            </feMerge>
        </filter>
        <linearGradient x1="0%" y1="141.891699%" x2="124.651389%" y2="-39.0417008%" id="linearGradient-11">
            <stop stop-color="#2CBAE6" offset="0%"></stop>
            <stop stop-color="#7EE9C7" offset="100%"></stop>
        </linearGradient>
        <polygon id="path-12" points="0 0 19 0 19 123 9.5 143 0 123"></polygon>
    </defs>
    <g id="Klickbar-Prototyp" stroke="none" stroke-width="1" fill="none" fill-rule="evenodd" opacity="0.699999988">
        <g id="Reports---Landningssida" transform="translate(-922.000000, 0.000000)">
            <g id="illustration" transform="translate(919.000000, -62.000000)">
                <g id="Group-12" transform="translate(0.000000, 24.000000)">
                    <mask id="mask-3" fill="white">
                        <use xlink:href="#path-2"></use>
                    </mask>
                    <use id="Path-12" fill="url(#linearGradient-1)" fill-rule="nonzero" xlink:href="#path-2"></use>
                    <mask id="mask-5" fill="white">
                        <use xlink:href="#path-4"></use>
                    </mask>
                    <use id="Path-12-Copy" fill="#A9B2E0" fill-rule="nonzero" opacity="0.200000003" xlink:href="#path-4"></use>
                </g>
                <g id="Group-17" filter="url(#filter-6)" transform="translate(246.750312, 113.721936) rotate(-345.000000) translate(-246.750312, -113.721936) translate(176.750312, 15.721936)" fill-rule="nonzero">
                    <rect id="Rectangle-16-Copy" fill="#FFFFFF" x="0.0468805504" y="0.765320756" width="139.806239" height="194.669358" rx="13"></rect>
                    <polyline id="Path-17" stroke="#75D2E5" stroke-width="5.2" stroke-linecap="round" stroke-linejoin="round" points="77.3764522 162.547343 102.547009 158.133041 95.6765816 170.609065 113.802324 167.100314 110.972212 174.571641"></polyline>
                    <g id="Group-15" transform="translate(25.100000, 48.400000)" stroke-linecap="round" stroke-linejoin="round" stroke-width="5.2">
                        <path d="M0.940889898,1.51102308 L86.439329,1.51102308" id="Path-13" stroke="#747A93"></path>
                        <path d="M0.940889898,17.1110231 L21.439329,17.1110231" id="Path-13-Copy" stroke="#EF604A"></path>
                    </g>
                    <g id="Group-15-Copy" transform="translate(25.100000, 100.400000)" stroke="#DDE6F6" stroke-linecap="round" stroke-linejoin="round" stroke-width="5.2">
                        <path d="M0.940889898,1.51102308 L86.439329,1.51102308" id="Path-13"></path>
                        <path d="M0.940889898,17.1110231 L21.439329,17.1110231" id="Path-13-Copy"></path>
                    </g>
                </g>
                <g id="Group-20" filter="url(#filter-7)" transform="translate(305.000000, 128.000000)" fill-rule="nonzero">
                    <path d="M30,23.4563956 L64.6696638,23.4563956 C70.19927,23.4563956 75.3237769,26.3564458 78.1706925,31.0968695 L78.1706925,31.0968695 C81.0176081,35.8372932 86.1421151,38.7373434 91.6717213,38.7373434 L200.075266,38.7373434 C207.254968,38.7373434 213.075266,44.5576417 213.075266,51.7373434 L213.075266,160.569236 C213.075266,167.748938 207.254968,173.569236 200.075266,173.569236 L30,173.569236 C22.8202983,173.569236 17,167.748938 17,160.569236 L17,36.4563956 C17,29.2766938 22.8202983,23.4563956 30,23.4563956 Z" id="Rectangle-16-Copy" fill="url(#linearGradient-8)" transform="translate(115.037633, 98.512816) rotate(-345.000000) translate(-115.037633, -98.512816) "></path>
                    <path d="M27.0601826,40.9312748 L197.906744,38.5572424 C205.085753,38.457485 210.986358,44.1963521 211.086116,51.3753608 C211.086952,51.435566 211.087371,51.4957764 211.087371,51.5559874 L211.087371,160.205981 C211.087371,167.385683 205.267072,173.205981 198.087371,173.205981 L27.9282826,173.205981 C20.7813991,173.205981 14.9747851,167.436807 14.9285546,160.290073 L14.2410812,54.0141119 C14.1948821,46.8722318 19.9188425,41.0305087 27.0601826,40.9312748 Z" id="Rectangle-16-Copy-2" fill="url(#linearGradient-9)" transform="translate(112.664087, 105.880971) rotate(-345.000000) translate(-112.664087, -105.880971) "></path>
                    <g id="Group-19" transform="translate(58.000000, 116.000000) rotate(-15.000000) translate(-58.000000, -116.000000) translate(36.000000, 96.000000)" stroke="#FAFAFC" stroke-linecap="round" stroke-linejoin="round" stroke-width="6">
                        <path d="M15.3061189,38.4425445 L15.3061189,38.4425445 C13.6516609,39.6536918 11.3286289,39.2943175 10.1174816,37.6398595 C9.57011672,36.8921452 9.32216126,35.9667628 9.42233598,35.0455408 L9.42233598,35.0455408 C9.96430227,30.0615362 7.21558638,25.3006207 2.62832864,23.2779749 L2.62832864,23.2779749 C0.752215322,22.4507459 -0.0980734301,20.259254 0.729155561,18.3831407 C1.10301271,17.5352517 1.78043962,16.8578247 2.62832864,16.4839676 L2.62832864,16.4839676 C7.21558638,14.4613219 9.96430227,9.70040628 9.42233598,4.71640169 L9.42233598,4.71640169 C9.20068064,2.6780254 10.673424,0.845907768 12.7118003,0.624252428 C13.6330223,0.524077706 14.5584046,0.772033167 15.3061189,1.31939802 L15.3061189,1.31939802 C19.3514104,4.28075689 24.8488422,4.28075689 28.8941336,1.31939802 L28.8941336,1.31939802 C30.5485916,0.10825072 32.8716237,0.467625033 34.082771,2.12208301 C34.6301358,2.86979731 34.8780913,3.79517969 34.7779166,4.71640169 L34.7779166,4.71640169 C34.2359503,9.70040628 36.9846662,14.4613219 41.5719239,16.4839676 L41.5719239,16.4839676 C43.4480372,17.3111966 44.298326,19.5026885 43.471097,21.3788018 C43.0972398,22.2266909 42.4198129,22.9041178 41.5719239,23.2779749 L41.5719239,23.2779749 C36.9846662,25.3006207 34.2359503,30.0615362 34.7779166,35.0455408 L34.7779166,35.0455408 C34.9995719,37.0839171 33.5268286,38.9160347 31.4884523,39.1376901 C30.5672303,39.2378648 29.6418479,38.9899094 28.8941336,38.4425445 L28.8941336,38.4425445 C24.8488422,35.4811856 19.3514104,35.4811856 15.3061189,38.4425445 Z" id="Star"></path>
                        <circle id="Oval-7" cx="22.1001263" cy="19.8809713" r="6.5"></circle>
                    </g>
                    <path d="M199.172074,59.5309356 L181.096381,59.5309356 C178.360104,59.5309356 176.141913,61.7491264 176.141913,64.4854034 L176.141913,64.4854034 C176.141913,67.2216804 178.360104,69.4398712 181.096381,69.4398712 L203.807742,69.4398712 C208.903373,69.4398712 213.034198,65.3090464 213.034198,60.2134158 L213.034198,60.2134158 C213.034198,55.1177853 208.903373,50.9869605 203.807742,50.9869605 L185.407851,50.9869605" id="Path-9" stroke="#FAFAFC" stroke-width="6" stroke-linecap="round" stroke-linejoin="round" transform="translate(194.588055, 60.213416) rotate(-30.000000) translate(-194.588055, -60.213416) "></path>
                </g>
                <g id="Group-18" filter="url(#filter-10)" transform="translate(421.509197, 115.307017) rotate(-255.000000) translate(-421.509197, -115.307017) translate(412.009197, 43.807017)">
                    <mask id="mask-13" fill="white">
                        <use xlink:href="#path-12"></use>
                    </mask>
                    <use id="Rectangle-22" fill="url(#linearGradient-11)" fill-rule="nonzero" xlink:href="#path-12"></use>
                    <path d="M-1.69776772,7.8118834 L22.4693034,7.8118834" id="Path-4" stroke="#FAFAFC" stroke-width="4" opacity="0.5" fill-rule="nonzero" mask="url(#mask-13)"></path>
                    <path d="M-1.69776772,120.811883 L22.4693034,120.811883" id="Path-4-Copy" stroke="#FAFAFC" stroke-width="4" opacity="0.5" fill-rule="nonzero" mask="url(#mask-13)"></path>
                </g>
            </g>
        </g>
    </g>
</svg>