<?xml version="1.0" encoding="UTF-8"?>
<svg width="33px" height="33px" viewBox="0 0 33 33" version="1.1" xmlns="http://www.w3.org/2000/svg" xmlns:xlink="http://www.w3.org/1999/xlink">
    <!-- Generator: Sketch 52.1 (67048) - http://www.bohemiancoding.com/sketch -->
    <title>Group 10 Copy 2</title>
    <desc>Created with Sketch.</desc>
    <g id="1:-Dashboard-" stroke="none" stroke-width="1" fill="none" fill-rule="evenodd">
        <g id="1.1:Dashboard" transform="translate(-1334.000000, -761.000000)" fill-rule="nonzero">
            <g id="Group-39" transform="translate(936.000000, 716.000000)">
                <g id="Group-38" transform="translate(0.000000, 32.000000)">
                    <g id="Group-10-Copy-2" transform="translate(399.000000, 14.000000)">
                        <circle id="Oval-6" stroke="#949EB6" opacity="0.100000001" cx="15.3728762" cy="15.3728762" r="15.3728762"></circle>
                        <g id="Group-27" transform="translate(9.000000, 7.000000)" stroke-linecap="round" stroke-linejoin="round" stroke-width="1.5">
                            <path d="M4.59495949,11.4738496 L4.59495949,17.392931" id="Path-21" stroke="#949EB6"></path>
                            <path d="M9.26843418,13.1417751 L9.26843418,17.2731402" id="Path-21-Copy" stroke="#949EB6"></path>
                            <path d="M4.59495949,10.8608133 C7.13268554,10.8608133 9.18991898,7.13268554 9.18991898,4.59495949 C9.18991898,2.05723344 7.13268554,0 4.59495949,0 C2.05723344,0 0,2.05723344 0,4.59495949 C0,7.13268554 2.05723344,10.8608133 4.59495949,10.8608133 Z" id="Oval-9" stroke="#009ECE"></path>
                            <path d="M7.69077094,12.2142173 C8.09642543,12.5068312 8.54369043,12.6826878 9.01362037,12.6826878 C10.8584387,12.6826878 12.3539595,9.97249822 12.3539595,8.12767986 C12.3539595,7.21521294 11.9880957,6.3881981 11.3950627,5.78533" id="Oval-9-Copy" stroke="#949EB6"></path>
                        </g>
                    </g>
                </g>
            </g>
        </g>
    </g>
</svg>