<?xml version="1.0" encoding="UTF-8"?>
<svg width="54px" height="54px" viewBox="0 0 54 54" version="1.1" xmlns="http://www.w3.org/2000/svg" xmlns:xlink="http://www.w3.org/1999/xlink">
    <!-- Generator: Sketch 53.2 (72643) - https://sketchapp.com -->
    <title>checklist</title>
    <desc>Created with Sketch.</desc>
    <g id="Page-1" stroke="none" stroke-width="1" fill="none" fill-rule="evenodd" opacity="0.300000012">
        <g id="Company--&gt;-Settings" transform="translate(-296.000000, -341.000000)" fill="#000000" fill-rule="nonzero">
            <g id="Group-2" transform="translate(264.000000, 310.000000)">
                <g id="Group" transform="translate(32.000000, 31.000000)">
                    <g id="checklist" transform="translate(2.000000, 3.000000)">
                        <path d="M4.07396818,44 L25.2590929,44 L25.2590929,42.3700451 L4.07396818,42.3700451 C2.72401178,42.3700451 1.62954644,41.2755797 1.62954644,39.9256234 L1.62954644,4.07396818 C1.62954644,2.72360335 2.72401178,1.62954644 4.07396818,1.62954644 L39.9256234,1.62954644 C41.2761924,1.62954644 42.3700451,2.72360335 42.3700451,4.07396818 L42.3700451,22.8144669 L44,22.8144669 L44,4.07396818 C43.997345,1.82499397 42.1748018,0.0026549692 39.9256234,0 L4.07396818,0 C1.8254024,0.0026549692 0.00285921167,1.82499397 0,4.07396818 L0,39.9256234 C0.00285921167,42.1745975 1.8254024,43.9969365 4.07396818,44 Z" id="Path"></path>
                        <polygon id="Path" points="3 3 5 3 5 5 3 5"></polygon>
                        <polygon id="Path" points="7 3 9 3 9 5 7 5"></polygon>
                        <polygon id="Path" points="9 3 11 3 11 5 9 5"></polygon>
                        <polygon id="Path" points="4 7 41 7 41 9 4 9"></polygon>
                        <path d="M11.9159719,10 L9.96818097,11.9477225 C8.3217652,10.8577744 6.11699813,11.1921968 4.86748271,12.7213146 C3.61815953,14.2502403 3.73021423,16.4774169 5.12638093,17.8733423 C6.52235544,19.2698444 8.74980256,19.3818951 10.2789741,18.1324237 C11.8079535,16.8831444 12.1425799,14.6780704 11.0524013,13.0320969 L13,11.0843744 L11.9159719,10 Z M7.85682476,17.4432059 C6.58655141,17.4432059 5.55653249,16.4134154 5.55653249,15.1429945 C5.55653249,13.8723813 6.58655141,12.842783 7.85682476,12.842783 C8.19894716,12.8439362 8.53549557,12.9223525 8.84244465,13.0724582 L7.31500295,14.6000385 L8.39903106,15.6844129 L9.92762601,14.1577936 C10.077737,14.4645397 10.1563483,14.8010763 10.1575015,15.1429945 C10.1575015,16.4134154 9.12786698,17.4432059 7.85682476,17.4432059 Z" id="Shape"></path>
                        <polygon id="Path" points="13 13 27 13 27 15 13 15"></polygon>
                        <polygon id="Path" points="14 16 20 16 20 18 14 18"></polygon>
                        <polygon id="Path" points="21 16 32 16 32 18 21 18"></polygon>
                        <polygon id="Path" points="30 13 39 13 39 15 30 15"></polygon>
                        <path d="M11.9159719,20 L9.96818097,21.9477141 C8.3217652,20.8577707 6.11699813,21.1921917 4.86748271,22.721303 C3.61815953,24.2504142 3.73021423,26.4773891 5.12638093,27.8736929 C6.52235544,29.2698046 8.74980256,29.3818548 10.2789741,28.1323887 C11.8079535,26.8829226 12.1425799,24.6786269 11.0524013,23.0320839 L13,21.0843698 L11.9159719,20 Z M7.85682476,27.4433661 C6.58655141,27.4433661 5.55653249,26.4133878 5.55653249,25.1429724 C5.55653249,23.8723647 6.58655141,22.8423865 7.85682476,22.8423865 C8.19894716,22.8437318 8.53549557,22.92234 8.84244465,23.072445 L7.31500295,24.6004031 L8.39903106,25.6843885 L9.92762601,24.1575836 C10.077737,24.4645206 10.1563483,24.8010557 10.1575015,25.1429724 C10.1575015,26.4133878 9.12786698,27.4433661 7.85682476,27.4433661 Z" id="Shape"></path>
                        <polygon id="Path" points="13 23 27 23 27 25 13 25"></polygon>
                        <polygon id="Path" points="14 26 20 26 20 28 14 28"></polygon>
                        <polygon id="Path" points="21 26 27 26 27 28 21 28"></polygon>
                        <polygon id="Path" points="30 23 33 23 33 25 30 25"></polygon>
                        <path d="M11.9159719,30 L9.96818097,31.9477163 C8.3217652,30.8577717 6.11699813,31.192193 4.86748271,32.721306 C3.61815953,34.250419 3.73021423,36.4773963 5.12638093,37.8737017 C6.52235544,39.2700071 8.74980256,39.3816731 10.2789741,38.1323978 C11.8079535,36.8829303 12.1425799,34.6784399 11.0524013,33.0318951 L13,31.084371 L11.9159719,30 Z M7.85682476,37.4433744 C6.58655141,37.4433744 5.55653249,36.413395 5.55653249,35.1429781 C5.55653249,33.872369 6.58655141,32.8425818 7.85682476,32.8425818 C8.19894716,32.843735 8.53549557,32.922151 8.84244465,33.0724485 L7.31500295,34.6004082 L8.39903106,35.6843948 L9.92762601,34.1575882 C10.077737,34.4645255 10.1563483,34.8012533 10.1575015,35.1429781 C10.1575015,36.413395 9.12786698,37.4433744 7.85682476,37.4433744 Z" id="Shape"></path>
                        <polygon id="Path" points="14 33 25 33 25 35 14 35"></polygon>
                        <polygon id="Path" points="14 35 20 35 20 37 14 37"></polygon>
                        <polygon id="Path" points="21 35 24 35 24 37 21 37"></polygon>
                        <path d="M38.5002089,49 C45.4040855,49 51,43.4031347 51,36.5 C51,29.5962387 45.4040855,24 38.5002089,24 C31.5963322,24 26,29.5962387 26,36.5 C26.008146,43.4000017 31.5996742,48.9916452 38.5002089,49 Z M38.5002089,25.6667781 C44.482956,25.6667781 49.3336119,30.5169352 49.3336119,36.5 C49.3336119,42.4830648 44.482956,47.333013 38.5002089,47.333013 C32.5168352,47.333013 27.6663881,42.4830648 27.6663881,36.5 C27.6734898,30.5198593 32.5195505,25.6734619 38.5002089,25.6667781 Z" id="Shape"></path>
                        <path d="M33.4920773,36.6285223 L32,37.3458043 L33.6671488,40.5558725 C33.7866487,40.7867867 34.0147848,40.9483058 34.2794813,40.9895405 C34.3225179,40.9959772 34.3655546,40.9993966 34.4088002,41 C34.6296243,41 34.8416739,40.9153181 34.9983608,40.7648619 L45,31.1348584 L43.8217144,30 L34.6369364,38.8427231 L33.4920773,36.6285223 Z" id="Path"></path>
                    </g>
                </g>
            </g>
        </g>
    </g>
</svg>