<?xml version="1.0" encoding="UTF-8"?>
<svg width="24px" height="24px" viewBox="0 0 24 24" version="1.1" xmlns="http://www.w3.org/2000/svg" xmlns:xlink="http://www.w3.org/1999/xlink">
    <!-- Generator: Sketch 53.2 (72643) - https://sketchapp.com -->
    <title>clone</title>
    <desc>Created with Sketch.</desc>
    <g id="Symbols" stroke="none" stroke-width="1" fill="none" fill-rule="evenodd">
        <g id="report-box" transform="translate(-278.000000, -16.000000)" fill="#26A0CD" fill-rule="nonzero">
            <g id="Group" transform="translate(278.000000, 16.000000)">
                <path d="M16.7368421,1 L4.10526316,1 C2.94736842,1 2,1.94090909 2,3.09090909 L2,17.7272727 L4.10526316,17.7272727 L4.10526316,3.09090909 L16.7368421,3.09090909 L16.7368421,1 Z M19.8947368,5.18181818 L8.31578947,5.18181818 C7.15789474,5.18181818 6.21052632,6.12272727 6.21052632,7.27272727 L6.21052632,21.9090909 C6.21052632,23.0590909 7.15789474,24 8.31578947,24 L19.8947368,24 C21.0526316,24 22,23.0590909 22,21.9090909 L22,7.27272727 C22,6.12272727 21.0526316,5.18181818 19.8947368,5.18181818 Z M19.8947368,21.9090909 L8.31578947,21.9090909 L8.31578947,7.27272727 L19.8947368,7.27272727 L19.8947368,21.9090909 Z" id="Shape"></path>
            </g>
        </g>
    </g>
</svg>