<?xml version="1.0" encoding="UTF-8"?>
<svg width="22px" height="20px" viewBox="0 0 22 20" version="1.1" xmlns="http://www.w3.org/2000/svg" xmlns:xlink="http://www.w3.org/1999/xlink">
    <!-- Generator: Sketch 53.2 (72643) - https://sketchapp.com -->
    <title>Combined Shape</title>
    <desc>Created with Sketch.</desc>
    <g id="Page-1" stroke="none" stroke-width="1" fill="none" fill-rule="evenodd">
        <g id="Colleagues--&gt;-Departments--&gt;-Detail" transform="translate(-1042.000000, -963.000000)" fill="#B9B9B9">
            <path d="M1062,974 L1062,976 L1060,976 L1060,974 L1046,974 L1046,976 L1044,976 L1044,974 L1044,972 L1052,972 L1052,970 L1054,970 L1054,972 L1062,972 L1062,974 Z M1053,963 C1054.65685,963 1056,964.343146 1056,966 C1056,967.656854 1054.65685,969 1053,969 C1051.34315,969 1050,967.656854 1050,966 C1050,964.343146 1051.34315,963 1053,963 Z M1045,977 C1046.65685,977 1048,978.343146 1048,980 C1048,981.656854 1046.65685,983 1045,983 C1043.34315,983 1042,981.656854 1042,980 C1042,978.343146 1043.34315,977 1045,977 Z M1061,977 C1062.65685,977 1064,978.343146 1064,980 C1064,981.656854 1062.65685,983 1061,983 C1059.34315,983 1058,981.656854 1058,980 C1058,978.343146 1059.34315,977 1061,977 Z M1053,977 C1054.65685,977 1056,978.343146 1056,980 C1056,981.656854 1054.65685,983 1053,983 C1051.34315,983 1050,981.656854 1050,980 C1050,978.343146 1051.34315,977 1053,977 Z" id="Combined-Shape"></path>
        </g>
    </g>
</svg>