<?xml version="1.0" encoding="UTF-8"?>
<svg width="22px" height="20px" viewBox="0 0 22 20" version="1.1" xmlns="http://www.w3.org/2000/svg" xmlns:xlink="http://www.w3.org/1999/xlink">
    <!-- Generator: Sketch 53.2 (72643) - https://sketchapp.com -->
    <title>Shape</title>
    <desc>Created with Sketch.</desc>
    <g id="Page-1" stroke="none" stroke-width="1" fill="none" fill-rule="evenodd">
        <g id="Colleagues--&gt;-Departments--&gt;-Detail" transform="translate(-848.000000, -574.000000)" fill="#FFFFFF" fill-rule="nonzero">
            <path d="M862,577.447134 C862.946199,578.139004 863.609688,579.30979 863.730484,580.668808 C864.11637,580.879079 864.54465,581 864.998723,581 C866.656423,581 868,579.433094 868,577.500149 C868,575.566906 866.656423,574 864.998723,574 C863.356857,574.000596 862.025028,575.539506 862,577.447134 Z M859.000255,585 C860.657109,585 862,583.432796 862,581.499851 C862,579.566906 860.656854,578 859.000255,578 C857.343657,578 856,579.567204 856,581.500149 C856,583.433094 857.343657,585 859.000255,585 Z M860.869406,585 L858.131418,585 C855.853331,585 854,586.960221 854,589.369338 L854,592.910279 L854.008512,592.965738 L854.239148,593.042102 C856.413174,593.760453 858.301924,594 859.856526,594 C862.892968,594 864.652946,593.084495 864.761401,593.026132 L864.976936,592.910859 L865,592.910859 L865,589.369338 C865.000823,586.960221 863.147492,585 860.869406,585 Z M865.907382,581 L863.215872,581 C863.186767,582.151021 862.727075,583.187492 862,583.932937 C864.006052,584.570519 865.473802,586.558858 865.473802,588.907417 L865.473802,590 C868.131311,589.895917 869.662711,589.090871 869.763626,589.036794 L869.977151,588.921082 L870,588.921082 L870,585.374402 C870,582.962463 868.163952,581 865.907382,581 Z M854.000255,581 C854.587184,581 855.133265,580.800145 855.595864,580.459706 C855.742915,579.340694 856.257085,578.362863 856.991575,577.696877 C856.994639,577.631351 857,577.56642 857,577.500298 C857,575.566973 855.656625,574 854.000255,574 C852.342864,574 851,575.566973 851,577.500298 C851,579.432729 852.342864,581 854.000255,581 Z M856,583.94006 C855.304325,583.196593 854.863905,582.163142 854.831737,581.016321 C854.735755,581.008452 854.640819,581 854.543006,581 L851.935271,581 C849.76534,581 848,582.967229 848,585.385026 L848,588.939736 L848.008107,588.994527 L848.227794,589.071759 C849.889045,589.649688 851.37167,589.916065 852.659453,590 L852.659453,588.926622 C852.659976,586.572358 854.070679,584.579774 856,583.94006 Z" id="Shape"></path>
        </g>
    </g>
</svg>