<?xml version="1.0" encoding="UTF-8"?>
<svg width="33px" height="33px" viewBox="0 0 33 33" version="1.1" xmlns="http://www.w3.org/2000/svg" xmlns:xlink="http://www.w3.org/1999/xlink">
    <!-- Generator: Sketch 53.2 (72643) - https://sketchapp.com -->
    <title>information</title>
    <desc>Created with Sketch.</desc>
    <g id="Page-1" stroke="none" stroke-width="1" fill="none" fill-rule="evenodd">
        <g id="information" fill-rule="nonzero">
            <path d="M16.5,0 C7.4019,0 0,7.402 0,16.5001 C0,25.5982 7.4019,33 16.5,33 C25.5981,33 33,25.5982 33,16.5001 C33,7.402 25.5981,0 16.5,0 Z M16.5,30 C9.056,30 3,23.944 3,16.5001 C3,9.0562 9.056,3 16.5,3 C23.944,3 30,9.0562 30,16.5001 C30,23.944 23.9439,30 16.5,30 Z" id="Shape" fill="#949EB6"></path>
            <path d="M16.5,7 C15.3971794,7 14.5,7.8976 14.5,9.0009 C14.5,10.1032 15.3971794,11 16.5,11 C17.6028206,11 18.5,10.1032 18.5,9.0009 C18.5,7.8976 17.6028206,7 16.5,7 Z" id="Path" fill="#009ECE"></path>
            <path d="M16.5,14.4 C15.5611467,14.4 14.8,15.0492133 14.8,15.85 L14.8,24.55 C14.8,25.3507867 15.5611467,26 16.5,26 C17.4388533,26 18.2,25.3507867 18.2,24.55 L18.2,15.85 C18.2,15.0492133 17.4388533,14.4 16.5,14.4 Z" id="Path" fill="#009ECE"></path>
        </g>
    </g>
</svg>