<?xml version="1.0" encoding="UTF-8"?>
<svg width="30px" height="30px" viewBox="0 0 30 30" version="1.1" xmlns="http://www.w3.org/2000/svg" xmlns:xlink="http://www.w3.org/1999/xlink">
    <!-- Generator: Sketch 52.4 (67378) - http://www.bohemiancoding.com/sketch -->
    <title>5.1: Rapporter </title>
    <desc>Created with Sketch.</desc>
    <g id="5:-Rapporter-" stroke="none" stroke-width="1" fill="none" fill-rule="evenodd">
        <g id="5.1:-Rapporter-" transform="translate(-983.000000, -265.000000)" fill="#009ECE" fill-rule="nonzero">
            <g id="Group-8" transform="translate(983.000000, 265.000000)">
                <path d="M8,17 C6.8954305,17 6,16.1045695 6,15 C6,13.8954305 6.8954305,13 8,13 C9.1045695,13 10,13.8954305 10,15 C10,16.1045695 9.1045695,17 8,17 Z M15,17 C13.8954305,17 13,16.1045695 13,15 C13,13.8954305 13.8954305,13 15,13 C16.1045695,13 17,13.8954305 17,15 C17,16.1045695 16.1045695,17 15,17 Z M22,17 C20.8954305,17 20,16.1045695 20,15 C20,13.8954305 20.8954305,13 22,13 C23.1045695,13 24,13.8954305 24,15 C24,16.1045695 23.1045695,17 22,17 Z" id="Combined-Shape"></path>
            </g>
        </g>
    </g>
</svg>