<?xml version="1.0" encoding="UTF-8"?>
<svg width="49px" height="55px" viewBox="0 0 49 55" version="1.1" xmlns="http://www.w3.org/2000/svg" xmlns:xlink="http://www.w3.org/1999/xlink">
    <!-- Generator: Sketch 52.4 (67378) - http://www.bohemiancoding.com/sketch -->
    <title>Group</title>
    <desc>Created with Sketch.</desc>
    <g id="3:2-Anställda---Onborda-ny-&amp;-Bli-ombordad" stroke="none" stroke-width="1" fill="none" fill-rule="evenodd">
        <g id="3:2.19-Anställda---Onborda-ny-&amp;-Bli-ombordad" transform="translate(-215.000000, -153.000000)">
            <g id="Group" transform="translate(216.000000, 154.000000)">
                <path d="M8.43615852,7.8869155 L43.4340834,7.8869155 C45.6432224,7.8869155 47.4340834,9.6777765 47.4340834,11.8869155 L47.4340834,49.8804188 C47.4340834,52.0895578 45.6432224,53.8804188 43.4340834,53.8804188 L8.43615852,53.8804188 C6.22701952,53.8804188 4.43615852,52.0895578 4.43615852,49.8804188 L4.43615852,11.8869155 C4.43615852,9.6777765 6.22701952,7.8869155 8.43615852,7.8869155 Z" id="Rectangle-Copy" fill="#373A5B" fill-rule="nonzero" opacity="0.100000001"></path>
                <path d="M4.28817498,3.25448725 L39.2860998,3.25448725 C41.4952388,3.25448725 43.2860998,5.04534825 43.2860998,7.25448725 L43.2860998,45.2479905 C43.2860998,47.4571295 41.4952388,49.2479905 39.2860998,49.2479905 L4.28817498,49.2479905 C2.07903598,49.2479905 0.28817498,47.4571295 0.28817498,45.2479905 L0.28817498,7.25448725 C0.28817498,5.04534825 2.07903598,3.25448725 4.28817498,3.25448725 Z" id="Rectangle" stroke="#3F4658" stroke-width="1.5" fill="#FFFFFF" fill-rule="nonzero" stroke-linecap="round" stroke-linejoin="round"></path>
                <g id="Group-3" transform="translate(5.790000, 33.442840)">
                    <path d="M9.08345145,5.40970284 C9.38883973,5.39748731 9.62398518,5.4952101 9.78889486,5.70287413 C9.95380453,5.91053816 10.0362581,6.1609528 10.0362581,6.45412555 C10.0362581,6.75951384 9.95380453,7.01603615 9.78889486,7.22370018 C9.62398518,7.43136421 9.38883973,7.52297932 9.08345145,7.49854826 L7.81915028,7.40693223 L8.53375529,8.45135494 C8.64369507,8.61015685 8.69866414,8.76895637 8.69866414,8.92775828 C8.69866414,9.2087155 8.57040298,9.45302246 8.31387682,9.6606865 C8.05735066,9.86835053 7.78250533,9.97218099 7.48933258,9.97218099 C7.33053067,9.97218099 7.1839465,9.93248111 7.04957565,9.85308015 C6.91520481,9.7736792 6.81137435,9.65457955 6.73808116,9.49577765 L6.188385,8.35973891 L5.62036563,9.49577765 C5.46156372,9.81338146 5.21114909,9.97218099 4.86911421,9.97218099 C4.57594146,9.97218099 4.30414996,9.86529669 4.05373157,9.65152489 C3.80331318,9.43775309 3.67810586,9.1903923 3.67810586,8.90943507 C3.67810586,8.73841764 3.72696725,8.58572578 3.8246915,8.45135494 L4.53929651,7.40693223 L3.27499534,7.49854826 C2.96960706,7.51076379 2.7344616,7.41609484 2.56955193,7.21453858 C2.40464226,7.01298231 2.32218866,6.76562151 2.32218866,6.47244876 C2.32218866,6.179276 2.4076961,5.92580753 2.57871353,5.71203573 C2.74973097,5.49826393 2.98182259,5.39748731 3.27499534,5.40970284 L4.52097331,5.50131887 L3.8246915,4.49354257 C3.71475172,4.32252514 3.65978265,4.15761794 3.65978265,3.99881603 C3.65978265,3.73007434 3.78498997,3.49187505 4.03540836,3.28421102 C4.28582676,3.07654699 4.55761825,2.97271653 4.850791,2.97271653 C5.20504141,2.97271653 5.46156372,3.13151605 5.62036563,3.44911987 L6.188385,4.5851586 L6.73808116,3.44911987 C6.89688307,3.11930052 7.15340538,2.95439332 7.50765579,2.95439332 C7.80082854,2.95439332 8.07262003,3.05822378 8.32303843,3.26588781 C8.57345682,3.47355185 8.69866414,3.71785881 8.69866414,3.99881603 C8.69866414,4.15761794 8.64369507,4.32252514 8.53375529,4.49354257 L7.83747348,5.50131887 L9.08345145,5.40970284 Z" id="*-copy" fill="#EBEBEE"></path>
                    <path d="M7.08345145,3.40970284 C7.38883973,3.39748731 7.62398518,3.4952101 7.78889486,3.70287413 C7.95380453,3.91053816 8.03625813,4.1609528 8.03625813,4.45412555 C8.03625813,4.75951384 7.95380453,5.01603615 7.78889486,5.22370018 C7.62398518,5.43136421 7.38883973,5.52297932 7.08345145,5.49854826 L5.81915028,5.40693223 L6.53375529,6.45135494 C6.64369507,6.61015685 6.69866414,6.76895637 6.69866414,6.92775828 C6.69866414,7.2087155 6.57040298,7.45302246 6.31387682,7.6606865 C6.05735066,7.86835053 5.78250533,7.97218099 5.48933258,7.97218099 C5.33053067,7.97218099 5.1839465,7.93248111 5.04957565,7.85308015 C4.91520481,7.7736792 4.81137435,7.65457955 4.73808116,7.49577765 L4.188385,6.35973891 L3.62036563,7.49577765 C3.46156372,7.81338146 3.21114909,7.97218099 2.86911421,7.97218099 C2.57594146,7.97218099 2.30414996,7.86529669 2.05373157,7.65152489 C1.80331318,7.43775309 1.67810586,7.1903923 1.67810586,6.90943507 C1.67810586,6.73841764 1.72696725,6.58572578 1.8246915,6.45135494 L2.53929651,5.40693223 L1.27499534,5.49854826 C0.969607056,5.51076379 0.734461605,5.41609484 0.569551932,5.21453858 C0.404642258,5.01298231 0.322188659,4.76562151 0.322188659,4.47244876 C0.322188659,4.179276 0.407696095,3.92580753 0.578713534,3.71203573 C0.749730973,3.49826393 0.981822587,3.39748731 1.27499534,3.40970284 L2.52097331,3.50131887 L1.8246915,2.49354257 C1.71475172,2.32252514 1.65978265,2.15761794 1.65978265,1.99881603 C1.65978265,1.73007434 1.78498997,1.49187505 2.03540836,1.28421102 C2.28582676,1.07654699 2.55761825,0.972716526 2.850791,0.972716526 C3.20504141,0.972716526 3.46156372,1.13151605 3.62036563,1.44911987 L4.188385,2.5851586 L4.73808116,1.44911987 C4.89688307,1.11930052 5.15340538,0.954393321 5.50765579,0.954393321 C5.80082854,0.954393321 6.07262003,1.05822378 6.32303843,1.26588781 C6.57345682,1.47355185 6.69866414,1.71785881 6.69866414,1.99881603 C6.69866414,2.15761794 6.64369507,2.32252514 6.53375529,2.49354257 L5.83747348,3.50131887 L7.08345145,3.40970284 Z" id="*" fill="#32B3DE"></path>
                </g>
                <g id="Group-2" transform="translate(6.787137, 14.000000)" fill-rule="nonzero" stroke="#3F4658" stroke-linecap="round" stroke-linejoin="round" stroke-width="1.5">
                    <circle id="Oval" fill="#FFFFFF" cx="2" cy="2.96189301" r="2"></circle>
                    <path d="M9.04610861,2.96189301 L29.3268016,2.96189301" id="Path-21-Copy-3" opacity="0.300000012"></path>
                </g>
                <g id="Group-2-Copy" transform="translate(6.787137, 23.000000)" fill-rule="nonzero" stroke="#3F4658" stroke-linecap="round" stroke-linejoin="round" stroke-width="1.5">
                    <circle id="Oval" fill="#FFFFFF" cx="2" cy="2.96189301" r="2"></circle>
                    <path d="M9.04610861,2.96189301 L24.3268016,2.96189301" id="Path-21-Copy-3" opacity="0.300000012"></path>
                </g>
                <path d="M14.3666516,3.52386432 L37.7915488,3.52386432 L37.7915488,7.24583963 C37.7915488,8.62655151 36.6722606,9.74583963 35.2915488,9.74583963 L14.3666516,9.74583963 C12.9859398,9.74583963 11.8666516,8.62655151 11.8666516,7.24583963 L11.8666516,6.02386432 C11.8666516,4.64315245 12.9859398,3.52386432 14.3666516,3.52386432 Z" id="Rectangle-2-Copy" fill="#373A5B" fill-rule="nonzero" opacity="0.100000001"></path>
                <path d="M11.314465,0 L32.2393622,0 C33.620074,-2.53632657e-16 34.7393622,1.11928813 34.7393622,2.5 L34.7393622,3.72197531 C34.7393622,5.10268719 33.620074,6.22197531 32.2393622,6.22197531 L11.314465,6.22197531 C9.93375315,6.22197531 8.81446502,5.10268719 8.81446502,3.72197531 L8.81446502,2.5 C8.81446502,1.11928813 9.93375315,2.53632657e-16 11.314465,0 Z" id="Rectangle-2" stroke="#32B3DE" stroke-width="1.5" fill="#FFFFFF" fill-rule="nonzero"></path>
                <g id="Group-2-Copy-3" transform="translate(26.924897, 40.442840)" fill-rule="nonzero" stroke="#32B3DE" stroke-linecap="round" stroke-linejoin="round" stroke-width="1.5">
                    <path d="M0.733904882,1.03699589 L8.45965964,1.03699589" id="Path-21-Copy-2"></path>
                </g>
            </g>
        </g>
    </g>
</svg>