<?xml version="1.0" encoding="UTF-8"?>
<svg width="19px" height="17px" viewBox="0 0 19 17" version="1.1" xmlns="http://www.w3.org/2000/svg" xmlns:xlink="http://www.w3.org/1999/xlink">
    <!-- Generator: Sketch 52.2 (67145) - http://www.bohemiancoding.com/sketch -->
    <title>Group 21</title>
    <desc>Created with Sketch.</desc>
    <g id="Klickbar-Prototyp" stroke="none" stroke-width="1" fill="none" fill-rule="evenodd" stroke-linecap="round" stroke-linejoin="round">
        <g id="Employee-Settings---Time-off" transform="translate(-356.000000, -1884.000000)" fill-rule="nonzero" stroke="#949EB6" stroke-width="1.5">
            <g id="Group-18" transform="translate(286.000000, 1358.000000)">
                <g id="Group-16-Copy-5">
                    <g id="Group-29-Copy-3" transform="translate(0.000000, 518.000000)">
                        <g id="Group-13-Copy" transform="translate(70.000000, 7.000000)">
                            <g id="Group-21">
                                <g id="Group-33" transform="translate(1.000000, 2.000000)">
                                    <path d="M16.700396,5.10249628 C16.700396,2.65803447 14.7187407,0.676478931 12.2742789,0.676478931 C10.6780905,0.676478931 9.2841159,1.52418686 8.50536491,2.79105848 C7.72671371,1.52418686 6.33214036,0.676478931 4.73598524,0.676478931 C2.29152342,0.676478931 0.310433588,2.65803447 0.310433588,5.10249628 C0.310433588,6.43336845 0.900176716,7.62403152 1.82964834,8.43484932 L8.10146954,14.7069366 C8.20858065,14.8140477 8.35384593,14.8742229 8.50536491,14.8742229 C8.65688389,14.8742229 8.80214917,14.8140477 8.90926028,14.7069366 L15.1810815,8.43484932 C16.1105864,7.62403152 16.700396,6.43336845 16.700396,5.10249628 Z" id="Shape"></path>
                                    <path d="M3.1017348,5.96185188 C2.98415254,5.35768328 3.19886596,4.74691491 3.74587506,4.12954676 C4.29288416,3.51217861 4.74881388,3.22431037 5.11366421,3.26594203" id="Path-15"></path>
                                </g>
                            </g>
                        </g>
                    </g>
                </g>
            </g>
        </g>
    </g>
</svg>