<?xml version="1.0" encoding="UTF-8"?>
<svg width="15px" height="14px" viewBox="0 0 15 14" version="1.1" xmlns="http://www.w3.org/2000/svg" xmlns:xlink="http://www.w3.org/1999/xlink">
    <!-- Generator: Sketch 53.2 (72643) - https://sketchapp.com -->
    <title>Shape</title>
    <desc>Created with Sketch.</desc>
    <g id="Page-1" stroke="none" stroke-width="1" fill="none" fill-rule="evenodd">
        <g id="Colleagues--&gt;-Departments--&gt;-Detail" transform="translate(-825.000000, -660.000000)" fill="#5CDC83" fill-rule="nonzero">
            <g id="Group-4" transform="translate(632.000000, 647.000000)">
                <g id="Group-2-Copy-2" transform="translate(180.500000, 0.000000)">
                    <g id="rounded-add-button" transform="translate(13.000000, 13.000000)">
                        <path d="M7.7,3.5 L6.3,3.5 L6.3,6.3 L3.5,6.3 L3.5,7.7 L6.3,7.7 L6.3,10.5 L7.7,10.5 L7.7,7.7 L10.5,7.7 L10.5,6.3 L7.7,6.3 L7.7,3.5 Z M7,0 C3.15,0 0,3.15 0,7 C0,10.85 3.15,14 7,14 C10.85,14 14,10.85 14,7 C14,3.15 10.85,0 7,0 Z M7,12.6 C3.92,12.6 1.4,10.08 1.4,7 C1.4,3.92 3.92,1.4 7,1.4 C10.08,1.4 12.6,3.92 12.6,7 C12.6,10.08 10.08,12.6 7,12.6 Z" id="Shape"></path>
                    </g>
                </g>
            </g>
        </g>
    </g>
</svg>