<?xml version="1.0" encoding="UTF-8"?>
<svg width="46px" height="46px" viewBox="0 0 46 46" version="1.1" xmlns="http://www.w3.org/2000/svg" xmlns:xlink="http://www.w3.org/1999/xlink">
    <!-- Generator: Sketch 53.2 (72643) - https://sketchapp.com -->
    <title>report_type_leave</title>
    <desc>Created with Sketch.</desc>
    <g id="Page-1" stroke="none" stroke-width="1" fill="none" fill-rule="evenodd">
        <g id="3-Create-report" transform="translate(-341.000000, -333.000000)" fill="#E3E3E3" fill-rule="nonzero">
            <g id="Group-Copy" transform="translate(327.000000, 313.000000)">
                <g id="Group-4" transform="translate(14.000000, 20.000000)">
                    <path d="M5.74996445,7.18763924 L5.74996445,1.43750889 C5.74996445,0.642864062 6.39283116,0 7.18766887,0 C7.98212736,0 8.62499407,0.642864062 8.62499407,1.43750889 L8.62499407,7.18763924 C8.62499407,7.98209446 7.98212736,8.62495852 7.18766887,8.62495852 C6.39283116,8.62505333 5.74996445,7.98209446 5.74996445,7.18763924 Z M30.1878111,8.62505333 C30.98208,8.62505333 31.6253259,7.98218927 31.6253259,7.18773405 L31.6253259,1.43750889 C31.6253259,0.642864062 30.98208,0 30.1878111,0 C29.393163,0 28.7498222,0.642864062 28.7498222,1.43750889 L28.7498222,7.18763924 C28.7498222,7.98209446 29.393163,8.62505333 30.1878111,8.62505333 Z M46,34.4996445 C46,40.8511149 40.8509988,46 34.4999763,46 C28.1494278,46 23.0000474,40.8511149 23.0000474,34.4996445 C23.0000474,28.1491221 28.149333,22.9999526 34.4999763,22.9999526 C40.8509988,22.9999526 46,28.1490273 46,34.4996445 Z M43.1253496,34.4996445 C43.1253496,29.7441948 39.2563936,25.8747808 34.5000711,25.8747808 C29.7441278,25.8747808 25.8751718,29.7441 25.8751718,34.4996445 C25.8751718,39.2560422 29.7441278,43.1248874 34.5000711,43.1248874 C39.2563936,43.1248874 43.1253496,39.2560422 43.1253496,34.4996445 Z M11.5001185,17.2500119 L5.74996445,17.2500119 L5.74996445,22.9999526 L11.5001185,22.9999526 L11.5001185,17.2500119 Z M5.74996445,31.6250059 L11.5001185,31.6250059 L11.5001185,25.8747808 L5.74996445,25.8747808 L5.74996445,31.6250059 Z M14.3749585,22.9999526 L20.1252074,22.9999526 L20.1252074,17.2500119 L14.3749585,17.2500119 L14.3749585,22.9999526 Z M14.3749585,31.6250059 L20.1252074,31.6250059 L20.1252074,25.8747808 L14.3749585,25.8747808 L14.3749585,31.6250059 Z M2.87512443,34.2138113 L2.87512443,14.3748993 L34.5000711,14.3748993 L34.5000711,20.1250296 L37.3751955,20.1250296 L37.3751955,8.91155019 C37.3751955,7.16517076 35.9823335,5.74994075 34.2615439,5.74994075 L33.0625563,5.74994075 L33.0625563,7.18773405 C33.0625563,8.77105106 31.7735995,10.062657 30.1879059,10.062657 C28.6017382,10.062657 27.3128763,8.77105106 27.3128763,7.18773405 L27.3128763,5.74994075 L10.0624141,5.74994075 L10.0624141,7.18773405 C10.0624141,8.77105106 8.77374173,10.062657 7.18776367,10.062657 C5.6014064,10.062657 4.31263924,8.77105106 4.31263924,7.18773405 L4.31263924,5.74994075 L3.11507365,5.74994075 C1.39418933,5.74994075 0,7.16517076 0,8.91155019 L0,34.2139061 C0,35.9545025 1.39418933,37.3752311 3.11507365,37.3752311 L20.1252074,37.3752311 L20.1252074,34.4997393 L3.11507365,34.4997393 C2.98481279,34.4996445 2.87512443,34.365118 2.87512443,34.2138113 Z M28.7498222,22.9999526 L28.7498222,17.2500119 L23.0001422,17.2500119 L23.0001422,22.9999526 L28.7498222,22.9999526 Z M38.8126155,34.4996445 L34.4999763,34.4996445 L34.4999763,30.187023 C34.4999763,29.3928522 33.8571096,28.7499881 33.0624615,28.7499881 C32.2678134,28.7499881 31.6253259,29.3928522 31.6253259,30.187023 L31.6253259,35.9376274 C31.6253259,36.731893 32.2678134,37.3751363 33.0624615,37.3751363 L38.8126155,37.3751363 C39.6072636,37.3751363 40.2501304,36.731893 40.2501304,35.9376274 C40.2501304,35.1429826 39.6072636,34.4996445 38.8126155,34.4996445 Z" id="Shape"></path>
                </g>
            </g>
        </g>
    </g>
</svg>