<?xml version="1.0" encoding="UTF-8"?>
<svg width="44px" height="44px" viewBox="0 0 44 44" version="1.1" xmlns="http://www.w3.org/2000/svg" xmlns:xlink="http://www.w3.org/1999/xlink">
    <!-- Generator: Sketch 52.6 (67491) - http://www.bohemiancoding.com/sketch -->
    <title>Group 32</title>
    <desc>Created with Sketch.</desc>
    <defs>
        <linearGradient x1="100%" y1="50%" x2="0.966401734%" y2="50%" id="linearGradient-1">
            <stop stop-color="#B2D59A" offset="0%"></stop>
            <stop stop-color="#80D1A6" offset="100%"></stop>
        </linearGradient>
        <circle id="path-2" cx="21.9102041" cy="21.9102041" r="21.9102041"></circle>
        <linearGradient x1="50%" y1="25.340609%" x2="50%" y2="100%" id="linearGradient-4">
            <stop stop-color="#2A7449" offset="0%"></stop>
            <stop stop-color="#588E4A" offset="100%"></stop>
        </linearGradient>
        <circle id="path-5" cx="7.5" cy="7.5" r="7.5"></circle>
        <filter x="-20.0%" y="-6.7%" width="126.7%" height="126.7%" filterUnits="objectBoundingBox" id="filter-6">
            <feOffset dx="-2" dy="2" in="SourceAlpha" result="shadowOffsetOuter1"></feOffset>
            <feColorMatrix values="0 0 0 0 0.164705882   0 0 0 0 0.454901961   0 0 0 0 0.28627451  0 0 0 0.2 0" type="matrix" in="shadowOffsetOuter1"></feColorMatrix>
        </filter>
    </defs>
    <g id="Page-1" stroke="none" stroke-width="1" fill="none" fill-rule="evenodd">
        <g id="3-Time-off" transform="translate(-28.000000, -23.000000)">
            <g id="Group-32" transform="translate(28.000000, 23.000000)">
                <mask id="mask-3" fill="white">
                    <use xlink:href="#path-2"></use>
                </mask>
                <use id="Oval-14" fill="url(#linearGradient-1)" fill-rule="nonzero" xlink:href="#path-2"></use>
                <circle id="Oval-10" stroke="#2C8D4F" stroke-width="6" opacity="0.200000003" fill-rule="nonzero" mask="url(#mask-3)" cx="6.31591962" cy="9.67600036" r="10.7392741"></circle>
                <rect id="Rectangle-8-Copy" stroke="#2C8D4F" stroke-width="6" opacity="0.200000003" fill-rule="nonzero" mask="url(#mask-3)" x="22.5025999" y="28.7517405" width="28.4353741" height="26.3401361"></rect>
                <g id="Group" mask="url(#mask-3)" fill-rule="nonzero">
                    <g transform="translate(8.000000, 8.000000)">
                        <path d="M8.98545221,21.3693325 L7.08773646,24.2094668" id="Path-2" stroke="#FFFFFF" stroke-width="2" fill="none" stroke-linecap="round" stroke-linejoin="round"></path>
                        <path d="M20.9854522,21.3693325 L19.0877365,24.2094668" id="Path-2-Copy" stroke="#FFFFFF" stroke-width="2" fill="none" stroke-linecap="round" stroke-linejoin="round" transform="translate(20.036594, 22.789400) scale(-1, 1) translate(-20.036594, -22.789400) "></path>
                        <circle id="Oval" stroke="none" fill="#FFFFFF" cx="13.9102041" cy="13.9102041" r="9.60452119"></circle>
                        <polyline id="Path" stroke="#368154" stroke-width="2" fill="none" stroke-linecap="round" stroke-linejoin="round" points="13.5319054 10.3118875 13.5319054 15 17.9197025 15"></polyline>
                        <path d="M1.03094688,7.5 C1.01052167,7.33620288 1,7.16933017 1,7 C1,4.790861 2.790861,3 5,3 C7.209139,3 9,4.790861 9,7 C9,7.16933017 8.98947833,7.33620288 8.96905312,7.5 L1.03094688,7.5 Z" id="Combined-Shape" stroke="none" fill="#FFFFFF" transform="translate(5.000000, 5.250000) rotate(-45.000000) translate(-5.000000, -5.250000) "></path>
                        <path d="M19.0309469,7.5 C19.0105217,7.33620288 19,7.16933017 19,7 C19,4.790861 20.790861,3 23,3 C25.209139,3 27,4.790861 27,7 C27,7.16933017 26.9894783,7.33620288 26.9690531,7.5 L19.0309469,7.5 Z" id="Combined-Shape-Copy" stroke="none" fill="#FFFFFF" transform="translate(23.000000, 5.250000) scale(-1, 1) rotate(-45.000000) translate(-23.000000, -5.250000) "></path>
                    </g>
                </g>
                <g id="Group-2" mask="url(#mask-3)" fill-rule="nonzero">
                    <g transform="translate(23.000000, 7.000000)">
                        <g id="Oval" stroke="none">
                            <use fill="black" fill-opacity="1" filter="url(#filter-6)" xlink:href="#path-5"></use>
                            <use fill="url(#linearGradient-4)" xlink:href="#path-5"></use>
                        </g>
                        <path d="M5.17836138,7.5 L9.82163862,7.5" id="Path-4" stroke="#FFFFFF" stroke-width="2" stroke-linecap="round" stroke-linejoin="round"></path>
                    </g>
                </g>
            </g>
        </g>
    </g>
</svg>