<?xml version="1.0" encoding="UTF-8"?>
<svg width="44px" height="44px" viewBox="0 0 44 44" version="1.1" xmlns="http://www.w3.org/2000/svg" xmlns:xlink="http://www.w3.org/1999/xlink">
    <!-- Generator: Sketch 52.2 (67145) - http://www.bohemiancoding.com/sketch -->
    <title>Rectangle 13</title>
    <desc>Created with Sketch.</desc>
    <g id="Page-1" stroke="none" stroke-width="1" fill="none" fill-rule="evenodd">
        <g id="Top-Screen-toast" transform="translate(-512.000000, -45.000000)">
            <g id="Toast" transform="translate(494.000000, 25.000000)">
                <g id="Group-6" transform="translate(18.000000, 20.000000)">
                    <path d="M22,0 L22,0 C34.1502645,-2.23196738e-15 44,9.8497355 44,22 L44,22 C44,34.1502645 34.1502645,44 22,44 L22,44 C9.8497355,44 1.48797825e-15,34.1502645 0,22 L0,22 C-1.48797825e-15,9.8497355 9.8497355,2.23196738e-15 22,0 Z" id="Rectangle-13" fill="#009ECE"></path>
                    <g id="info" transform="translate(19.000000, 15.000000)" fill="#FFFFFF">
                        <path d="M5.82047771,12.4891443 L5.63091435,13.2887231 C5.0616157,13.5203782 4.60687662,13.6968251 4.26821847,13.8180637 C3.92940818,13.9393023 3.53537198,14 3.08671839,14 C2.39738323,14 1.86125057,13.8260626 1.47923323,13.4805404 C1.09706375,13.1331362 0.90567473,12.6931953 0.90567473,12.1602474 C0.90567473,11.9530595 0.919367108,11.7411665 0.948425377,11.5242544 C0.977635783,11.3079698 1.02388559,11.0634537 1.08702267,10.7908629 L1.79826563,8.19497659 C1.86185912,7.94685308 1.91541153,7.71096323 1.95877073,7.48856176 C2.00212993,7.26678766 2.02358132,7.06352087 2.02358132,6.88032982 C2.02358132,6.54876655 1.95694508,6.3166409 1.82443329,6.18614864 C1.6919215,6.05628375 1.43876464,5.99072394 1.06313708,5.99072394 C0.879507074,5.99072394 0.690552259,6.02068069 0.497946143,6.07949631 C0.304275065,6.13831194 0.139053705,6.19524546 0,6.24857162 L0.190171915,5.44789496 C0.656017039,5.25247026 1.10178001,5.08512021 1.52791724,4.9461585 C1.95405447,4.80641258 2.3563061,4.73661805 2.73725848,4.73661805 C3.42187738,4.73661805 3.94964248,4.90741861 4.32040164,5.24807869 C4.69131295,5.58936614 4.8767686,6.03228698 4.8767686,6.57699805 C4.8767686,6.69039457 4.86490187,6.88879927 4.83873422,7.17315319 C4.81317511,7.45735027 4.76555606,7.71833479 4.69602921,7.95547938 L3.98767686,10.5408573 C3.92940818,10.7486724 3.87768142,10.9862876 3.83204016,11.2533889 C3.78502967,11.518765 3.76296972,11.7215612 3.76296972,11.857543 C3.76296972,12.2005557 3.83736498,12.4353476 3.98585121,12.5597231 C4.13570668,12.6839417 4.39418835,12.7465215 4.7608398,12.7465215 C4.93321162,12.7465215 5.1293169,12.7146826 5.34687357,12.6527302 C5.56366956,12.5909346 5.722349,12.536981 5.82047771,12.4891443 Z M6,1.63523112 C6,2.08552352 5.83523505,2.4702561 5.50433592,2.78644888 C5.17450175,3.10373955 4.77681424,3.26246331 4.31157767,3.26246331 C3.84451544,3.26246331 3.44621938,3.10373955 3.1122775,2.78644888 C2.77894417,2.46962873 2.61189716,2.08552352 2.61189716,1.63523112 C2.61189716,1.18556609 2.77894417,0.800206135 3.1122775,0.479778629 C3.44515442,0.15997849 3.84497185,-1.42108547e-14 4.31157767,-1.42108547e-14 C4.77681424,-1.42108547e-14 5.17450175,0.160605857 5.50433592,0.479778629 C5.8358436,0.800206135 6,1.18556609 6,1.63523112 Z" id="Fill-1"></path>
                    </g>
                </g>
            </g>
        </g>
    </g>
</svg>