<?xml version="1.0" encoding="UTF-8"?>
<svg width="17px" height="10px" viewBox="0 0 17 10" version="1.1" xmlns="http://www.w3.org/2000/svg" xmlns:xlink="http://www.w3.org/1999/xlink">
    <!-- Generator: Sketch 52.1 (67048) - http://www.bohemiancoding.com/sketch -->
    <title>view</title>
    <desc>Created with Sketch.</desc>
    <g id="4.2:-Företag---Frånvaro" stroke="none" stroke-width="1" fill="none" fill-rule="evenodd">
        <g id="4.2.1:-Företag---Frånvaro" transform="translate(-1214.000000, -875.000000)" fill="#009ECE">
            <g id="Group-16" transform="translate(1209.000000, 875.000000)">
                <g id="view" transform="translate(5.000000, 0.000000)">
                    <path d="M14.6628266,2.62939836 C11.2488134,-0.876466122 5.69432949,-0.876466122 2.28031621,2.62939836 L0,4.97076972 L2.3368862,7.37052791 C4.04374926,9.12331272 6.28587355,10 8.528285,10 C10.7706964,10 13.0125336,9.1236076 14.7196838,7.37052791 L17,5.02886168 L14.6628266,2.62939836 Z M14.3133562,6.95356329 C11.1233256,10.2291241 5.93295721,10.2291241 2.74292664,6.95356329 L0.812080877,4.97076972 L2.68635665,3.0460681 C5.87638722,-0.229492727 11.0667556,-0.229492727 14.2567862,3.0460681 L16.187632,5.02886168 L14.3133562,6.95356329 Z" id="Shape" fill-rule="nonzero"></path>
                    <path d="M7.75,3 C6.785,3 6,3.785 6,4.75 C6,4.888 6.112,5 6.25,5 C6.388,5 6.5,4.888 6.5,4.75 C6.5,4.06075 7.06075,3.5 7.75,3.5 C7.888,3.5 8,3.388 8,3.25 C8,3.112 7.88825,3 7.75,3 Z" id="Path"></path>
                    <path d="M8.5,2 C6.57015385,2 5,3.57015385 5,5.5 C5,7.42984615 6.57015385,9 8.5,9 C10.4298462,9 12,7.42984615 12,5.5 C12,3.57015385 10.4301154,2 8.5,2 Z M8.5,8.46153846 C6.86711538,8.46153846 5.53846154,7.13288462 5.53846154,5.5 C5.53846154,3.86711538 6.86711538,2.53846154 8.5,2.53846154 C10.1328846,2.53846154 11.4615385,3.86711538 11.4615385,5.5 C11.4615385,7.13288462 10.1331538,8.46153846 8.5,8.46153846 Z" id="Shape" fill-rule="nonzero"></path>
                </g>
            </g>
        </g>
    </g>
</svg>