<?xml version="1.0" encoding="UTF-8"?>
<svg width="146px" height="146px" viewBox="0 0 146 146" version="1.1" xmlns="http://www.w3.org/2000/svg" xmlns:xlink="http://www.w3.org/1999/xlink">
    <!-- Generator: Sketch 52.4 (67378) - http://www.bohemiancoding.com/sketch -->
    <title>Group 29</title>
    <desc>Created with Sketch.</desc>
    <defs>
        <linearGradient x1="110.59563%" y1="-27.0786866%" x2="20.5985645%" y2="100%" id="linearGradient-1">
            <stop stop-color="#6CDFB7" offset="0%"></stop>
            <stop stop-color="#3D6DDF" offset="100%"></stop>
        </linearGradient>
        <ellipse id="path-2" cx="72.7020408" cy="73.1119094" rx="72.7020408" ry="72.2108108"></ellipse>
        <linearGradient x1="50%" y1="72.6643604%" x2="63.521543%" y2="0%" id="linearGradient-4">
            <stop stop-color="#1858F2" offset="0%"></stop>
            <stop stop-color="#92AEF4" offset="100%"></stop>
        </linearGradient>
        <linearGradient x1="100%" y1="93.1948093%" x2="100%" y2="24.8369013%" id="linearGradient-5">
            <stop stop-color="#1858F2" offset="0%"></stop>
            <stop stop-color="#92AEF4" offset="100%"></stop>
        </linearGradient>
        <linearGradient x1="-18.4363855%" y1="57.7700625%" x2="74.4045847%" y2="29.4470978%" id="linearGradient-6">
            <stop stop-color="#0F162D" offset="0%"></stop>
            <stop stop-color="#29335B" offset="100%"></stop>
        </linearGradient>
        <linearGradient x1="-18.4363855%" y1="57.7700625%" x2="77.7559385%" y2="28.4247014%" id="linearGradient-7">
            <stop stop-color="#242D4F" offset="0%"></stop>
            <stop stop-color="#48527B" offset="100%"></stop>
        </linearGradient>
        <linearGradient x1="179.170382%" y1="0%" x2="12.1965685%" y2="93.7973874%" id="linearGradient-8">
            <stop stop-color="#FFFFFF" offset="0%"></stop>
            <stop stop-color="#EFEFEF" offset="100%"></stop>
        </linearGradient>
        <linearGradient x1="140.847294%" y1="36.1011332%" x2="50%" y2="111.026403%" id="linearGradient-9">
            <stop stop-color="#FFEDDC" offset="0%"></stop>
            <stop stop-color="#FFB7B7" offset="100%"></stop>
        </linearGradient>
        <path d="M8.05249603,13.1904801 C6.05431355,13.7357925 5.05252323,13.3484337 3.11562524,11.7676041 C2.92751627,9.73405067 3.08291879,7.72939893 3.58183281,5.75364891 C2.12767298,7.03042274 -0.0259528655,5.08984697 0.223981816,2.79942412 C0.394549966,1.23632298 0.979579298,1.90248775 3.11562524,2.79942412 C4.30478745,3.74255552 10.5169522,4.47953501 14.2705127,0.0157696494 C14.5023059,4.53731084 14.3875867,10.9846061 11.9924615,10.9846061 C11.0464049,10.9846061 9.83443805,10.1685567 9.01824595,10.0391758 C9.26700928,11.2027784 10.0120215,12.6557174 8.05249603,13.1904801 Z" id="path-10"></path>
    </defs>
    <g id="6.1:-Landningssida---Hero-&amp;-login-" stroke="none" stroke-width="1" fill="none" fill-rule="evenodd">
        <g id="Landingpage-#2" transform="translate(-329.000000, -1257.000000)">
            <g id="Group-3" transform="translate(176.000000, 1000.000000)">
                <g id="Group-2" transform="translate(0.000000, 254.955092)">
                    <g id="Group-29" transform="translate(153.000000, 2.044908)">
                        <mask id="mask-3" fill="white">
                            <use xlink:href="#path-2"></use>
                        </mask>
                        <use id="Oval-14" fill="url(#linearGradient-1)" fill-rule="nonzero" opacity="0.5" xlink:href="#path-2"></use>
                        <path d="M-11.0387092,65.9858791 L-29.9094575,65.9858791 C-32.6335647,65.9858791 -34.8418899,63.7775539 -34.8418899,61.0534467 C-34.8418899,58.3293395 -32.6335647,56.1210143 -29.9094575,56.1210143 L17.421252,56.1210143 C20.1453592,56.1210143 22.3536845,58.3293395 22.3536845,61.0534467 C22.3536845,63.7775539 20.1453592,65.9858791 17.421252,65.9858791 L17.7640119,65.9858791 C15.0399047,65.9858791 12.8315795,68.1942044 12.8315795,70.9183116 C12.8315795,73.6424188 15.0399047,75.850744 17.7640119,75.850744 L42.4005798,75.850744 C45.124687,75.850744 47.3330122,78.0590692 47.3330122,80.7831764 C47.3330122,83.5072836 45.124687,85.7156089 42.4005798,85.7156089 L-11.0387092,85.7156089 C-13.7628164,85.7156089 -15.9711416,83.5072836 -15.9711416,80.7831764 C-15.9711416,78.0590692 -13.7628164,75.850744 -11.0387092,75.850744 C-13.7628164,75.850744 -15.9711416,73.6424188 -15.9711416,70.9183116 C-15.9711416,68.1942044 -13.7628164,65.9858791 -11.0387092,65.9858791 Z" id="Combined-Shape" fill="#FFFFFF" fill-rule="nonzero" opacity="0.5" mask="url(#mask-3)"></path>
                        <path d="M120.792394,37.3745836 L101.921646,37.3745836 C99.1975387,37.3745836 96.9892135,35.1662584 96.9892135,32.4421512 C96.9892135,29.718044 99.1975387,27.5097188 101.921646,27.5097188 L149.252355,27.5097188 C151.976463,27.5097188 154.184788,29.718044 154.184788,32.4421512 C154.184788,35.1662584 151.976463,37.3745836 149.252355,37.3745836 L149.595115,37.3745836 C146.871008,37.3745836 144.662683,39.5829088 144.662683,42.3070161 C144.662683,45.0311233 146.871008,47.2394485 149.595115,47.2394485 L174.231683,47.2394485 C176.95579,47.2394485 179.164116,49.4477737 179.164116,52.1718809 C179.164116,54.8959881 176.95579,57.1043134 174.231683,57.1043134 L120.792394,57.1043134 C118.068287,57.1043134 115.859962,54.8959881 115.859962,52.1718809 C115.859962,49.4477737 118.068287,47.2394485 120.792394,47.2394485 C118.068287,47.2394485 115.859962,45.0311233 115.859962,42.3070161 C115.859962,39.5829088 118.068287,37.3745836 120.792394,37.3745836 Z" id="Combined-Shape-Copy" fill="#FFFFFF" fill-rule="nonzero" opacity="0.5" mask="url(#mask-3)" transform="translate(138.076665, 42.307016) scale(-1, 1) translate(-138.076665, -42.307016) "></path>
                        <rect id="Rectangle-6" fill="#424C74" fill-rule="nonzero" mask="url(#mask-3)" x="55.6190476" y="43.4054054" width="28.8027211" height="39.4594595" rx="4"></rect>
                        <polygon id="Rectangle-5" fill="#FBFCFD" fill-rule="nonzero" opacity="0.300000012" mask="url(#mask-3)" points="-26.8163265 110.486486 181.755102 110.486486 181.755102 163.756757 -26.8163265 163.756757"></polygon>
                        <g id="Group-30" mask="url(#mask-3)">
                            <g transform="translate(24.225401, 19.966618)">
                                <path d="M34.6766869,115.363103 C30.9416965,116.282767 29.0742013,117.15749 29.0742013,117.987271 C29.0742013,119.231944 31.2078425,127.965672 33.4968359,127.965672 C35.0228315,127.965672 36.5135589,127.662877 37.9690181,127.057287 C36.9415947,123.242956 36.9415947,120.777704 37.9690181,119.661531 C38.9964415,118.545358 37.8989978,117.112549 34.6766869,115.363103 Z" id="Path-24" stroke="none" fill="#FCFDFD" fill-rule="nonzero"></path>
                                <path d="M49.5472463,63.25328 C50.4868002,72.6683792 54.8250517,80.9203451 62.5620009,88.0091778 C70.29895,95.0980104 74.644976,107.869 75.6000788,126.322146 L82.8696157,128.075641 C80.1679511,101.068934 76.1079325,82.4599401 70.6895599,72.2486578 C65.2711872,62.0373755 62.5620009,57.9669751 62.5620009,60.0374568 L49.5472463,63.25328 Z" id="Path-104" stroke="none" fill="url(#linearGradient-4)" fill-rule="evenodd"></path>
                                <path d="M41.7387941,64.6076701 C51.9268126,77.3038461 49.7137694,94.7072425 35.0996646,116.817859 C35.0996646,120.358642 36.2444301,121.676537 38.5339611,120.771543 C54.9198287,106.408976 61.9767279,87.4105496 59.7046588,63.7762631 C57.4325897,40.1419767 51.4439682,40.4191123 41.7387941,64.6076701 Z" id="Path-105" stroke="none" fill="url(#linearGradient-5)" fill-rule="evenodd"></path>
                                <path d="M41.1511375,55.8911878 L41.8840499,55.8911878 C43.5409042,55.8911878 44.8840499,57.2343335 44.8840499,58.8911878 C44.8840499,59.2549093 44.8179077,59.6155993 44.6888512,59.9556548 L33.4506606,89.5675547 L23.2901725,89.5675547 L34.2683093,60.6408794 C35.3533896,57.7817635 38.0930428,55.8911878 41.1511375,55.8911878 Z" id="Path-106-Copy-3" stroke="#222548" stroke-width="2" fill="none" fill-rule="nonzero"></path>
                                <path d="M17.3081515,78.4580943 L28.9322906,78.4580943 C31.1414296,78.4580943 32.9322906,80.2489553 32.9322906,82.4580943 C32.9322906,82.9430563 32.8441009,83.4239762 32.6720255,83.8773836 L23.9068539,106.97304 C22.7277128,110.08 19.7505713,112.134461 16.4273839,112.134461 L4.80324486,112.134461 C2.59410586,112.134461 0.80324486,110.3436 0.80324486,108.134461 C0.80324486,107.649499 0.891434505,107.168579 1.06350988,106.715172 L9.82868154,83.6195155 C11.0078227,80.5125555 13.9849642,78.4580943 17.3081515,78.4580943 Z" id="Path-106-Copy" stroke="none" fill="url(#linearGradient-6)" fill-rule="nonzero"></path>
                                <path d="M26.2546561,78.4580943 L37.8787952,78.4580943 C40.0879342,78.4580943 41.8787952,80.2489553 41.8787952,82.4580943 C41.8787952,82.9430563 41.7906056,83.4239762 41.6185302,83.8773836 L32.8533585,106.97304 C31.6742174,110.08 28.6970759,112.134461 25.3738886,112.134461 L13.7497495,112.134461 C11.5406105,112.134461 9.7497495,110.3436 9.7497495,108.134461 C9.7497495,107.649499 9.83793915,107.168579 10.0100145,106.715172 L18.7751862,83.6195155 C19.9543273,80.5125555 22.9314688,78.4580943 26.2546561,78.4580943 Z" id="Path-106" stroke="none" fill="url(#linearGradient-7)" fill-rule="nonzero"></path>
                                <path d="M47.0532428,6.00725406 C55.8221628,2.4187028 65.2784773,7.16742112 65.2784773,30.662156 C65.2784773,37.8463811 69.4794765,43.5545636 77.881475,47.7867035 C74.2446833,54.2984023 68.2272298,54.9904942 59.8291144,49.862979 C47.2319413,42.1717064 50.1739111,32.0395415 43.9628093,25.7460489 C37.7517075,19.4525564 38.2843228,9.59580532 47.0532428,6.00725406 Z" id="Path-73" stroke="none" fill="#F2D267" fill-rule="nonzero"></path>
                                <path d="M53.4515478,24.5836352 C45.5779791,24.5836352 39.8742851,27.455406 39.8742851,33.7179521 C39.8742851,39.9804982 42.8003899,47.478741 43.3979105,53.414114 C43.7962576,57.3710293 43.0464917,60.4147738 41.1486129,62.5453476 C55.5232272,66.1475584 64.6533079,66.1475584 68.5388552,62.5453476 C65.795045,57.9165354 64.3176801,53.8871864 64.1067604,50.4573007 C63.9553413,47.994989 67.2905064,42.440303 65.9730478,37.8144969 C64.1067604,31.2616657 61.3813272,24.5836352 53.4515478,24.5836352 Z" id="Path-103" stroke="none" fill="url(#linearGradient-8)" fill-rule="nonzero"></path>
                                <path d="M42.733944,43.2649035 C41.5820531,41.2447078 43.7895923,39.564248 49.3565616,38.2235243 C56.8664775,53.3523126 62.7523631,61.2831934 67.0142184,62.0161665 C73.4070013,63.1156263 71.9204889,71.2984417 65.7795556,68.2454457 C59.6386223,65.1924497 48.8260384,53.9492683 42.733944,43.2649035 Z" id="Path-107" stroke="none" fill="url(#linearGradient-9)" fill-rule="evenodd"></path>
                                <g id="Group-10" stroke="none" stroke-width="1" fill="none" fill-rule="evenodd" transform="translate(44.305211, 13.826872)">
                                    <g id="Group-13" transform="translate(0.000000, 0.604397)">
                                        <mask id="mask-11" fill="white">
                                            <use xlink:href="#path-10"></use>
                                        </mask>
                                        <use id="Combined-Shape" fill="url(#linearGradient-9)" xlink:href="#path-10"></use>
                                        <path d="M8.96882344,6.17217302 C9.3205404,6.9305354 9.93849385,7.30971658 10.8226838,7.30971658" id="Path-22" stroke="#CC586A" stroke-linecap="round" stroke-linejoin="round" mask="url(#mask-11)"></path>
                                    </g>
                                </g>
                            </g>
                        </g>
                    </g>
                </g>
            </g>
        </g>
    </g>
</svg>