<?xml version="1.0" encoding="UTF-8"?>
<svg width="146px" height="146px" viewBox="0 0 146 146" version="1.1" xmlns="http://www.w3.org/2000/svg" xmlns:xlink="http://www.w3.org/1999/xlink">
    <!-- Generator: Sketch 52.3 (67297) - http://www.bohemiancoding.com/sketch -->
    <title>Group 28</title>
    <desc>Created with Sketch.</desc>
    <defs>
        <linearGradient x1="100%" y1="0%" x2="30.9298033%" y2="89.0784642%" id="linearGradient-1">
            <stop stop-color="#65E7B8" offset="0%"></stop>
            <stop stop-color="#6F7FE8" offset="100%"></stop>
        </linearGradient>
        <ellipse id="path-2" cx="72.7020408" cy="73.3229383" rx="72.7020408" ry="72.4192388"></ellipse>
        <linearGradient x1="-10.2713146%" y1="7.20212045%" x2="85.0429017%" y2="55.1973998%" id="linearGradient-4">
            <stop stop-color="#AA8B6E" offset="0%"></stop>
            <stop stop-color="#A15858" offset="100%"></stop>
        </linearGradient>
        <linearGradient x1="179.170382%" y1="0%" x2="12.1965685%" y2="93.7973874%" id="linearGradient-5">
            <stop stop-color="#FFA6E9" offset="0%"></stop>
            <stop stop-color="#6D9DFF" offset="100%"></stop>
        </linearGradient>
        <linearGradient x1="97.0272401%" y1="33.9042069%" x2="-2.35963913%" y2="89.0989198%" id="linearGradient-6">
            <stop stop-color="#363855" stop-opacity="0.254783741" offset="0%"></stop>
            <stop stop-color="#31334F" offset="100%"></stop>
        </linearGradient>
        <linearGradient x1="-18.4363855%" y1="57.7700625%" x2="77.7559385%" y2="28.4247014%" id="linearGradient-7">
            <stop stop-color="#242D4F" offset="0%"></stop>
            <stop stop-color="#48527B" offset="100%"></stop>
        </linearGradient>
        <linearGradient x1="140.847294%" y1="36.1011332%" x2="50%" y2="111.026403%" id="linearGradient-8">
            <stop stop-color="#FFEDDC" offset="0%"></stop>
            <stop stop-color="#FFB7B7" offset="100%"></stop>
        </linearGradient>
        <path d="M4.62524753,5.99797857 C1.94337959,4.86768107 0.495368981,5.28742343 0.281215698,7.25720564 C-0.0400142271,10.211879 2.801086,12.70456 4.62524753,10.8588989 C6.3609923,15.3729084 10.3538256,17.6299131 16.6037474,17.6299131 C19.6108969,17.6299131 20.7209569,11.9693858 19.9339275,0.648331151 C15.663338,2.52656119 11.6979009,2.35262488 8.03761611,0.126522226 C7.25573154,5.2293378 6.11827534,7.18648992 4.62524753,5.99797857 Z" id="path-9"></path>
    </defs>
    <g id="Klickbar-Prototyp" stroke="none" stroke-width="1" fill="none" fill-rule="evenodd">
        <g id="Landingpage-#2" transform="translate(-176.000000, -2107.000000)">
            <g id="Group-3" transform="translate(176.000000, 1000.000000)">
                <g id="Group-2-Copy-6" transform="translate(0.000000, 1107.000000)">
                    <g id="Group-2-Copy-2">
                        <g id="Group-28">
                            <mask id="mask-3" fill="white">
                                <use xlink:href="#path-2"></use>
                            </mask>
                            <use id="Oval-14" fill="url(#linearGradient-1)" fill-rule="nonzero" opacity="0.5" xlink:href="#path-2"></use>
                            <rect id="Rectangle-8-Copy" fill="#F9FAFC" opacity="0.5" mask="url(#mask-3)" x="83.4285714" y="-3.95733545" width="66.1118053" height="61.178267" rx="1.95999997"></rect>
                            <g id="Group-32" mask="url(#mask-3)">
                                <g transform="translate(116.204082, 116.579095) scale(-1, 1) translate(-116.204082, -116.579095) translate(88.394558, 60.349366)">
                                    <ellipse id="Oval-6" fill="url(#linearGradient-4)" fill-rule="evenodd" cx="40.0066834" cy="75.8375578" rx="3.90309106" ry="3.88910553"></ellipse>
                                    <path d="M10.2669542,72.2474231 C8.90379251,79.0268072 8.22221168,84.2972703 8.22221168,88.0588125 C8.22221168,91.8203546 8.90379251,98.1573261 10.2669542,107.069727 L20.7168219,108.40131 L22.9300534,97.6533487 L29.4883277,110.764956 C38.9962021,113.142423 44.2359195,112.354541 45.2074799,108.40131 C42.708938,96.5382653 39.7089356,85.5148823 36.2074728,75.3311613 L10.2669542,72.2474231 Z" id="Path-67" fill="#3F4160" fill-rule="evenodd"></path>
                                    <g id="Group-31" stroke-width="1" fill="none" fill-rule="evenodd" transform="translate(8.758676, 0.126327)">
                                        <ellipse id="Oval-16" fill="#46262D" fill-rule="nonzero" cx="13.1284662" cy="12.6850887" rx="12.6157687" ry="12.570564"></ellipse>
                                        <path d="M8.51814005,29.0748684 L10.7222871,24.5966465 C13.25211,25.1030132 14.9989771,24.5142457 15.9628886,22.8303439 C16.9268,21.1464421 16.9268,20.396874 15.9628886,20.5816395 C14.5050205,19.3158769 13.9956757,18.2939381 14.434854,17.5158231 C15.0936215,16.3486507 16.748524,15.2695975 18.0889869,17.5158231 C20.5018747,17.3395846 21.7083186,16.557798 21.7083186,15.1704634 C21.7083186,13.7831287 22.6135609,12.5540824 24.4240456,11.4833245 C26.1050448,20.778548 25.1998024,25.4261598 21.7083186,25.4261598 C18.2168347,25.4261598 16.6076693,25.6754231 16.8808223,26.1739498 L18.0889869,29.0748684 L8.51814005,29.0748684 Z" id="Path-59" fill="url(#linearGradient-4)"></path>
                                    </g>
                                    <path d="M21.0343672,26.9569255 C36.9988778,26.9569255 55.3849261,46.3268754 55.3849261,59.5191615 C55.3849261,68.314019 51.3658421,74.3757833 43.327674,77.7044544 L40.7539899,72.79868 C43.7684708,66.0712699 45.2757112,61.6447637 45.2757112,59.5191615 C45.2757112,57.3935593 42.8895119,54.3839627 38.1171131,50.4903716 L38.1171131,75.0571518 C38.1171131,76.8220202 37.3871303,77.7044544 35.9271648,77.7044544 C34.5299768,77.7044544 26.0131637,77.7044544 10.3767257,77.7044544 C8.69517476,77.7044544 7.48378793,76.2028163 7.13250567,75.4693897 C2.45270672,65.6986462 0.112807247,57.9857462 0.112807247,52.33069 C0.112807247,43.2113728 5.06985667,26.9569255 21.0343672,26.9569255 Z" id="Path-66" fill="url(#linearGradient-5)" fill-rule="nonzero"></path>
                                    <path d="M7.7283439,76.7124156 L7.54710994,76.0839781 C7.18808459,72.4830383 7.24849591,69.4321598 7.7283439,66.9313427 C8.51406215,62.8364258 8.07475116,54.6642847 6.41041092,42.4149193 C3.47939663,47.9167235 2.69082468,52.326318 4.04469506,55.6437031 C6.07550063,60.6197807 3.18097572,65.4276194 4.04469506,66.9313427 C4.62050796,67.9338249 5.8483909,71.1941825 7.7283439,76.7124156 Z" id="Path-68" fill="url(#linearGradient-6)" fill-rule="evenodd" opacity="0.400000006"></path>
                                </g>
                            </g>
                            <ellipse id="Oval-10-Copy" stroke="#FCFCFD" stroke-width="10.2899998" opacity="0.5" mask="url(#mask-3)" cx="3.47619048" cy="77.6627082" rx="37.244898" ry="37.1000199"></ellipse>
                            <g id="Group" mask="url(#mask-3)">
                                <g transform="translate(9.931973, 31.658684)">
                                    <polygon id="Path-75" fill="#A6617A" fill-rule="nonzero" transform="translate(42.347366, 88.742762) rotate(-4.000000) translate(-42.347366, -88.742762) " points="26.9719401 60.2797903 16.143662 107.361682 34.1661553 113.47326 42.9071305 86.8823263 49.5767244 118.872922 68.5510709 117.584995 61.6564035 58.6126025"></polygon>
                                    <path d="M41.3367086,19.5453096 C52.6795849,19.5453096 79.6624793,24.4738481 79.6624793,59.1151142 C79.6624793,65.5665035 74.8581116,67.3921367 65.2493762,64.5920139 L65.2493762,57.0556258 C68.2834864,56.6906031 68.9442482,54.3721399 67.2316617,50.1002363 C65.5190753,45.8283328 63.2179478,43.3849236 60.3282793,42.7700087 L63.7790068,74.9644787 C55.9608893,75.7913841 50.7892949,76.3115978 48.2642237,76.5251198 C47.2176708,76.6136171 45.1146596,68.0173936 45.1146596,68.0173936 C45.1146596,68.0173936 43.2701577,76.866225 42.4120754,76.8909067 C34.1559144,77.1283854 27.3334599,76.4862427 21.9447119,74.9644787 L25.3985693,59.1151142 L16.0787174,35.3506273 C25.3554607,24.8137488 33.7747912,19.5453096 41.3367086,19.5453096 Z" id="Path-108" fill="url(#linearGradient-7)" fill-rule="nonzero"></path>
                                    <path d="M40.8104116,21.1192866 C46.4494896,39.6529036 49.0365464,51.0939261 48.5715818,55.442354 C52.0255554,39.3829999 52.6516369,28.1719867 50.4498261,21.8093145 C48.2480154,15.4466422 45.0348772,15.2166329 40.8104116,21.1192866 Z" id="Path-19" fill="#FAFBFC" fill-rule="nonzero"></path>
                                    <g id="Group-9" stroke-width="1" fill="none" fill-rule="evenodd" transform="translate(42.707483, 23.744013)" opacity="0.200000003" stroke-linecap="round" stroke-linejoin="round">
                                        <polyline id="Path-21" stroke="#3F4971" stroke-width="0.5" fill-rule="nonzero" points="0.811187739 0.807598478 3.34525717 4.92440618 4.88862932 3.11163157 6.61374087 5.21007129 7.63114424 1.4036619"></polyline>
                                        <path d="M4.85360849,3.48275989 C5.9895631,13.8842591 6.32064327,21.7900077 5.84684901,27.2000057" id="Path-23" stroke="#3F4971" stroke-width="0.5" fill-rule="nonzero"></path>
                                    </g>
                                    <g id="Group-10" stroke-width="1" fill="none" fill-rule="evenodd" transform="translate(33.454031, 0.468178)">
                                        <path d="M6.49147534,3.97572162 C10.7172585,2.62270565 14.1225819,1.48286016 16.7074456,0.556185155 C20.5847411,-0.833827356 29.360138,9.19819558 20.5847411,10.4759594 C14.7344765,11.327802 8.93550103,12.6928077 3.18781471,14.5709766 C1.77781413,7.88751716 2.01104041,4.35576551 3.88749356,3.97572162 C4.85448539,3.77987375 5.72247932,3.77987375 6.49147534,3.97572162 Z" id="Path-11" fill="#F2C67D"></path>
                                        <g id="Group-13" transform="translate(0.000000, 6.632384)">
                                            <mask id="mask-10" fill="white">
                                                <use xlink:href="#path-9"></use>
                                            </mask>
                                            <use id="Combined-Shape" fill="url(#linearGradient-8)" xlink:href="#path-9"></use>
                                            <path d="M8.41353803,4.12552434 C9.48054581,3.44988939 10.4968641,3.28098065 11.4624928,3.61879813" id="Path-20" stroke="#68354F" stroke-width="0.559999957" stroke-linecap="round" stroke-linejoin="round" mask="url(#mask-10)"></path>
                                            <path d="M15.3214409,3.67149221 C16.3891147,2.99374699 17.4052603,2.82304453 18.3698774,3.15938482" id="Path-20-Copy" stroke="#68354F" stroke-width="0.559999957" stroke-linecap="round" stroke-linejoin="round" mask="url(#mask-10)" transform="translate(16.845659, 3.331773) rotate(15.000000) translate(-16.845659, -3.331773) "></path>
                                        </g>
                                        <path d="M6.416718,11.454231 C5.61713035,14.9452908 7.39572192,16.5046406 11.7524927,16.1322801 C18.2876489,15.5737394 23.1190943,17.2395615 20.7361009,22.0531558 C18.3531076,26.8667501 7.98623853,24.8025523 6.416718,22.0531558 C4.84719747,19.3037593 4.54400478,12.5686427 5.10337892,11.454231 C5.47629502,10.7112898 5.91407471,10.7112898 6.416718,11.454231 Z" id="Path-25" fill="#68354F"></path>
                                        <path d="M12.0571438,18.9339165 C12.4987347,19.4632969 13.2745932,19.7279871 14.3847195,19.7279871" id="Path-22" stroke="#CC586A" stroke-width="0.559999957" stroke-linecap="round" stroke-linejoin="round"></path>
                                    </g>
                                    <path d="M6.49242701,32.3816584 L60.835681,32.3816584 C62.0727988,32.3816584 63.0756808,33.3845404 63.0756808,34.6216582 L63.0756808,66.8372841 C63.0756808,68.0744019 62.0727988,69.0772839 60.835681,69.0772839 L6.49242701,69.0772839 C5.25530927,69.0772839 4.25242718,68.0744019 4.25242718,66.8372841 L4.25242718,34.6216582 C4.25242718,33.3845404 5.25530927,32.3816584 6.49242701,32.3816584 Z" id="Rectangle-17" fill="#FCFDFD" fill-rule="nonzero"></path>
                                    <g id="Group-45" stroke-width="1" fill="none" fill-rule="evenodd" transform="translate(36.430090, 43.644844)" stroke-linecap="round" stroke-linejoin="round">
                                        <path d="M0.414635757,1.71230861 L9.52267681,1.71230861" id="Path-69" stroke="#565683" stroke-width="2.1"></path>
                                        <path d="M0.414635757,7.34390137 L16.6100554,7.34390137" id="Path-69-Copy-2" stroke="#DCDEEA" stroke-width="2.1"></path>
                                    </g>
                                    <g id="Group-23" stroke-width="1" fill="none" fill-rule="evenodd" transform="translate(11.339806, 42.236946)">
                                        <ellipse id="Oval-7" stroke="#DCDEEA" stroke-width="2.1" cx="9.85000991" cy="9.13231258" rx="8.44217687" ry="8.40933783"></ellipse>
                                        <path d="M1.40783304,9.13231258 C1.40783304,13.7766616 5.18752437,17.5416504 9.85000991,17.5416504 C14.5124954,17.5416504 18.2921868,13.7766616 18.2921868,9.13231258 C18.2921868,4.48796354 14.5124954,0.722974746 9.85000991,0.722974746" id="Oval-7-Copy" stroke="#F87D91" stroke-width="2.1" stroke-linecap="round" stroke-linejoin="round"></path>
                                    </g>
                                    <path d="M3.79228853,56.3310235 L6.06878666,56.3310235 C7.92446328,56.3310235 9.42878641,57.8353467 9.42878641,59.6910233 L9.42878641,63.3196173 C9.42878641,65.1752939 7.92446328,66.679617 6.06878666,66.679617 L3.79228853,66.679617 C1.93661191,66.679617 0.432288788,65.1752939 0.432288788,63.3196173 L0.432288788,59.6910233 C0.432288788,57.8353467 1.93661191,56.3310235 3.79228853,56.3310235 Z" id="Rectangle-18" fill="url(#linearGradient-8)" fill-rule="evenodd"></path>
                                    <path d="M62.2695231,56.3310235 L64.5460212,56.3310235 C66.4016978,56.3310235 67.9060209,57.8353467 67.9060209,59.6910233 L67.9060209,63.3196173 C67.9060209,65.1752939 66.4016978,66.679617 64.5460212,66.679617 L62.2695231,66.679617 C60.4138464,66.679617 58.9095233,65.1752939 58.9095233,63.3196173 L58.9095233,59.6910233 C58.9095233,57.8353467 60.4138464,56.3310235 62.2695231,56.3310235 Z" id="Rectangle-18-Copy" fill="url(#linearGradient-8)" fill-rule="evenodd"></path>
                                </g>
                            </g>
                        </g>
                    </g>
                </g>
            </g>
        </g>
    </g>
</svg>