<?xml version="1.0" encoding="UTF-8"?>
<svg width="560px" height="701px" viewBox="0 0 560 701" version="1.1" xmlns="http://www.w3.org/2000/svg" xmlns:xlink="http://www.w3.org/1999/xlink">
    <!-- Generator: Sketch 52.6 (67491) - http://www.bohemiancoding.com/sketch -->
    <title>Group 2</title>
    <desc>Created with Sketch.</desc>
    <defs>
        <linearGradient x1="100%" y1="50%" x2="0%" y2="50%" id="linearGradient-1">
            <stop stop-color="#8182F1" offset="0%"></stop>
            <stop stop-color="#75BAE1" offset="100%"></stop>
        </linearGradient>
        <linearGradient x1="96.4935343%" y1="111.849945%" x2="3.25913877%" y2="0%" id="linearGradient-2">
            <stop stop-color="#D7EBEE" stop-opacity="0.533656024" offset="0%"></stop>
            <stop stop-color="#FFFFFF" offset="100%"></stop>
        </linearGradient>
        <linearGradient x1="100%" y1="50%" x2="0%" y2="50%" id="linearGradient-3">
            <stop stop-color="#FF998E" offset="0%"></stop>
            <stop stop-color="#FCB692" offset="100%"></stop>
        </linearGradient>
        <filter x="-84.7%" y="-226.8%" width="269.3%" height="553.6%" filterUnits="objectBoundingBox" id="filter-4">
            <feOffset dx="0" dy="22" in="SourceAlpha" result="shadowOffsetOuter1"></feOffset>
            <feGaussianBlur stdDeviation="22" in="shadowOffsetOuter1" result="shadowBlurOuter1"></feGaussianBlur>
            <feColorMatrix values="0 0 0 0 0.8   0 0 0 0 0.501960784   0 0 0 0 0.901960784  0 0 0 0.25 0" type="matrix" in="shadowBlurOuter1" result="shadowMatrixOuter1"></feColorMatrix>
            <feMerge>
                <feMergeNode in="shadowMatrixOuter1"></feMergeNode>
                <feMergeNode in="SourceGraphic"></feMergeNode>
            </feMerge>
        </filter>
        <linearGradient x1="100%" y1="-2.47640013%" x2="16.7475673%" y2="153.873348%" id="linearGradient-5">
            <stop stop-color="#FF90D7" offset="0%"></stop>
            <stop stop-color="#906EFA" offset="100%"></stop>
        </linearGradient>
        <path d="M228,223 L337.025188,223 L337.025188,547 L228,547 C224.686292,547 222,544.313708 222,541 L222,229 C222,225.686292 224.686292,223 228,223 Z" id="path-6"></path>
        <filter x="-27.0%" y="-4.6%" width="146.9%" height="116.7%" filterUnits="objectBoundingBox" id="filter-7">
            <feOffset dx="-4" dy="12" in="SourceAlpha" result="shadowOffsetOuter1"></feOffset>
            <feGaussianBlur stdDeviation="7" in="shadowOffsetOuter1" result="shadowBlurOuter1"></feGaussianBlur>
            <feColorMatrix values="0 0 0 0 0.217834261   0 0 0 0 0.26011567   0 0 0 0 0.333572491  0 0 0 0.184188179 0" type="matrix" in="shadowBlurOuter1"></feColorMatrix>
        </filter>
        <linearGradient x1="115.870099%" y1="-36.4536003%" x2="0%" y2="187.118299%" id="linearGradient-8">
            <stop stop-color="#5CDC83" offset="0%"></stop>
            <stop stop-color="#5CD2DC" offset="100%"></stop>
        </linearGradient>
        <filter x="-84.7%" y="-226.8%" width="269.3%" height="553.6%" filterUnits="objectBoundingBox" id="filter-9">
            <feOffset dx="0" dy="22" in="SourceAlpha" result="shadowOffsetOuter1"></feOffset>
            <feGaussianBlur stdDeviation="22" in="shadowOffsetOuter1" result="shadowBlurOuter1"></feGaussianBlur>
            <feColorMatrix values="0 0 0 0 0.443137255   0 0 0 0 0.650980392   0 0 0 0 0.97254902  0 0 0 0.252887228 0" type="matrix" in="shadowBlurOuter1" result="shadowMatrixOuter1"></feColorMatrix>
            <feMerge>
                <feMergeNode in="shadowMatrixOuter1"></feMergeNode>
                <feMergeNode in="SourceGraphic"></feMergeNode>
            </feMerge>
        </filter>
        <filter x="-81.3%" y="-51.4%" width="262.6%" height="202.8%" filterUnits="objectBoundingBox" id="filter-10">
            <feMorphology radius="0.5" operator="dilate" in="SourceAlpha" result="shadowSpreadOuter1"></feMorphology>
            <feOffset dx="0" dy="42" in="shadowSpreadOuter1" result="shadowOffsetOuter1"></feOffset>
            <feGaussianBlur stdDeviation="27" in="shadowOffsetOuter1" result="shadowBlurOuter1"></feGaussianBlur>
            <feComposite in="shadowBlurOuter1" in2="SourceAlpha" operator="out" result="shadowBlurOuter1"></feComposite>
            <feColorMatrix values="0 0 0 0 0.160819804   0 0 0 0 0.141112657   0 0 0 0 0.318266369  0 0 0 0.205531024 0" type="matrix" in="shadowBlurOuter1" result="shadowMatrixOuter1"></feColorMatrix>
            <feMerge>
                <feMergeNode in="shadowMatrixOuter1"></feMergeNode>
                <feMergeNode in="SourceGraphic"></feMergeNode>
            </feMerge>
        </filter>
        <linearGradient x1="153.070997%" y1="50%" x2="37.1943774%" y2="70.6013644%" id="linearGradient-11">
            <stop stop-color="#7ED4BE" offset="0%"></stop>
            <stop stop-color="#55CEE5" offset="100%"></stop>
        </linearGradient>
        <linearGradient x1="57.158824%" y1="38.3704152%" x2="14.1886431%" y2="32.0302678%" id="linearGradient-12">
            <stop stop-color="#D7EBEE" offset="0%"></stop>
            <stop stop-color="#FFFFFF" offset="100%"></stop>
        </linearGradient>
        <path d="M136.626847,26.1061825 L129.01782,19.2849724 C113.519444,28.0908275 102.780599,30.3645642 96.8012853,26.1061825 C62.0093249,1.32784564 54.9391216,-0.918498315 43.2716009,1.32784564 C18.2342476,6.14827912 17.8566288,14.8389645 11.4166605,26.1061825 C4.97669225,37.3734004 -3.93074904,50.9008782 2.14386963,58.5146003 C6.19361541,63.5904149 13.0834544,72.2342956 22.8133867,84.4462422 C22.8297457,96.7527071 20.934381,105.306159 17.1272928,110.106598 C38.2594043,106.421293 53.0619704,107.113367 61.534991,112.18282 C70.0080117,117.252273 79.6061636,117.845739 90.3294469,113.963218 C81.9282239,113.628768 77.7276123,109.783964 77.7276123,102.428804 C77.7276123,91.396064 70.6496455,90.549489 74.1886289,82.4327296 C77.7276123,74.3159703 68.9360121,59.245591 74.1886289,54.1767554 C77.6903735,50.7975317 77.6903735,44.7750793 74.1886289,36.1093984 C81.3959702,44.4776311 90.1210695,48.6617474 100.363927,48.6617474 C110.606785,48.6617474 122.694424,41.1432258 136.626847,26.1061825 Z" id="path-13"></path>
        <linearGradient x1="11.6829029%" y1="78.0887279%" x2="86.9164973%" y2="14.5480451%" id="linearGradient-15">
            <stop stop-color="#75AEBB" stop-opacity="0" offset="0%"></stop>
            <stop stop-color="#407686" offset="100%"></stop>
        </linearGradient>
        <linearGradient x1="11.7130411%" y1="146.866098%" x2="74.6691844%" y2="-34.1371715%" id="linearGradient-16">
            <stop stop-color="#75AEBB" stop-opacity="0" offset="0%"></stop>
            <stop stop-color="#407686" offset="100%"></stop>
        </linearGradient>
        <linearGradient x1="86.0884679%" y1="50%" x2="178.852584%" y2="7.7533343%" id="linearGradient-17">
            <stop stop-color="#F8CD68" offset="0%"></stop>
            <stop stop-color="#F5819F" offset="100%"></stop>
        </linearGradient>
        <linearGradient x1="-8.21639051%" y1="126.905762%" x2="87.7818388%" y2="2.62763241%" id="linearGradient-18">
            <stop stop-color="#EFB990" offset="0%"></stop>
            <stop stop-color="#D566A1" offset="100%"></stop>
        </linearGradient>
        <linearGradient x1="14.1142965%" y1="94.7840394%" x2="57.8621322%" y2="13.0481714%" id="linearGradient-19">
            <stop stop-color="#D4C4FF" offset="0%"></stop>
            <stop stop-color="#E4F6FF" offset="100%"></stop>
        </linearGradient>
        <linearGradient x1="-8.21639051%" y1="126.905762%" x2="89.8115447%" y2="0%" id="linearGradient-20">
            <stop stop-color="#FFCFAA" offset="0%"></stop>
            <stop stop-color="#FA6EB9" stop-opacity="0.602383379" offset="100%"></stop>
        </linearGradient>
    </defs>
    <g id="Page-1" stroke="none" stroke-width="1" fill="none" fill-rule="evenodd">
        <g id="Login-illustration-color-1" transform="translate(-730.000000, -127.000000)">
            <g id="Illustration" transform="translate(150.000000, 127.500000)">
                <g id="Group-2" transform="translate(561.000000, -131.000000)">
                    <circle id="Oval" fill="url(#linearGradient-1)" fill-rule="nonzero" opacity="0.100000001" cx="162.829034" cy="906.329829" r="162.121209"></circle>
                    <ellipse id="Oval-Copy" fill="url(#linearGradient-1)" fill-rule="nonzero" opacity="0.200000003" cx="417.175152" cy="388.099981" rx="362.386146" ry="362.5"></ellipse>
                    <circle id="Oval" fill="url(#linearGradient-1)" fill-rule="nonzero" cx="435.175152" cy="343.099981" r="342.5"></circle>
                    <ellipse id="Oval" fill="#373A5B" fill-rule="nonzero" opacity="0.100000001" cx="441.197662" cy="631.824928" rx="41.4633552" ry="41.5"></ellipse>
                    <ellipse id="Oval-Copy-2" fill="#FFFFFF" fill-rule="nonzero" opacity="0.200000003" transform="translate(384.869062, 575.446545) scale(-1, -1) translate(-384.869062, -575.446545) " cx="384.869062" cy="575.446545" rx="14.8652448" ry="14.8783825"></ellipse>
                    <ellipse id="Oval-Copy-3" fill="#FFFFFF" fill-rule="nonzero" opacity="0.200000003" transform="translate(144.865245, 328.221598) scale(-1, -1) translate(-144.865245, -328.221598) " cx="144.865245" cy="328.221598" rx="14.8652448" ry="14.8783825"></ellipse>
                    <ellipse id="Oval-Copy-7" fill="#FFFFFF" fill-rule="nonzero" opacity="0.200000003" transform="translate(529.078692, 137.709671) scale(-1, -1) translate(-529.078692, -137.709671) " cx="529.078692" cy="137.709671" rx="14.8652448" ry="14.8783825"></ellipse>
                    <ellipse id="Oval-Copy-4" fill="#FFFFFF" fill-rule="nonzero" opacity="0.200000003" transform="translate(364.001909, 158.595266) scale(-1, -1) translate(-364.001909, -158.595266) " cx="364.001909" cy="158.595266" rx="6.00190877" ry="6.00721318"></ellipse>
                    <ellipse id="Oval-Copy-5" fill="#FFFFFF" fill-rule="nonzero" opacity="0.200000003" transform="translate(153.728581, 289.694171) scale(-1, -1) translate(-153.728581, -289.694171) " cx="153.728581" cy="289.694171" rx="6.00190877" ry="6.00721318"></ellipse>
                    <ellipse id="Oval-Copy-6" fill="#FFFFFF" fill-rule="nonzero" opacity="0.200000003" transform="translate(178.068176, 170.609693) scale(-1, -1) translate(-178.068176, -170.609693) " cx="178.068176" cy="170.609693" rx="6.00190877" ry="6.00721318"></ellipse>
                    <rect id="Rectangle" fill="url(#linearGradient-2)" x="222" y="223" width="369" height="324" rx="6"></rect>
                    <g id="UI-13" transform="translate(351.751780, 255.686957)" fill-rule="nonzero">
                        <path d="M8,0 L142,0 C146.418278,-8.11624501e-16 150,3.581722 150,8 L150,48 C150,52.418278 146.418278,56 142,56 L8,56 C3.581722,56 5.41083001e-16,52.418278 0,48 L0,8 C-5.41083001e-16,3.581722 3.581722,8.11624501e-16 8,0 Z" id="Path" fill="url(#linearGradient-3)"></path>
                        <g id="Group-56" transform="translate(106.826864, 13.089393)" fill="#FFFFFF">
                            <path d="M15.0741842,29.8548753 C6.875813,29.8548753 0.225671189,23.2379564 0.225671189,15.070551 C0.225671189,6.90314562 6.875813,0.286226642 15.0741842,0.286226642 C23.2725555,0.286226642 29.9226973,6.90314562 29.9226973,15.070551 C29.9226973,23.2379564 23.2725555,29.8548753 15.0741842,29.8548753 Z M15.0741842,25.8548753 C21.0678886,25.8548753 25.9226973,21.0243204 25.9226973,15.070551 C25.9226973,9.11678161 21.0678886,4.28622664 15.0741842,4.28622664 C9.08047985,4.28622664 4.22567119,9.11678161 4.22567119,15.070551 C4.22567119,21.0243204 9.08047985,25.8548753 15.0741842,25.8548753 Z" id="Oval" opacity="0.300000012"></path>
                            <path d="M5.92522471,26.7157882 C5.05418825,26.0365466 4.89870785,24.7797978 5.57794953,23.9087613 C6.25719121,23.0377249 7.51393995,22.8822445 8.38497642,23.5614862 C10.2803536,25.0395175 12.6119352,25.8548753 15.0741842,25.8548753 C21.0678886,25.8548753 25.9226973,21.0243204 25.9226973,15.070551 C25.9226973,9.11678161 21.0678886,4.28622664 15.0741842,4.28622664 C13.9696147,4.28622664 13.0741842,3.39079614 13.0741842,2.28622664 C13.0741842,1.18165714 13.9696147,0.286226642 15.0741842,0.286226642 C23.2725555,0.286226642 29.9226973,6.90314562 29.9226973,15.070551 C29.9226973,23.2379564 23.2725555,29.8548753 15.0741842,29.8548753 C11.7131891,29.8548753 8.51766518,28.7373955 5.92522471,26.7157882 Z" id="Path"></path>
                        </g>
                        <path d="M19,24.5 C17.8954305,24.5 17,23.6045695 17,22.5 C17,21.3954305 17.8954305,20.5 19,20.5 L36.7374702,20.5 C37.8420397,20.5 38.7374702,21.3954305 38.7374702,22.5 C38.7374702,23.6045695 37.8420397,24.5 36.7374702,24.5 L19,24.5 Z" id="Path-162-Copy-2" fill="#FFFFFF"></path>
                        <path d="M19,34.5 C17.8954305,34.5 17,33.6045695 17,32.5 C17,31.3954305 17.8954305,30.5 19,30.5 L56.7374702,30.5 C57.8420397,30.5 58.7374702,31.3954305 58.7374702,32.5 C58.7374702,33.6045695 57.8420397,34.5 56.7374702,34.5 L19,34.5 Z" id="Path-162-Copy-3" fill="#FFFFFF" opacity="0.300000012"></path>
                    </g>
                    <g id="UI-light-12" filter="url(#filter-4)" opacity="0.5" transform="translate(370.003818, 399.500000)" fill-rule="nonzero">
                        <path d="M8,0 L142,0 C146.418278,-8.11624501e-16 150,3.581722 150,8 L150,48 C150,52.418278 146.418278,56 142,56 L8,56 C3.581722,56 5.41083001e-16,52.418278 0,48 L0,8 C-5.41083001e-16,3.581722 3.581722,8.11624501e-16 8,0 Z" id="Path" fill="#FFFFFF"></path>
                        <rect id="Rectangle" fill="#E689DE" opacity="0.100000001" x="125" y="10" width="15" height="35"></rect>
                        <path d="M84.5736958,37.6384099 C84.0214111,37.6384099 83.5736958,37.1906947 83.5736958,36.6384099 C83.5736958,36.0861252 84.0214111,35.6384099 84.5736958,35.6384099 C85.4270571,35.6384099 86.3689133,35.1680208 87.469726,34.1867162 C88.1835753,33.5503649 88.9434282,32.7216696 89.8683549,31.5937969 C90.2374554,31.1437088 90.6181121,30.6651794 91.135263,30.0046263 C91.288959,29.8083116 91.4589152,29.5906053 91.7868854,29.1703786 C92.0558321,28.8260102 92.2546512,28.572353 92.4520962,28.3221484 C96.8800479,22.7109968 99.8962989,20.244847 103.974925,20.244847 C107.775395,20.244847 110.017677,21.4466379 113.900771,24.7329368 C114.033878,24.845629 114.033878,24.845629 114.16658,24.9580046 C117.915309,28.1317349 119.917036,29.1975876 123.426877,29.1975876 C126.898862,29.1975876 128.991929,27.6468793 131.546479,24.0193678 C131.758714,23.7179906 132.719576,22.3171163 132.983416,21.9456713 C134.917887,19.222244 136.436401,17.9926945 138.703488,17.9926945 C139.255773,17.9926945 139.703488,18.4404098 139.703488,18.9926945 C139.703488,19.5449793 139.255773,19.9926945 138.703488,19.9926945 C137.282169,19.9926945 136.203349,20.8662216 134.613945,23.1038487 C134.362088,23.4584231 133.40432,24.8547866 133.181698,25.1709143 C130.290581,29.2763582 127.697403,31.1975876 123.426877,31.1975876 C119.318475,31.1975876 116.954655,29.9389327 112.874285,26.48443 C112.741246,26.3717686 112.741246,26.3717686 112.608748,26.2595922 C109.058213,23.2547408 107.173969,22.244847 103.974925,22.244847 C100.741158,22.244847 98.0761115,24.4238448 94.0221209,29.5611086 C93.8271496,29.8081785 93.6301914,30.0594615 93.3631364,30.4014077 C93.0357349,30.8209066 92.8647437,31.0399386 92.7100458,31.2375331 C92.1843874,31.9089527 91.7953786,32.3979818 91.4148427,32.8620143 C90.4296694,34.0633529 89.6059252,34.961728 88.800577,35.6796448 C87.3675847,36.9570664 86.0033361,37.6384099 84.5736958,37.6384099 Z" id="Path-166" fill="url(#linearGradient-5)"></path>
                        <path d="M17.783893,24.5 C16.6793235,24.5 15.783893,23.6045695 15.783893,22.5 C15.783893,21.3954305 16.6793235,20.5 17.783893,20.5 L35.5213632,20.5 C36.6259327,20.5 37.5213632,21.3954305 37.5213632,22.5 C37.5213632,23.6045695 36.6259327,24.5 35.5213632,24.5 L17.783893,24.5 Z" id="Path-162-Copy-2" fill="#FF958E"></path>
                        <path d="M17.783893,34.5 C16.6793235,34.5 15.783893,33.6045695 15.783893,32.5 C15.783893,31.3954305 16.6793235,30.5 17.783893,30.5 L55.5213632,30.5 C56.6259327,30.5 57.5213632,31.3954305 57.5213632,32.5 C57.5213632,33.6045695 56.6259327,34.5 55.5213632,34.5 L17.783893,34.5 Z" id="Path-162-Copy-3" fill="#FFEAE8"></path>
                    </g>
                    <g id="Rectangle-Copy" opacity="0.403125">
                        <use fill="black" fill-opacity="1" filter="url(#filter-7)" xlink:href="#path-6"></use>
                        <use fill="#FFFFFF" fill-rule="evenodd" xlink:href="#path-6"></use>
                    </g>
                    <g id="Group-55" transform="translate(434.000000, 470.000000)" fill-rule="nonzero">
                        <rect id="Rectangle-26" fill="url(#linearGradient-8)" x="0" y="0" width="59.5984875" height="21.657404" rx="10.828702"></rect>
                        <path d="M15.5492425,10.4050851 L44.0502228,10.4050851" id="Path-61" stroke="#FFFFFF" stroke-linecap="round" stroke-linejoin="round"></path>
                    </g>
                    <g id="Group-46" opacity="0.400000006" transform="translate(233.000000, 233.000000)" fill-rule="nonzero">
                        <circle id="Oval-11" fill="#EF604A" cx="4" cy="4" r="4"></circle>
                        <circle id="Oval-11-Copy-2" fill="#F9CE68" cx="17.5" cy="4" r="4"></circle>
                        <circle id="Oval-11-Copy" fill="#5CDC83" cx="31" cy="4" r="4"></circle>
                    </g>
                    <g id="UI-light-6" filter="url(#filter-9)" transform="translate(334.000000, 327.000000)" fill-rule="nonzero">
                        <path d="M8,0 L142,0 C146.418278,-8.11624501e-16 150,3.581722 150,8 L150,48 C150,52.418278 146.418278,56 142,56 L8,56 C3.581722,56 5.41083001e-16,52.418278 0,48 L0,8 C-5.41083001e-16,3.581722 3.581722,8.11624501e-16 8,0 Z" id="Path" fill="#FFFFFF"></path>
                        <path d="M60,24.5 C58.8954305,24.5 58,23.6045695 58,22.5 C58,21.3954305 58.8954305,20.5 60,20.5 L77.7374702,20.5 C78.8420397,20.5 79.7374702,21.3954305 79.7374702,22.5 C79.7374702,23.6045695 78.8420397,24.5 77.7374702,24.5 L60,24.5 Z" id="Path-162-Copy-2" fill="#9771FE"></path>
                        <path d="M60,34.5 C58.8954305,34.5 58,33.6045695 58,32.5 C58,31.3954305 58.8954305,30.5 60,30.5 L97.7374702,30.5 C98.8420397,30.5 99.7374702,31.3954305 99.7374702,32.5 C99.7374702,33.6045695 98.8420397,34.5 97.7374702,34.5 L60,34.5 Z" id="Path-162-Copy-3" fill="#EAE3FF"></path>
                        <circle id="Oval" fill="#FF769A" opacity="0.100000001" cx="31" cy="28" r="13"></circle>
                        <path d="M34.8494798,31.9710403 C34.8494798,32.523325 34.4017645,32.9710403 33.8494798,32.9710403 C33.297195,32.9710403 32.8494798,32.523325 32.8494798,31.9710403 C32.8494798,30.9986039 32.0275086,30.1989595 31,30.1989595 C29.9724914,30.1989595 29.1505202,30.9986039 29.1505202,31.9710403 C29.1505202,32.523325 28.702805,32.9710403 28.1505202,32.9710403 C27.5982355,32.9710403 27.1505202,32.523325 27.1505202,31.9710403 C27.1505202,29.8815208 28.8800601,28.1989595 31,28.1989595 C33.1199399,28.1989595 34.8494798,29.8815208 34.8494798,31.9710403 Z" id="Path" fill="#FFB3C6"></path>
                        <path d="M31,30.0441615 C28.8800601,30.0441615 27.1505202,28.3616003 27.1505202,26.2720808 C27.1505202,24.1825613 28.8800601,22.5 31,22.5 C33.1199399,22.5 34.8494798,24.1825613 34.8494798,26.2720808 C34.8494798,28.3616003 33.1199399,30.0441615 31,30.0441615 Z M31,28.0441615 C32.0275086,28.0441615 32.8494798,27.2445171 32.8494798,26.2720808 C32.8494798,25.2996444 32.0275086,24.5 31,24.5 C29.9724914,24.5 29.1505202,25.2996444 29.1505202,26.2720808 C29.1505202,27.2445171 29.9724914,28.0441615 31,28.0441615 Z" id="Oval" fill="#FF769A"></path>
                    </g>
                    <g id="Group-57-Copy-2" transform="translate(130.000000, 321.000000)"></g>
                    <g id="Group-43" filter="url(#filter-10)" transform="translate(130.500000, 321.000000)">
                        <path d="M193.381855,89.7451541 C192.649254,73.003843 194.201427,62.3941585 198.038374,57.9161006 C197.750517,57.318915 197.957546,55.6958586 198.659461,53.0469313 C199.712334,49.0735404 204.446765,49.918733 205.330494,49.1230198 C206.214223,48.3273066 206.111475,44.8139253 207.56375,42.0040934 C209.016025,39.1942614 212.987193,57.0003424 207.56375,60.2691655 C202.140308,63.5379887 205.881007,83.9288662 200.330008,90.8402027 C196.629343,95.4477603 194.313292,95.0827441 193.381855,89.7451541 Z" id="Path-44" fill="#FFCBCB" transform="translate(201.768063, 67.873425) scale(-1, 1) rotate(-48.000000) translate(-201.768063, -67.873425) "></path>
                        <path d="M33.9649106,306.133456 L42.7849841,293.804766 L57.110151,307.313013 C48.2005679,316.704471 40.8042738,321.868935 34.9212685,322.806405 C29.0382633,323.743876 28.7194773,318.186226 33.9649106,306.133456 Z" id="Path-52" fill="#E5AE7B"></path>
                        <path d="M88.4732014,156.098436 C83.5698875,226.639855 65.8975646,273.919748 35.4562328,297.938115 L54.7220875,314.06112 C104.548066,272.92626 128.567446,226.244168 126.780228,174.014842 L88.4732014,156.098436 Z" id="Path-49" fill="url(#linearGradient-11)" fill-rule="nonzero"></path>
                        <path d="M104.5,185.5 C112.563354,200.996747 114.927159,209.723795 111.591413,211.681145 C106.587794,214.617171 104.058786,217.195618 108.210103,225.965461 C110.977647,231.812024 110.977647,239.565896 108.210103,249.227078 C116.094305,235.008612 120.935877,223.471976 122.734819,214.617171 C124.084419,207.974135 123.037402,202.099138 121.081991,198.407252 C116.524432,189.802417 110.997102,185.5 104.5,185.5 Z" id="Path-25" fill="#29888E" fill-rule="nonzero" opacity="0.200000003"></path>
                        <path d="M94.9649106,274.133456 L107.481362,263.988111 L118.110151,275.313013 C109.200568,284.704471 101.804274,289.868935 95.9212685,290.806405 C90.0382633,291.743876 89.7194773,286.186226 94.9649106,274.133456 Z" id="Path-52-Copy" fill="#E5AE7B"></path>
                        <path d="M115.38069,301.593854 C109.312015,305.858774 104.531501,309.381934 101.039149,312.163336 L62.8331373,279.979016 C69.0851807,277.828636 76.1659471,278.65317 84.0754365,282.45262 C91.984926,286.252069 98.2423402,287.260507 102.847679,285.477934 L115.38069,301.593854 Z" id="Path-40-Copy" fill="#FEFEFE" fill-rule="nonzero" transform="translate(89.106914, 295.488285) scale(-1, 1) rotate(-122.000000) translate(-89.106914, -295.488285) "></path>
                        <path d="M106.112166,157.516914 C103.763522,174.623226 113.726327,198.339749 136.000582,228.666484 L85.8947937,258.469777 L94.308209,275.456321 C140.626208,265.502612 165.499652,256.31905 168.928543,247.905635 C174.07188,235.285512 164.711008,205.053523 142.743548,152.30861 C128.098575,117.145334 115.888114,118.881436 106.112166,157.516914 Z" id="Path-48" fill="url(#linearGradient-11)" fill-rule="nonzero" transform="translate(128.101006, 201.316644) rotate(-14.000000) translate(-128.101006, -201.316644) "></path>
                        <path d="M88.3615861,162.517095 C87.475545,174.361412 86.5895039,182.257692 85.7034627,186.205936 C85.7034627,186.205936 98.119308,174.222465 108.848315,179.032005 C116.000986,182.238365 128.38784,179.884467 146.008879,171.970309 L107.231882,145.692816 L88.3615861,162.517095 Z" id="Path-54" fill="#252740" opacity="0.326785714"></path>
                        <path d="M54.3806901,333.593854 C48.3120151,337.858774 43.5315014,341.381934 40.039149,344.163336 L1.83313728,311.979016 C8.08518065,309.828636 15.1659471,310.65317 23.0754365,314.45262 C30.984926,318.252069 37.2423402,319.260507 41.8476792,317.477934 L54.3806901,333.593854 Z" id="Path-40" fill="#FEFEFE" fill-rule="nonzero" transform="translate(28.106914, 327.488285) scale(-1, 1) rotate(-122.000000) translate(-28.106914, -327.488285) "></path>
                        <g id="Group-56" transform="translate(128.890256, 33.943024) rotate(31.000000) translate(-128.890256, -33.943024) translate(110.890256, 5.943024)">
                            <path d="M13.0060291,49.5169482 C10.4528674,50.4052622 8.47533142,50.4052622 7.07342122,49.5169482 C4.97055592,48.1844773 6.97815399,45.0171595 5.53707838,42.0225929 C4.09600276,39.0280263 -4.39865849,25.9040129 4.30368532,20.076834 C13.0060291,14.2496552 17.0936284,10.5475707 15.0498287,4.94014156 C13.0060291,-0.667287544 24.9563503,-0.679989841 26.9550568,4.94014156 C28.2875278,8.68689582 28.6423453,13.2336831 28.0195093,18.5805034 L26.9550568,38.5434337 L19.684897,50.5020114 L13.0060291,49.5169482 Z" id="Path-47" fill="#005070" fill-rule="nonzero"></path>
                            <path d="M8.05589382,54.6594408 L9.86566871,48.4639739 C18.2994988,46.6521728 22.5164139,44.3332415 22.5164139,41.5071799 C22.5164139,38.6811183 22.0068975,36.5341313 20.9878646,35.0662187 C18.2137372,34.8582012 16.8266735,33.9236667 16.8266735,32.2626151 C16.8266735,29.7710378 18.5885055,28.6138881 20.9878646,28.6138881 C23.3872237,28.6138881 19.4231018,24.5023854 20.2054832,21.7686824 C20.9878646,19.0349795 26.4628501,17.395263 27.4027184,14.3667985 L34.5502652,23.8770698 L33.1139342,26.4612865 C35.7482604,32.7405499 36.406842,36.5460621 35.0896789,37.8778229 C33.1139342,39.8754641 27.8953913,40.8330181 26.5622269,43.1380535 C25.6734506,44.6747438 25.6734506,48.7042747 26.5622269,55.2266463 L8.05589382,54.6594408 Z" id="Path-46" fill="#FFCBCB"></path>
                            <path d="M23.0932601,21.7756069 C24.4231534,20.9309091 25.6898684,20.7197346 26.8934052,21.1420835" id="Path-20" stroke="#3D476F" stroke-linecap="round" stroke-linejoin="round" transform="translate(24.993333, 21.430909) rotate(-33.000000) translate(-24.993333, -21.430909) "></path>
                            <circle id="Oval-2-Copy-2" fill="#3D476F" fill-rule="nonzero" cx="29.317103" cy="23.8850981" r="1"></circle>
                            <path d="M26.9102823,31.7397972 C28.2401755,30.8950994 29.5068905,30.683925 30.7104274,31.1062739" id="Path-20" stroke="#E37691" stroke-linecap="round" stroke-linejoin="round" transform="translate(28.810355, 31.395099) rotate(-172.000000) translate(-28.810355, -31.395099) "></path>
                        </g>
                        <path d="M99.8966037,58.9978133 C100.785282,53.8129621 102.075796,50.9195654 103.768145,50.3176232 C106.306669,49.4147098 122.236511,54.7454912 126.37545,56.5673157 C129.134743,57.7818654 129.134743,60.5341588 126.37545,64.8241961 L105.031244,65.8666099 L99.8966037,58.9978133 Z" id="Path-43" fill="url(#linearGradient-12)"></path>
                        <g id="Group-44" transform="translate(63.000000, 56.000000)">
                            <mask id="mask-14" fill="white">
                                <use xlink:href="#path-13"></use>
                            </mask>
                            <use id="Path-41" fill="#FFFFFF" xlink:href="#path-13"></use>
                            <path d="M74.5923742,37.0365335 C73.4793623,38.0129423 69.196196,47.2599269 61.7428751,64.7774872 C50.5628938,91.0538277 34.6416843,115.325611 81.5703898,110.223105 C111.077332,107.014848 81.430115,109.267695 78.5933046,49.5282395 C78.4654608,46.8360185 76.8711405,43.3364157 76.2953549,40.9723552 C76.1541373,40.3925438 75.586477,39.0806032 74.5923742,37.0365335 Z" id="Path-53" fill="url(#linearGradient-15)" opacity="0.400000006" mask="url(#mask-14)"></path>
                        </g>
                        <path d="M192.686835,70.225116 C194.318702,69.7838456 203.857343,74.4740489 203.596339,76.6291937 C203.335335,78.7843386 201.216912,84.1960156 199.909528,84.1960156 C198.602143,84.1960156 188.601595,78.1125002 188.601595,77.1960156 C188.601595,76.279531 191.054968,70.6663864 192.686835,70.225116 Z" id="Path-42" fill="url(#linearGradient-12)" transform="translate(196.101595, 77.196016) rotate(10.000000) translate(-196.101595, -77.196016) "></path>
                        <path d="M85.4058677,139.490416 C86.7496353,111.735344 86.7496353,92.5110238 85.4058677,81.8174545 C83.4447378,96.8981502 80.7358861,105.180891 77.2793126,106.665676 C73.8227391,108.150461 76.5315908,119.092041 85.4058677,139.490416 Z" id="Path-45" fill="url(#linearGradient-16)" opacity="0.400000006"></path>
                        <path d="M86.5153294,105.458729 L63.6282973,116.634015 C62.7569133,117.059494 61.733608,117.03754 60.8812745,116.575078 L56.1718089,114.019803 C55.3299199,113.563009 54.3205163,113.535681 53.4551446,113.946254 L43.7788839,118.537127 C42.325001,119.226917 41.6743165,120.940954 42.304187,122.421781 L58.3733654,160.200462 C59.021881,161.725124 60.7835893,162.435381 62.3082511,161.786865 C62.3718118,161.75983 62.4344198,161.730607 62.4959633,161.69925 L85.5373446,149.959275 L86.5153294,105.458729 Z" id="Path-50" fill="url(#linearGradient-17)" fill-rule="nonzero"></path>
                    </g>
                    <g id="Mail-2" transform="translate(527.000000, 269.099981)" fill-rule="nonzero">
                        <path d="M1.81477268,25.5001902 L27.5406818,4.23914203 C30.1288216,2.10018685 33.8711784,2.10018685 36.4593182,4.23914203 L62.1852273,25.5001902 C63.334557,26.450048 64,27.8632853 64,29.3543214 L64,68.0000001 C64,70.7614238 61.7614237,73.0000001 59,73.0000001 L4.99999998,73.0000001 C2.23857623,73.0000001 -2.18869897e-08,70.7614238 -2.188699e-08,68.0000001 L-1.12027099e-09,29.3543214 C-4.10833784e-10,27.8632853 0.665442957,26.450048 1.81477268,25.5001902 Z" id="Path" fill="url(#linearGradient-18)"></path>
                        <g id="Group-5-Copy" transform="translate(3.500000, 7.728557)">
                            <path d="M3.00504556,0.26794185 L53.9585367,0.26794185 C55.615391,0.26794185 56.9585367,1.6110876 56.9585367,3.26794185 L56.9585367,62.2679418 C56.9585367,63.9247961 55.615391,65.2679418 53.9585367,65.2679418 L3.91273787,65.2679418 C2.27387782,65.2679418 0.938303085,63.9527564 0.913092837,62.3140902 L0.00540052932,3.31409023 C-0.02008652,1.65743203 1.30223897,0.293783866 2.95889718,0.268296816 C2.97427884,0.268060175 2.98966209,0.26794185 3.00504556,0.26794185 Z" id="Path" fill="url(#linearGradient-19)"></path>
                            <path d="M8.65341646,10.8421463 C8.15636019,10.8421463 7.75341646,10.4392026 7.75341646,9.94214628 C7.75341646,9.44509 8.15636019,9.04214628 8.65341646,9.04214628 L32.2025568,9.04214628 C32.6996131,9.04214628 33.1025568,9.44509 33.1025568,9.94214628 C33.1025568,10.4392026 32.6996131,10.8421463 32.2025568,10.8421463 L8.65341646,10.8421463 Z" id="Path-133" fill="#35B0E2"></path>
                            <path d="M8.65341646,16.8421463 C8.15636019,16.8421463 7.75341646,16.4392026 7.75341646,15.9421463 C7.75341646,15.44509 8.15636019,15.0421463 8.65341646,15.0421463 L19.2025568,15.0421463 C19.6996131,15.0421463 20.1025568,15.44509 20.1025568,15.9421463 C20.1025568,16.4392026 19.6996131,16.8421463 19.2025568,16.8421463 L8.65341646,16.8421463 Z" id="Path-133-Copy" fill="#BEDEF9"></path>
                        </g>
                        <path d="M63.7643577,27.8373808 C63.9188766,28.3226018 64,28.8337194 64,29.3543214 L64,68.0000001 C64,70.7614238 61.7614237,73.0000001 59,73.0000001 L4.99999998,73.0000001 C2.23857623,73.0000001 -2.18870039e-08,70.7614238 -2.18870042e-08,68.0000001 L-1.1202852e-09,29.3543214 C-8.73344921e-10,28.8353229 0.0806244511,28.3257504 0.234216596,27.841865 L28.0841927,56.0471035 L28.0844705,56.0473848 C30.0248526,58.0121694 33.1906157,58.0319514 35.1554002,56.0915693 L63.7643577,27.8373808 Z" id="Path" fill="url(#linearGradient-20)"></path>
                    </g>
                    <g id="Checklist-2" transform="translate(514.213447, 506.533142)" fill-rule="nonzero">
                        <path d="M3.95853671,0.26794185 L49.9585367,0.26794185 C51.615391,0.26794185 52.9585367,1.6110876 52.9585367,3.26794185 L52.9585367,59.2679418 C52.9585367,60.9247961 51.615391,62.2679418 49.9585367,62.2679418 L3.95853671,62.2679418 C2.30168246,62.2679418 0.958536708,60.9247961 0.958536708,59.2679418 L0.958536708,3.26794185 C0.958536708,1.6110876 2.30168246,0.26794185 3.95853671,0.26794185 Z" id="Path" fill="url(#linearGradient-19)"></path>
                        <path d="M21.4997441,27.9 C21.0026878,27.9 20.5997441,27.4970563 20.5997441,27 C20.5997441,26.5029437 21.0026878,26.1 21.4997441,26.1 L31.3984894,26.1 C31.8955456,26.1 32.2984894,26.5029437 32.2984894,27 C32.2984894,27.4970563 31.8955456,27.9 31.3984894,27.9 L21.4997441,27.9 Z" id="Path-130" fill="#C5D2EB"></path>
                        <path d="M21.4997441,17.9 C21.0026878,17.9 20.5997441,17.4970563 20.5997441,17 C20.5997441,16.5029437 21.0026878,16.1 21.4997441,16.1 L41.3984894,16.1 C41.8955456,16.1 42.2984894,16.5029437 42.2984894,17 C42.2984894,17.4970563 41.8955456,17.9 41.3984894,17.9 L21.4997441,17.9 Z" id="Path-130-Copy-2" fill="#C5D2EB"></path>
                        <path d="M14,29.9 C12.3983742,29.9 11.1,28.6016258 11.1,27 C11.1,25.3983742 12.3983742,24.1 14,24.1 C15.6016258,24.1 16.9,25.3983742 16.9,27 C16.9,28.6016258 15.6016258,29.9 14,29.9 Z M14,28.1 C14.6075132,28.1 15.1,27.6075132 15.1,27 C15.1,26.3924868 14.6075132,25.9 14,25.9 C13.3924868,25.9 12.9,26.3924868 12.9,27 C12.9,27.6075132 13.3924868,28.1 14,28.1 Z" id="Oval" fill="#C5D2EB"></path>
                        <path d="M15.0209456,12.385358 C15.0209456,11.8883017 15.4238893,11.485358 15.9209456,11.485358 C16.4180019,11.485358 16.8209456,11.8883017 16.8209456,12.385358 L16.8209456,17.0165458 C16.8209456,17.5136021 16.4180019,17.9165458 15.9209456,17.9165458 L12.8772517,17.9165458 C12.3801955,17.9165458 11.9772517,17.5136021 11.9772517,17.0165458 C11.9772517,16.5194895 12.3801955,16.1165458 12.8772517,16.1165458 L15.0209456,16.1165458 L15.0209456,12.385358 Z" id="Path-131" fill="#C5D2EB" transform="translate(14.399099, 14.700952) rotate(-315.000000) translate(-14.399099, -14.700952) "></path>
                    </g>
                </g>
            </g>
        </g>
    </g>
</svg>