<?xml version="1.0" encoding="UTF-8"?>
<svg width="44px" height="42px" viewBox="0 0 44 42" version="1.1" xmlns="http://www.w3.org/2000/svg" xmlns:xlink="http://www.w3.org/1999/xlink">
    <!-- Generator: Sketch 52.6 (67491) - http://www.bohemiancoding.com/sketch -->
    <title>Alexis logo RGB</title>
    <desc>Created with Sketch.</desc>
    <g id="Page-1" stroke="none" stroke-width="1" fill="none" fill-rule="evenodd">
        <g id="Bright-Copy" transform="translate(-405.000000, -308.000000)">
            <g id="Alexis-logo-RGB" transform="translate(405.000000, 307.000000)">
                <path d="M11.7913697,31.9045203 C2.59974609,35.562524 1.28283242,40.2379063 1.27600339,40.2624578 C1.08170862,40.037563 0.910378697,39.8028717 0.762376238,39.5597748 C1.00223813,39.9542932 1.30253385,40.3269208 1.66350514,40.6711872 C2.67613446,41.6375881 3.92258229,42.1485149 5.267779,42.1485149 C7.3077835,42.1485149 8.40266328,41.2639324 8.96209928,40.5214588 C9.54691749,39.7449396 10.1646721,38.4559818 10.9066788,36.4645223 C10.9066788,36.4645223 12.5814816,32.0598121 18.0792079,29.7326733 C16.2850483,30.23846 14.2208702,30.9376357 11.7913697,31.9045203" id="Fill-9" fill="#1C5A79"></path>
                <path d="M35.0442735,31.6930693 C32.8800719,33.1780244 31.133649,34.8418428 31.0502128,36.9841299 C30.8506472,42.1098239 33.5303484,41.6046048 33.7269854,41.5607705 C33.2829086,41.7893655 32.8095456,41.9505979 32.3134706,42.039604 C33.3540326,41.8557553 34.294782,41.3579533 35.0693761,40.5700912 C36.0669051,39.5557012 36.5940594,38.3383724 36.5940594,37.0496078 C36.5940594,35.9930858 36.2079577,34.5579839 35.3849515,32.5497531 L35.0442735,31.6930693" id="Fill-10" fill="#197098"></path>
                <path d="M43.5470311,25.3999285 C44.5251312,23.0804514 43.3894685,20.7870494 40.5012248,21.4684514 C37.6135871,22.1499139 36.2870312,27.9862069 33.0194253,28.8595728 C31.2815704,29.3239643 29.9076852,29.2616501 28.745055,29.199336 C27.6766594,29.1420433 26.7866731,29.0847506 25.9569242,29.4361902 C24.2241598,30.170045 24.5249225,32.8014558 24.5249225,32.8014558 L25.5753197,36.3758669 C25.580895,36.3904472 25.5865915,36.4049065 25.5926516,36.4193053 C25.8239656,36.980193 26.1043664,37.6363668 26.4260365,38.3690721 C26.8069744,39.2370535 27.1732468,39.8877219 27.5452764,40.3570138 C27.9789371,40.9050152 28.5207707,41.3437551 29.156051,41.6610127 C29.8039969,41.9845016 30.5579339,42.1485149 31.3965911,42.1485149 C32.2449445,42.1485149 33.0424537,41.9557645 33.7642116,41.5911966 C33.5648343,41.6348165 30.8477885,42.137504 31.0501352,37.0369412 C31.2601783,31.7425995 41.8665653,29.3837374 43.5470311,25.3999285" id="Fill-11" fill="#2093BB"></path>
                <path d="M33.4356436,13.7772277 C33.4356436,14.7697073 32.6314354,15.5742574 31.6386754,15.5742574 C30.6461618,15.5742574 29.8415842,14.7697073 29.8415842,13.7772277 C29.8415842,12.7847481 30.6461618,11.980198 31.6386754,11.980198 C32.6314354,11.980198 33.4356436,12.7847481 33.4356436,13.7772277" id="Fill-12" fill="#2093BB"></path>
                <path d="M34.5557197,21.8238305 C32.4769863,19.8639762 29.0199792,20.6422743 27.5252045,21.876107 C19.5506307,28.4587188 14.986197,27.7273309 14.041775,23.2866667 C13.6940277,21.6511434 15.2652184,19.2116964 18.3283984,18.950495 C6.90662681,19.8647601 0.778813575,33.7508199 1.17542599,32.7725207 C0.778813575,33.7508199 0.499852749,34.5015024 0.323102879,35.0661725 C0.108689968,35.7486605 0,36.4288573 0,37.0877697 C0,38.2230188 0.413203533,39.2845864 1.1975273,40.1881188 C1.20436962,40.1636387 2.52384766,35.5018698 11.7333697,31.8545173 C20.5596611,28.358869 24.5791312,28.3688178 28.3031704,28.3787666 C28.9183738,28.3803946 29.5255844,28.3820226 30.1450264,28.3678531 C35.3126137,28.2497336 36.6538297,23.8026177 34.5557197,21.8238305" id="Fill-13" fill="#197098"></path>
                <path d="M23.8119061,4.42978662 C23.2489589,3.61421539 22.5062149,2.94183189 21.6037189,2.4310866 C20.6678554,1.90189085 19.5309394,1.63366337 18.224582,1.63366337 C16.9337881,1.63366337 15.8048657,1.90207233 14.8691839,2.43126808 C13.9611166,2.94491705 13.2143758,3.63127451 12.6491273,4.47231344 C12.1661166,5.19157928 11.7131427,6.08712272 11.3028622,7.13438345 L10.3645159,9.532642 L1.21613866,32.7326856 C0.819483703,33.7141901 6.94795416,19.7826339 18.3709507,18.8653733 C21.4357916,18.6192864 24.4475836,19.8027177 26.1520493,20.2805546 C27.8564544,20.7583915 29.7426547,20.4711086 29.8362774,18.6199518 C29.9299606,16.7687951 28.7646429,15.9757879 27.8141849,13.630824 L26.1341846,9.48551769 C25.6958658,8.33505531 25.3270069,7.39510976 25.0369341,6.69102775 C24.705924,5.88888603 24.2938268,5.12818226 23.8119061,4.42978662" id="Fill-14" fill="#2093BB"></path>
                <path d="M6.64356436,25.0497006 L6.64406436,25.0492006 C6.64346436,25.0499006 6.64426436,25.0490006 6.64356436,25.0497006 M6.64984681,25.0482938 C6.65434681,25.0434938 6.65834681,25.0393938 6.66294681,25.0345938 C6.65884681,25.0387938 6.65384681,25.0440938 6.64984681,25.0482938 M6.65800191,25.0342895 C8.67285679,22.9144671 11.2228074,20.8910501 14.27324,19.749097 C14.273844,19.7488535 14.2743877,19.7486709 14.2749918,19.7484275 C14.283751,19.7452018 14.2926914,19.7418544 14.3014506,19.7385679 C14.3026588,19.7381418 14.3047126,19.7373506 14.3059812,19.7368637 C14.3084579,19.7359508 14.3108743,19.7350379 14.3134114,19.7341249 C14.3146196,19.7336989 14.3167339,19.7329077 14.317942,19.7324208 C14.3221102,19.7308992 14.3259763,19.7294386 14.3302049,19.727917 C14.3320171,19.7272475 14.3335877,19.7266389 14.3354604,19.7259694 C14.3379371,19.7250565 14.339689,19.724387 14.3421657,19.7234741 C14.3440384,19.7228046 14.3469984,19.7217091 14.348871,19.7210396 C14.3513478,19.7200658 14.3537641,19.7192137 14.3562408,19.7183008 C14.3593216,19.7171444 14.3621004,19.7161098 14.3651812,19.7150143 C14.3672955,19.7142231 14.3689869,19.7136144 14.3711012,19.7128232 C14.373578,19.7119103 14.3758735,19.7110582 14.3783502,19.7101453 C14.3800416,19.7095367 14.3813102,19.7091107 14.3830016,19.708502 C14.3866865,19.7071022 14.391338,19.7053981 14.3950229,19.7040591 C14.3958686,19.7037548 14.3974392,19.703207 14.3982849,19.7029027 C14.4019698,19.7015638 14.4049298,19.7004683 14.4086751,19.6991293 C14.4094604,19.698825 14.4106686,19.698399 14.4115143,19.6980946 C14.4201527,19.6949298 14.4290327,19.6917041 14.4376711,19.6886002 C14.4385168,19.6882959 14.4394229,19.6879307 14.4402686,19.6876264 C14.4439535,19.6862874 14.4486049,19.6846441 14.4522898,19.6833052 C14.4527127,19.6831226 14.4531356,19.6830009 14.4535584,19.6828791 C14.4578474,19.6812967 14.4626801,19.6795317 14.4670294,19.6780102 C14.4674523,19.6778276 14.4680564,19.677645 14.4684792,19.6774624 C14.4728286,19.6759409 14.4769364,19.6744193 14.4812858,19.6728978 C14.4817086,19.6727152 14.481769,19.6727152 14.4821919,19.6725326 C14.4914344,19.6692461 14.5007372,19.6658987 14.5099797,19.6626121 C14.5104025,19.6624904 14.5105838,19.6624295 14.5110066,19.6622469 C14.5203095,19.6589604 14.5296727,19.655613 14.5389756,19.6523264 C14.5393985,19.6522047 14.5391568,19.6522656 14.5395797,19.6521439 C15.4636438,19.3249499 16.4323496,19.0794327 17.4454554,18.9363462 C12.9584556,19.5700411 9.33607834,22.2168672 6.65800191,25.0342895 M14.103795,21.9306334 C14.5072009,20.5547877 15.8947771,19.1304959 18.0959912,18.8626424 C15.8948979,19.1304351 14.5085299,20.5544834 14.1050031,21.9303291 C14.1047011,21.9303899 14.104097,21.9305725 14.103795,21.9306334 M18.0973202,18.8639079 C18.1078202,18.8626079 18.1179202,18.8614079 18.1285202,18.8602079 C18.1182202,18.8614079 18.1076202,18.8627079 18.0973202,18.8639079 M18.1165904,18.8605776 C18.1196904,18.8602776 18.1228904,18.8598776 18.1258904,18.8594776 C18.1226904,18.8598776 18.1198904,18.8601776 18.1165904,18.8605776 M18.1243831,18.8596255 C18.1273831,18.8593255 18.1301831,18.8589255 18.1331831,18.8586255 C18.1301831,18.8589255 18.1273831,18.8593255 18.1243831,18.8596255 M18.1307259,18.8593648 C18.1374259,18.8585648 18.1438259,18.8578648 18.1505259,18.8571648 C18.1438259,18.8578648 18.1374259,18.8585648 18.1307259,18.8593648 M18.1433513,18.8573953 C18.1463513,18.8570953 18.1486513,18.8567953 18.1517513,18.8564953 C18.1489513,18.8567953 18.1460513,18.8570953 18.1433513,18.8573953 M18.1513855,18.8564433 C18.1537855,18.8562433 18.1565855,18.8559433 18.1589855,18.8556433 C18.1566855,18.8558433 18.1536855,18.8562433 18.1513855,18.8564433 M18.1594198,18.855826 C18.1634198,18.855326 18.1677198,18.854826 18.1717198,18.854426 C18.1678198,18.854826 18.1634198,18.855326 18.1594198,18.855826 M18.1702329,18.854374 C18.1727329,18.854074 18.1752329,18.853874 18.1776329,18.853574 C18.1753329,18.853874 18.1726329,18.854174 18.1702329,18.854374 M18.1783276,18.8535219 C18.1804276,18.8532219 18.1830276,18.8530219 18.1851276,18.8527219 C18.1828276,18.8530219 18.1806276,18.8532219 18.1783276,18.8535219 M18.1860599,18.8528655 C18.1900599,18.8524655 18.1941599,18.8520655 18.1981599,18.8515655 C18.1939599,18.8520655 18.1902599,18.8524655 18.1860599,18.8528655 M18.1970541,18.8514743 C18.1991541,18.8512743 18.2017541,18.8509743 18.2038541,18.8507743 C18.2015541,18.8509743 18.1993541,18.8512743 18.1970541,18.8514743 M18.205028,18.8506831 C18.207428,18.8503831 18.209328,18.8501831 18.211828,18.8499831 C18.209528,18.8501831 18.207328,18.8503831 18.205028,18.8506831 M18.2131227,18.8497919 C18.2152227,18.8495919 18.2172227,18.8493919 18.2193227,18.8491919 C18.2172227,18.8493919 18.2152227,18.8495919 18.2131227,18.8497919 M18.2240566,18.8486964 C18.2261566,18.8484964 18.2274566,18.8482964 18.2295566,18.8480964 C18.2279566,18.8482964 18.2256566,18.8484964 18.2240566,18.8486964 M18.2321513,18.8479052 C18.2339513,18.8477052 18.2359513,18.8475052 18.2377513,18.8473052 C18.2358513,18.8475052 18.2339513,18.8477052 18.2321513,18.8479052 M18.2401252,18.847114 C18.2422252,18.846914 18.2438252,18.846714 18.2460252,18.846514 C18.2441252,18.846714 18.2419252,18.846914 18.2401252,18.847114 M18.2508778,18.8460402 C18.2523778,18.8458402 18.2544778,18.8456402 18.2559778,18.8455402 C18.2543778,18.8457402 18.2524778,18.8458402 18.2508778,18.8460402 M18.2589725,18.845249 C18.2608725,18.845049 18.2625725,18.844949 18.2643725,18.844749 C18.2624725,18.844949 18.2608725,18.845049 18.2589725,18.845249 M18.2674297,18.8444186 C18.2690297,18.8443186 18.2705297,18.8441186 18.2720297,18.8440186 C18.2704297,18.8441186 18.2691297,18.8443186 18.2674297,18.8444186 M18.2780011,18.8433666 C18.2792011,18.8432666 18.2795011,18.8432666 18.2808011,18.8431666 C18.2798011,18.8432666 18.2789011,18.8432666 18.2780011,18.8433666 M18.2861562,18.8427145 C18.2876562,18.8426145 18.2890562,18.8425145 18.2906562,18.8423145 C18.2889562,18.8425145 18.2877562,18.8426145 18.2861562,18.8427145 M18.2944926,18.8419842 C18.2959926,18.8418842 18.2971926,18.8417842 18.2986926,18.8415842 C18.2972926,18.8417842 18.2958926,18.8418842 18.2944926,18.8419842" id="Fill-15" fill="#788888"></path>
                <path d="M2.83168317,30.0594059 C3.74710269,28.6357955 5.04344683,26.8438037 6.7019816,25.1150218 C6.70240599,25.1145987 6.70192097,25.1151426 6.70228474,25.1147196 C6.70422483,25.112665 6.7063468,25.1104895 6.70828689,25.1084953 C6.710712,25.1059573 6.7137434,25.1027545 6.71622914,25.1002164 L6.71647165,25.0999143 C9.40428499,22.3024878 13.0398325,19.6744467 17.543146,19.0452493 C17.8273086,19.0055468 18.1148664,18.973821 18.4059406,18.950495 C18.4029698,18.9507368 18.4004235,18.9509785 18.3978165,18.9511598 C18.396907,18.9512806 18.3961795,18.9513411 18.3952701,18.9514015 C18.3933906,18.9515828 18.3914505,18.9517641 18.3896317,18.9518849 C18.3886617,18.9520058 18.3878129,18.9520662 18.3869035,18.9521267 C18.3847815,18.952308 18.3825383,18.9525497 18.3804163,18.952731 C18.3796281,18.9527914 18.3794462,18.9527914 18.3787187,18.9528518 C18.3761723,18.9530935 18.3734441,18.9533353 18.3708977,18.953577 C18.3699883,18.9536374 18.3690789,18.9537583 18.3681088,18.9538187 C18.3664113,18.954 18.3645924,18.9541813 18.3628948,18.9543021 C18.3618035,18.954423 18.3607729,18.9544834 18.3596209,18.9546043 C18.3579234,18.9547856 18.3562864,18.9549064 18.3545888,18.9550877 C18.3536794,18.9551482 18.3524062,18.955269 18.3514968,18.9553899 C18.3490717,18.9556316 18.3466466,18.9558129 18.3442821,18.9560546 C18.3429483,18.9561755 18.3419782,18.9562963 18.3407051,18.9564172 C18.3391287,18.9565381 18.3376737,18.9567193 18.3360973,18.9568402 C18.335006,18.9569611 18.3337935,18.9570819 18.3327022,18.9572028 C18.3310046,18.9573236 18.3296102,18.9575049 18.3279126,18.9576258 C18.3266394,18.9577467 18.3258512,18.9578675 18.3245781,18.9579884 C18.3221529,18.9582301 18.3197885,18.9584718 18.3173633,18.9587135 C18.3160902,18.9588344 18.3148776,18.9589553 18.3136044,18.9590761 C18.31221,18.959197 18.3109974,18.9593178 18.309603,18.9594991 C18.3080873,18.95962 18.3069354,18.9597408 18.3054803,18.9599221 C18.3042071,18.960043 18.3028733,18.9601639 18.3016001,18.9602847 C18.3003269,18.9604056 18.2987506,18.9605869 18.2974774,18.9607077 C18.2963861,18.9608286 18.2948704,18.9610099 18.2937791,18.9610703 C18.291354,18.9613725 18.2888683,18.9616142 18.2864432,18.9618559 C18.2853519,18.9619768 18.2839574,18.9620976 18.2828055,18.9622185 C18.2815323,18.9623998 18.279956,18.9625206 18.2786828,18.9627019 C18.2774096,18.9628228 18.2763183,18.9629436 18.2750451,18.9630645 C18.2735901,18.9632458 18.2720744,18.9633666 18.2705587,18.9635479 C18.2693461,18.9636688 18.2684367,18.9637897 18.2671635,18.9639105 C18.2647384,18.9641522 18.2621314,18.9644544 18.2597063,18.9647565 C18.2584331,18.9648774 18.2575237,18.9649983 18.2562505,18.9651191 C18.2547954,18.9653004 18.2530978,18.9654817 18.2516428,18.9656026 C18.2505515,18.9657234 18.2497633,18.9658443 18.248672,18.9659651 C18.2467926,18.9661464 18.2453981,18.9663277 18.2435793,18.966509 C18.2433974,18.9665694 18.2430336,18.9665694 18.2429124,18.9666299 C18.2388503,18.9670529 18.2349701,18.9674759 18.2309081,18.9679593 C18.2306656,18.9679593 18.2301805,18.9680198 18.2298774,18.9680802 C18.2280586,18.9682615 18.226361,18.9685032 18.2245421,18.9686845 C18.2238146,18.9688053 18.2230871,18.9688658 18.2223595,18.9689262 C18.2205407,18.9691679 18.2186006,18.9694096 18.2167212,18.9695909 C18.2165999,18.9695909 18.2164786,18.9696514 18.2162968,18.9696514 C18.2098702,18.9703765 18.2037468,18.9711017 18.1973809,18.9718873 C18.1969565,18.9719477 18.1964715,18.9720081 18.1960471,18.9720686 C15.9868298,19.2380211 14.5942086,20.6522044 14.189336,22.0182854 C9.192512,23.3244199 5.32015222,26.998142 2.83168317,30.0594059" id="Fill-16" fill="#184458"></path>
                <path d="M14.2673267,19.9508579 C14.2687267,19.9503579 14.2688267,19.9503579 14.2702267,19.9497579 C14.2692267,19.9501579 14.2683267,19.9504579 14.2673267,19.9508579 M14.2955221,19.939825 C14.2983221,19.938825 14.3002221,19.938125 14.3030221,19.937025 C14.3009221,19.937825 14.2975221,19.939125 14.2955221,19.939825 M14.3074764,19.9349329 C14.3095764,19.9341329 14.3128764,19.9329329 14.3149764,19.9321329 C14.3129764,19.9329329 14.3094764,19.9342329 14.3074764,19.9349329 M14.3242608,19.9282293 C14.3269608,19.9272293 14.3301608,19.9260293 14.3329608,19.9250293 C14.3298608,19.9261293 14.3272608,19.9271293 14.3242608,19.9282293 M14.3362152,19.9236011 C14.3397152,19.9223011 14.3438152,19.9208011 14.3473152,19.9196011 C14.3442152,19.9207011 14.3393152,19.9225011 14.3362152,19.9236011 M14.3502827,19.9183666 C14.3551827,19.9165666 14.3602827,19.9146666 14.3650827,19.9129666 C14.3599827,19.9147666 14.3553827,19.9164666 14.3502827,19.9183666 M14.3651351,19.9120054 C14.3685351,19.9108054 14.3737351,19.9089054 14.3771351,19.9076054 C14.3730351,19.9091054 14.3692351,19.9105054 14.3651351,19.9120054 M14.377029,19.9082038 C14.383929,19.9056038 14.390029,19.9034038 14.396929,19.9009038 C14.390829,19.9031038 14.383129,19.9059038 14.377029,19.9082038 M14.392304,19.9016756 C14.398504,19.8993756 14.403204,19.8976756 14.409504,19.8954756 C14.403304,19.8976756 14.398404,19.8994756 14.392304,19.9016756 M14.4055263,19.899482 C14.4201263,19.894182 14.4343263,19.889082 14.4488263,19.883882 C14.4345263,19.888982 14.4198263,19.894282 14.4055263,19.899482 M14.434265,19.8851517 C14.440465,19.8829517 14.447965,19.8802517 14.454165,19.8780517 C14.448065,19.8802517 14.440365,19.8829517 14.434265,19.8851517 M14.4475476,19.8802214 C14.4551476,19.8774214 14.4621476,19.8749214 14.4698476,19.8722214 C14.4626476,19.8747214 14.4546476,19.8776214 14.4475476,19.8802214 M14.4624604,19.8740921 C14.4694604,19.8715921 14.4766604,19.8689921 14.4836604,19.8665921 C14.4764604,19.8690921 14.4696604,19.8715921 14.4624604,19.8740921 M14.4761656,19.8715665 C14.4914656,19.8661665 14.5068656,19.8606665 14.5221656,19.8552665 C14.5068656,19.8606665 14.4914656,19.8661665 14.4761656,19.8715665 M14.5049647,19.860241 C14.5202647,19.854841 14.5359647,19.849341 14.5512647,19.843941 C14.5358647,19.849341 14.5203647,19.854841 14.5049647,19.860241 M14.5335224,19.8437399 C15.7149503,19.3830108 16.9703383,19.0688438 18.2970297,18.950495 C18.2968486,18.950495 18.2967882,18.950495 18.2966071,18.950495 C18.0071669,18.9763629 17.7208058,19.0115458 17.4378258,19.0555748 C16.4252682,19.2131274 15.4570865,19.4834665 14.5335224,19.8437399" id="Fill-17" fill="#1D576B"></path>
                <path d="M11.7623762,31.9120244 L11.7628762,31.9118244 C11.7648762,31.9110244 11.7670762,31.9101244 11.7689762,31.9093244 L11.7696762,31.9091244 C11.7671762,31.9101244 11.7648762,31.9110244 11.7623762,31.9120244 M11.7871871,31.9023897 L11.7882871,31.9019897 C11.7904871,31.9010897 11.7928871,31.9000897 11.7950871,31.8992897 L11.7960871,31.8988897 C11.7928871,31.9000897 11.7903871,31.9010897 11.7871871,31.9023897 M11.8132781,31.8914861 L11.8135781,31.8913861 C11.8150781,31.8907861 11.8160781,31.8903861 11.8174781,31.8897861 C11.8183781,31.8894861 11.8175781,31.8897861 11.8184781,31.8893861 C11.8167781,31.8900861 11.8149781,31.8907861 11.8132781,31.8914861 M11.8372965,31.8816698 L11.8393965,31.8807698 C11.8396965,31.8806698 11.8395965,31.8807698 11.8397965,31.8806698 L11.8405965,31.8803698 C11.8393965,31.8807698 11.8384965,31.8811698 11.8372965,31.8816698 M11.8602176,31.8734133 L11.8609176,31.8731133 C11.8634176,31.8721133 11.8659176,31.8711133 11.8684176,31.8701133 L11.8689176,31.8700133 C11.8659176,31.8711133 11.8632176,31.8722133 11.8602176,31.8734133 M11.8860648,31.8629442 L11.8869648,31.8626442 C11.8886648,31.8619442 11.8902648,31.8612442 11.8919648,31.8606442 L11.8930648,31.8601442 C11.8908648,31.8610442 11.8882648,31.8620442 11.8860648,31.8629442 M11.910327,31.8534187 L11.912027,31.8527187 C11.913227,31.8522187 11.914827,31.8516187 11.916127,31.8511187 C11.916927,31.8507187 11.916627,31.8509187 11.917527,31.8505187 C11.915027,31.8515187 11.912727,31.8524187 11.910327,31.8534187 M11.9340405,31.8439979 L11.9360405,31.8431979 C11.9374405,31.8425979 11.9384405,31.8422979 11.9398405,31.8416979 L11.9412405,31.8411979 C11.9387405,31.8420979 11.9365405,31.8429979 11.9340405,31.8439979 M11.957876,31.8354931 C11.958776,31.8351931 11.958176,31.8353931 11.959076,31.8350931 C11.962276,31.8337931 11.965776,31.8323931 11.968976,31.8311931 C11.969876,31.8307931 11.970176,31.8306931 11.971076,31.8302931 C11.966676,31.8320931 11.962276,31.8337931 11.957876,31.8354931 M11.9835403,31.8252067 C11.9843403,31.8248067 11.9846403,31.8247067 11.9854403,31.8244067 C11.9869403,31.8238067 11.9885403,31.8232067 11.9899403,31.8226067 C11.9917403,31.8219067 11.9931403,31.8213067 11.9949403,31.8206067 C11.9912403,31.8221067 11.9871403,31.8237067 11.9835403,31.8252067 M12.0049374,31.8169341 C12.0067374,31.8162341 12.0091374,31.8152341 12.0109374,31.8145341 C12.0121374,31.8140341 12.0128374,31.8138341 12.0140374,31.8133341 C12.0149374,31.8130341 12.0168374,31.8122341 12.0177374,31.8118341 C12.0136374,31.8135341 12.0091374,31.8153341 12.0049374,31.8169341 M12.0297483,31.8072259 C12.0306483,31.8068259 12.0321483,31.8062259 12.0330483,31.8059259 C12.0354483,31.8049259 12.0378483,31.8040259 12.0402483,31.8030259 C12.0411483,31.8027259 12.0419483,31.8024259 12.0427483,31.8020259 C12.0384483,31.8037259 12.0341483,31.8054259 12.0297483,31.8072259 M12.0549249,31.7976475 C12.0558249,31.7973475 12.0564249,31.7970475 12.0573249,31.7967475 C12.0605249,31.7954475 12.0637249,31.7942475 12.0668249,31.7929475 C12.0686249,31.7922475 12.0687249,31.7922475 12.0705249,31.7915475 C12.0654249,31.7935475 12.0600249,31.7956475 12.0549249,31.7976475 M12.0758952,31.7905566 C12.0776952,31.7898566 12.0797952,31.7890566 12.0814952,31.7883566 C12.0858952,31.7866566 12.0900952,31.7849566 12.0944952,31.7832566 C12.0953952,31.7828566 12.0977952,31.7819566 12.0985952,31.7815566 C12.0910952,31.7845566 12.0833952,31.7875566 12.0758952,31.7905566 M12.1013767,31.7794713 C12.1022767,31.7790713 12.1041767,31.7783713 12.1050767,31.7779713 C12.1081767,31.7767713 12.1110767,31.7756713 12.1141767,31.7743713 C12.1150767,31.7740713 12.1160767,31.7736713 12.1169767,31.7732713 C12.1116767,31.7753713 12.1066767,31.7773713 12.1013767,31.7794713 M12.12698,31.7696148 L12.12928,31.7687148 C12.13338,31.7671148 12.13708,31.7656148 12.14118,31.7640148 C12.14198,31.7637148 12.14308,31.7632148 12.14398,31.7629148 C12.13818,31.7652148 12.13278,31.7673148 12.12698,31.7696148 M12.1450852,31.764871 C12.1485852,31.763471 12.1514852,31.762371 12.1549852,31.760971 C12.1617852,31.758371 12.1683852,31.755771 12.1750852,31.753171 C12.1759852,31.752771 12.1770852,31.752371 12.1778852,31.752071 C12.1667852,31.756371 12.1561852,31.760571 12.1450852,31.764871 M12.1697741,31.7502433 C12.1702618,31.7499997 12.1704447,31.7499387 12.1709324,31.749756 C12.8797182,31.4722624 13.5569875,31.2177969 14.2053616,30.9844099 C13.5565608,31.2179796 12.8790476,31.4725061 12.1697741,31.7502433 M14.2065199,31.001491 C14.2399333,30.986491 14.2732666,30.971491 14.3065199,30.956691 C14.2732666,30.971591 14.2399333,30.986491 14.2065199,31.001491 M14.2837566,30.9562645 C15.6746276,30.4573853 16.9317516,30.0558573 18.0792079,29.7326733 C16.9316296,30.0559182 15.6746885,30.4573853 14.2837566,30.9562645" id="Fill-18" fill="#788888"></path>
                <path d="M2.83168317,37.6831683 C4.05453638,36.2447858 6.18211345,34.3960117 9.82556876,32.6688307 C9.8260527,32.6685867 9.8260527,32.6685867 9.82653664,32.6683428 C9.83458213,32.6645011 9.84280909,32.6605984 9.85091507,32.6568177 L9.85103605,32.6567567 C9.8926548,32.6370604 9.93439453,32.617425 9.97643673,32.5977896 L9.9766787,32.5976677 C9.98091317,32.5957163 9.98484517,32.593826 9.98901914,32.5918746 C9.98950308,32.5916307 9.98871668,32.5920576 9.98920062,32.5918137 C9.99343509,32.5898623 9.9972461,32.5880329 10.0014806,32.5860816 L10.002388,32.5856547 C10.00632,32.5838254 10.010131,32.5820569 10.014063,32.5801666 C10.0145469,32.5799836 10.014305,32.5801056 10.0147889,32.5798617 C10.0184789,32.5781543 10.0227739,32.5761419 10.0264639,32.5744345 C10.0270083,32.5741906 10.0273713,32.5740077 10.0279157,32.5737637 C10.0316058,32.5720563 10.0351748,32.5703489 10.0388649,32.5686415 C10.0393488,32.5683976 10.0401352,32.5680317 10.0406191,32.5678487 C10.0440672,32.5662023 10.0476967,32.5645559 10.0511448,32.5629704 C10.0521127,32.5624826 10.0526571,32.5622386 10.0536855,32.5617508 C10.0570731,32.5601653 10.0610656,32.558336 10.0645136,32.5567505 C10.0649976,32.5565066 10.0648766,32.5565676 10.0653605,32.5563236 C10.069353,32.5544943 10.0726196,32.5529698 10.0765516,32.5511404 C10.077096,32.5508965 10.0780639,32.5504086 10.0786083,32.5502257 C10.0819959,32.5486402 10.0855045,32.5469938 10.0889525,32.5454083 C10.0899809,32.5449205 10.0901624,32.5448595 10.0911908,32.5443717 C10.0943968,32.5429082 10.097361,32.5415056 10.1005671,32.5400421 C10.1020794,32.5393104 10.1029263,32.5389445 10.1044386,32.5382737 C10.1073422,32.5368712 10.1109113,32.5352248 10.1138149,32.5338832 C10.1148433,32.5334564 10.1154482,32.5331515 10.1164161,32.5327246 C10.1193197,32.5313221 10.1227073,32.5297976 10.1256109,32.528456 C10.1265788,32.5279682 10.1283936,32.5271755 10.1294219,32.5266876 C10.13287,32.5251022 10.13656,32.5233947 10.1400081,32.5218093 C10.140492,32.5215654 10.1410365,32.5213214 10.1415204,32.5211385 C10.144424,32.519736 10.1473277,32.5184554 10.1502313,32.5171139 C10.1517436,32.5163821 10.1531954,32.5157723 10.1547077,32.5150406 C10.1626927,32.5113818 10.1711617,32.5074791 10.1791467,32.5037594 C10.1807195,32.5030886 10.1826552,32.5021739 10.1841675,32.5015031 C10.1865267,32.5004055 10.1894908,32.499064 10.1919105,32.4979663 C10.1934229,32.4972346 10.1957821,32.4961979 10.1972944,32.4954662 C10.1994116,32.4944905 10.2018313,32.4933929 10.2039485,32.4924172 C10.2054608,32.4917464 10.2081225,32.4904659 10.2096953,32.4897951 C10.212357,32.4885755 10.2145347,32.4875388 10.2171964,32.4863193 C10.2187087,32.4856485 10.219616,32.4852216 10.2211284,32.4845509 C10.22379,32.4833313 10.2266937,32.4819897 10.2293553,32.4807701 C10.2314121,32.4798554 10.2324404,32.4793676 10.2344367,32.4784529 C10.2370983,32.4772333 10.2394575,32.4761357 10.2421192,32.4749161 C10.2436315,32.4742453 10.2457488,32.4732697 10.2472611,32.4725989 C10.2496808,32.4715013 10.251798,32.4705256 10.2542177,32.469428 C10.25573,32.4686962 10.2580892,32.4676596 10.2596015,32.4669278 C10.2623237,32.4657082 10.2652273,32.4643667 10.267889,32.4631471 C10.2689173,32.4627202 10.2704296,32.4620495 10.271458,32.4615616 C10.2744221,32.4602201 10.2772653,32.4588785 10.2802294,32.457537 C10.2817417,32.4568662 10.2830121,32.4562564 10.2845244,32.4555856 C10.2869441,32.454488 10.2899687,32.4531465 10.2923884,32.4519878 C10.2939007,32.4513171 10.2964414,32.4501585 10.2979537,32.4494877 C10.3000709,32.448512 10.3019462,32.4476583 10.3040634,32.4466826 C10.3066041,32.445524 10.3079349,32.4449752 10.3104756,32.4438166 C10.3126533,32.4428409 10.315194,32.4416823 10.3173717,32.4407067 C10.319368,32.439731 10.3210013,32.4389992 10.323058,32.4380845 C10.3249333,32.4372308 10.32699,32.4363161 10.3288653,32.4354624 C10.330922,32.4345477 10.3340676,32.4330842 10.3361243,32.4321695 C10.3374552,32.4315597 10.338786,32.4309499 10.3401168,32.4303402 C10.343202,32.4289376 10.3460451,32.4276571 10.3491302,32.4262545 C10.3493722,32.4261326 10.3501586,32.4258277 10.3504005,32.4257057 C10.3539696,32.4240593 10.3575386,32.4224738 10.3611077,32.4208274 C10.3635879,32.4197297 10.3654631,32.418876 10.3678828,32.4177784 C10.3699396,32.4168637 10.3713309,32.4162539 10.3733876,32.4153392 C10.3758073,32.4141806 10.3780456,32.4132049 10.3804653,32.4121073 C10.3891762,32.4081436 10.3972216,32.4045459 10.4059325,32.4006432 C10.4075658,32.3999114 10.4095016,32.3989967 10.4111349,32.398265 C10.4136756,32.3971064 10.4152484,32.3964356 10.417789,32.395277 C10.4199668,32.3943013 10.4216606,32.3935086 10.4238383,32.3925329 C10.4254111,32.3918621 10.4282542,32.3905816 10.429827,32.3898498 C10.4320048,32.3888741 10.4343035,32.3878375 10.4364812,32.3868618 C10.4385379,32.3859471 10.4414416,32.3846056 10.4434983,32.3836909 C10.4451316,32.3829591 10.4474303,32.3819835 10.4490636,32.3812517 C10.4511203,32.380276 10.4532981,32.3793004 10.4553548,32.3783857 C10.4575325,32.37741 10.4598312,32.3763734 10.462009,32.3753977 C10.4640657,32.374483 10.4661224,32.3735683 10.4681792,32.3726536 C10.4703569,32.371678 10.4729581,32.3705193 10.4751358,32.3695437 C10.4766481,32.3688729 10.4785234,32.3680192 10.4800357,32.3673484 C10.4828183,32.3661288 10.4849356,32.3651532 10.4876577,32.3639336 C10.489775,32.3630189 10.4918317,32.3620432 10.4938884,32.3611285 C10.4960662,32.3601528 10.4976995,32.3594211 10.4998772,32.3584454 C10.5019339,32.3575307 10.5046561,32.3563111 10.5067128,32.3553964 C10.5086486,32.3545427 10.5103424,32.353811 10.5122781,32.3529573 C10.5148793,32.3517987 10.5172385,32.350701 10.5198397,32.3495424 C10.5217149,32.3486887 10.5233482,32.3480179 10.5252235,32.3471642 C10.5278247,32.3460056 10.5293975,32.3452739 10.5319381,32.3441762 C10.5338739,32.3433225 10.5357492,32.3424688 10.5376849,32.3416151 C10.5402861,32.3404565 10.5430687,32.3391759 10.5456699,32.3380173 C10.5467588,32.3375295 10.5484526,32.3367977 10.5496019,32.3363099 C10.5521426,32.3351513 10.5549857,32.3339317 10.5575264,32.3327731 C10.5594622,32.3319194 10.5615794,32.3309437 10.5635152,32.33009 C10.5660558,32.3289924 10.5681731,32.3280167 10.5707138,32.3269191 C10.5726495,32.3260653 10.5748272,32.3250897 10.576763,32.324236 C10.5788197,32.3233213 10.580816,32.3224066 10.5828727,32.3214919 C10.5853529,32.3203943 10.5878331,32.3192966 10.5902528,32.318199 C10.59237,32.3172843 10.5941243,32.3165526 10.596181,32.3156379 C10.5983588,32.3146622 10.600355,32.3137475 10.6025327,32.3127718 C10.60465,32.3118571 10.6066462,32.3110034 10.608703,32.3100887 C10.6100943,32.3094789 10.6114251,32.3088691 10.6128164,32.3082594 C10.6174744,32.3061861 10.6235236,32.303503 10.6281815,32.3014297 C10.6301173,32.3005759 10.632416,32.2995393 10.6343517,32.2987466 C10.6369529,32.297588 10.6395541,32.2964293 10.6421552,32.2952707 C10.6435466,32.2946609 10.6452403,32.2939292 10.6466317,32.2933194 C10.6492328,32.2921608 10.651592,32.2911241 10.6541932,32.2899655 C10.656129,32.2891118 10.6581252,32.2881971 10.660061,32.2874044 C10.6621782,32.2864287 10.663872,32.285697 10.6659892,32.2847823 C10.6684694,32.2836846 10.6705262,32.28277 10.6730668,32.2816723 C10.6751236,32.2807576 10.6764544,32.2801478 10.6785716,32.2792332 C10.6810518,32.2781355 10.683774,32.2769159 10.6862542,32.2758183 C10.687827,32.2751475 10.6904281,32.2739889 10.6920009,32.2733181 C10.6941787,32.2723425 10.6961749,32.2714888 10.6984131,32.2705131 C10.7010143,32.2693545 10.7027686,32.2686227 10.7053698,32.2674641 C10.7075475,32.2664885 10.7094832,32.2656347 10.711661,32.2646591 C10.7137782,32.2637444 10.7159559,32.2628297 10.7180127,32.261915 C10.7202509,32.2609393 10.7223076,32.2600246 10.7245458,32.259049 C10.7266631,32.2581343 10.7288408,32.2571586 10.730958,32.2562439 C10.7331358,32.2552682 10.735253,32.2543535 10.7374912,32.2533779 C10.7401529,32.2522193 10.7420281,32.2513656 10.7446293,32.2502069 C10.7463231,32.2494752 10.7476539,32.2489264 10.7492872,32.2481946 C10.7519489,32.247036 10.7546105,32.2458774 10.7572722,32.2447188 C10.759208,32.2438651 10.7611437,32.2430114 10.7630795,32.2421577 C10.7656807,32.24106 10.7676769,32.2401453 10.7703386,32.2389867 C10.7719719,32.238255 10.7740286,32.2374013 10.7756619,32.2366695 C10.7783236,32.2355109 10.7803198,32.2346572 10.782921,32.2334986 C10.7851592,32.2325229 10.7874579,32.2315472 10.7896961,32.2305716 C10.7918134,32.2296569 10.7939306,32.2287422 10.7959873,32.2278275 C10.7979836,32.2269738 10.7997983,32.2261811 10.8017341,32.2253273 C10.8043958,32.2241687 10.8064525,32.223254 10.8091142,32.2220954 C10.8110499,32.2212417 10.8124413,32.2206319 10.814377,32.2197782 C10.8170387,32.2186806 10.8195189,32.217583 10.8221805,32.2164243 C10.8238138,32.2156926 10.8256891,32.2148999 10.8273829,32.2141681 C10.829984,32.2130095 10.8323432,32.2120338 10.8349444,32.2108752 C10.8354888,32.2106313 10.8356703,32.2105703 10.8362148,32.2103264 C10.8435948,32.2070945 10.8514588,32.2037406 10.8588389,32.2005087 C10.8593833,32.2002648 10.8599278,32.2000209 10.8604722,32.199777 C10.8631339,32.1986793 10.8659165,32.1974598 10.8685782,32.1963011 C10.8705139,32.1954474 10.8718448,32.1948986 10.8737805,32.1940449 C10.8764422,32.1928863 10.877531,32.1923985 10.8801927,32.1912398 C10.8824309,32.1902642 10.8847901,32.1892885 10.8870283,32.1883128 C10.8886616,32.1875811 10.8911418,32.1865444 10.8927146,32.1858127 C10.8952553,32.184776 10.898038,32.1835564 10.9005181,32.1824588 C10.9021514,32.181788 10.9039057,32.1809953 10.9054785,32.1803245 C10.9082612,32.1791049 10.9104389,32.1781903 10.913282,32.1769707 C10.9159437,32.1758121 10.9173955,32.1752023 10.9200572,32.1740437 C10.9219929,32.1731899 10.9239892,32.1723362 10.9259854,32.1714825 C10.9286471,32.1703239 10.9304619,32.1695922 10.9331235,32.1684335 C10.9351198,32.1675798 10.9370555,32.1667261 10.9390518,32.1658724 C10.9421974,32.1645309 10.9440122,32.1637381 10.9472182,32.1623356 C10.9486096,32.1617868 10.9500614,32.161116 10.9514527,32.1605062 C10.9541144,32.1594086 10.9570785,32.158128 10.9597402,32.1569694 C10.961434,32.1562377 10.9632487,32.1554449 10.9649425,32.1547132 C10.9676042,32.1536155 10.9703263,32.1524569 10.972988,32.1512983 C10.9746818,32.1505666 10.976557,32.1497738 10.9782508,32.1490421 C10.9809125,32.1478835 10.9828483,32.1470298 10.9855099,32.1459321 C10.9875062,32.1450784 10.9896234,32.1441637 10.9915592,32.14331 C10.9942208,32.1421514 10.996459,32.1412367 10.9991207,32.1400781 C11.0010565,32.1392244 11.0029317,32.1384317 11.004928,32.137578 C11.0070452,32.1366633 11.0095254,32.1356266 11.0117031,32.1347119 C11.0136389,32.1338582 11.0159981,32.1328825 11.0179338,32.1320288 C11.020656,32.1308702 11.0227732,32.1299555 11.0254954,32.1287969 C11.0271892,32.1280652 11.0284595,32.1275164 11.0302138,32.1267846 C11.0334199,32.1254431 11.0352346,32.1246503 11.0384407,32.1232478 C11.0401345,32.122577 11.0411629,32.1220892 11.0428567,32.1213574 C11.0503577,32.1181865 11.0570119,32.1153205 11.0645129,32.1121495 C11.0676586,32.110808 11.0701992,32.1097104 11.0732843,32.1084298 C11.0775793,32.1066004 11.0814508,32.104954 11.0857458,32.1031246 C11.0874396,32.1023928 11.0891333,32.1016611 11.0908271,32.1009903 C11.0934888,32.0998317 11.0956665,32.098917 11.0983887,32.0977584 C11.1003849,32.0969047 11.1020787,32.0961729 11.104075,32.0953192 C11.1061922,32.0944045 11.1078255,32.0937338 11.1100032,32.0928191 C11.1125439,32.0917214 11.1154475,32.0905018 11.1179882,32.0894042 C11.1196215,32.0887334 11.1213153,32.0880627 11.1228881,32.0873309 C11.1254893,32.0862333 11.1281509,32.0851357 11.1306916,32.084038 C11.1328693,32.0831233 11.1357125,32.0819038 11.1378902,32.0809891 C11.1398864,32.0801353 11.1417617,32.0793426 11.143758,32.0785499 C11.1464801,32.0773913 11.1494442,32.0761107 11.1521059,32.0749521 C11.1535577,32.0744033 11.155191,32.0736715 11.1565823,32.0731227 C11.1593045,32.0719641 11.1618452,32.0708665 11.1645673,32.0697079 C11.1668055,32.0687932 11.1686203,32.0680004 11.170919,32.0670248 C11.1730968,32.0661101 11.174851,32.0653783 11.1770288,32.0644636 C11.1793275,32.063488 11.1819891,32.0623903 11.1842273,32.0614147 C11.1864051,32.0605 11.1885828,32.0595853 11.1907605,32.0586706 C11.1930592,32.0576949 11.194995,32.0569022 11.1972937,32.0559265 C11.1994714,32.0550118 11.2023146,32.0537922 11.2044923,32.0528775 C11.2064885,32.0520238 11.2083033,32.0512921 11.2102996,32.0504384 C11.2130217,32.0492798 11.2148365,32.048548 11.2175586,32.0473894 C11.2200993,32.0462918 11.222277,32.0454381 11.2248782,32.0443404 C11.2269954,32.0434257 11.2283868,32.0428769 11.230504,32.0419622 C11.2331052,32.0408646 11.2352224,32.0399499 11.2378236,32.0389133 C11.2400013,32.0379986 11.242179,32.0370839 11.2443568,32.0361692 C11.2466555,32.0351935 11.2484097,32.0344618 11.2507085,32.0334861 C11.2528862,32.0325714 11.2557898,32.0313518 11.2579675,32.0304371 C11.2599638,32.0295834 11.2618995,32.0287907 11.2638958,32.027937 C11.2660735,32.0270223 11.2688562,32.0258637 11.2710339,32.024949 C11.2741795,32.0236684 11.2772646,32.0223878 11.2804102,32.0210463 C11.2814991,32.0205585 11.2830719,32.0199487 11.2841607,32.0194608 C11.2879113,32.0179363 11.2910569,32.0165948 11.2948074,32.0150093 C11.2958963,32.0145825 11.2967431,32.0142166 11.297832,32.0137897 C11.3024294,32.0118384 11.3066639,32.01007 11.3112613,32.0081796 C11.3123502,32.0076918 11.3125922,32.0075698 11.313681,32.007143 C11.3174315,32.0055575 11.3211821,32.004033 11.3249326,32.0024476 C11.3260215,32.0020207 11.3270498,32.0015939 11.3281387,32.001106 C11.3315868,31.9997035 11.3350348,31.99824 11.3385434,31.9967765 C11.3401767,31.9961057 11.3416285,31.9954959 11.3432618,31.9948251 C11.345863,31.9937275 11.3488876,31.9925079 11.3514887,31.9914103 C11.3536665,31.9904956 11.3565701,31.989276 11.3587478,31.9884223 C11.3607441,31.9875686 11.3630428,31.9865929 11.365039,31.9858002 C11.3672168,31.9848855 11.3693945,31.9839708 11.3715722,31.9830561 C11.3741734,31.9820195 11.3760486,31.9812267 11.3786498,31.9801291 C11.3808275,31.9792144 11.3831263,31.9782997 11.385304,31.977385 C11.3876027,31.9764094 11.3899619,31.9754337 11.3922606,31.974519 C11.3944383,31.9736043 11.3965556,31.9726896 11.3987333,31.9718359 C11.4007295,31.9709822 11.4034517,31.9698846 11.4054479,31.9690308 C11.4076862,31.9681162 11.4107108,31.9668356 11.4128885,31.9659209 C11.4149452,31.9650672 11.417002,31.9642135 11.4190587,31.9634207 C11.4212364,31.962506 11.4236561,31.9614694 11.4258944,31.9605547 C11.4281931,31.95964 11.4306733,31.9586034 11.4330325,31.9576277 C11.4352102,31.956713 11.4370854,31.9559812 11.4392632,31.9550666 C11.4419248,31.9539689 11.444647,31.9528103 11.4472482,31.9517737 C11.4488815,31.9511029 11.4508172,31.9502492 11.452511,31.9495784 C11.4551122,31.9485418 11.4576528,31.9475051 11.460254,31.9464075 C11.4624317,31.9454928 11.4648514,31.9445171 11.4670292,31.9436024 C11.4690859,31.9427487 11.4711426,31.941895 11.4731994,31.9411023 C11.4753771,31.9401876 11.4780388,31.93909 11.480277,31.9381753 C11.4825757,31.9371996 11.4846929,31.9363459 11.4869916,31.9353702 C11.4892299,31.9344555 11.491952,31.9333579 11.4941902,31.9324432 C11.4964889,31.9314675 11.4989691,31.9304919 11.5013283,31.9295162 C11.5029616,31.9288454 11.5056233,31.9277478 11.5072566,31.927077 C11.5101602,31.9258574 11.5127614,31.9248208 11.515665,31.9236012 C11.5179032,31.9226865 11.5189921,31.9222596 11.5211698,31.9213449 C11.5243759,31.9200644 11.527461,31.9187838 11.5307276,31.9174423 C11.5323609,31.9167715 11.5329658,31.9165276 11.5346596,31.9158568 C11.5381682,31.9143933 11.5415558,31.9130517 11.5450643,31.9115882 C11.547242,31.9106735 11.5495408,31.9097588 11.551779,31.9088442 C11.5552875,31.9073807 11.5589171,31.9059171 11.5624256,31.9045146 C11.5635145,31.9040268 11.563454,31.9040878 11.5645429,31.9035999 C11.5683539,31.9020754 11.57156,31.9007339 11.575371,31.8992094 C11.5781536,31.8980508 11.5797264,31.897441 11.5825091,31.8962824 C11.5848078,31.8953677 11.587046,31.894453 11.5894052,31.8934773 C11.591583,31.8925627 11.5943051,31.891465 11.5964828,31.8906113 C11.5985396,31.8897576 11.6006568,31.8889039 11.6027135,31.8880502 C11.6049518,31.8871355 11.607432,31.8861598 11.6096097,31.8852451 C11.6119689,31.8842695 11.614812,31.8831108 11.6171712,31.8821962 C11.6194094,31.8812815 11.6208008,31.8806717 11.623039,31.879757 C11.6253982,31.8788423 11.6280598,31.8777447 11.6304191,31.876769 C11.6326573,31.8758543 11.634835,31.8750006 11.6370732,31.8740859 C11.6394324,31.8731102 11.6421546,31.8720126 11.6445138,31.8710369 C11.646752,31.8701832 11.6485063,31.8694515 11.6507445,31.8685368 C11.6531037,31.8675611 11.6557654,31.8665244 11.6581246,31.8655488 C11.6603628,31.8646341 11.6622985,31.8638413 11.6645367,31.8629267 C11.6668959,31.862012 11.6697996,31.8607924 11.6721588,31.8598777 C11.674397,31.858963 11.6763933,31.8581703 11.6786315,31.8572556 C11.6806882,31.8564019 11.6829264,31.8554872 11.6849832,31.8546944 C11.6877658,31.8535358 11.6898226,31.8527431 11.6926052,31.8515845 C11.6949644,31.8506088 11.6970211,31.8498161 11.6993803,31.8488404 C11.7016186,31.8479257 11.7039173,31.847011 11.7061555,31.8461573 C11.7085147,31.8451816 11.7109949,31.844145 11.7134146,31.8431693 C11.7156528,31.8423156 11.7175886,31.8415229 11.7198268,31.8406082 C11.7224884,31.8395106 11.7251501,31.8384739 11.7278118,31.8373763 C11.7295055,31.8367055 11.7319252,31.8357298 11.733619,31.8350591 C11.7359782,31.8340834 11.7386399,31.8330467 11.7409991,31.8320711 C11.7432373,31.8311564 11.745415,31.8303027 11.7476533,31.829388 C11.7506174,31.8282294 11.7528556,31.8273147 11.7558197,31.8260951 C11.7575135,31.8254243 11.7596307,31.8245706 11.761264,31.8238998 C11.7645306,31.8226193 11.7677972,31.8212777 11.7710638,31.8199971 C11.7727576,31.8193264 11.7734835,31.8190215 11.7751773,31.8183507 C11.7798957,31.8164603 11.7843116,31.814631 11.7890905,31.8127406 C11.7966521,31.8097526 11.8034272,31.8070085 11.8109283,31.8040205 C11.8124406,31.8034107 11.8138319,31.8028619 11.8153442,31.8022521 C11.8223008,31.7994471 11.828592,31.7969469 11.8355487,31.7941419 C11.8374844,31.7933491 11.8389967,31.7927393 11.8409325,31.7920076 C11.8479496,31.7892025 11.8544223,31.7865804 11.8614394,31.7837754 C11.8624678,31.7833485 11.8635566,31.7829217 11.864585,31.7824948 C11.8716021,31.7797507 11.8783168,31.7770676 11.8852734,31.7742626 C11.8859993,31.7739577 11.8865437,31.7737138 11.8872696,31.7734698 C11.8942868,31.7706648 11.9010619,31.7679207 11.9080185,31.7651766 C11.9098333,31.7644449 11.9114666,31.7637741 11.9132814,31.7631033 C11.920238,31.7602983 11.9267107,31.7577372 11.9336673,31.7549321 C11.9349981,31.7543833 11.9365709,31.7537735 11.9379018,31.7532247 C11.9448584,31.7504806 11.9507866,31.7481024 11.9577433,31.7453583 C11.9591951,31.7447485 11.9605864,31.7441997 11.9620987,31.7435899 C11.9685109,31.7410288 11.9748626,31.7385286 11.9812748,31.7359675 C11.9827871,31.7353577 11.9841179,31.7348089 11.9856302,31.7342601 C11.9920424,31.7316989 11.9985756,31.7290768 12.0049273,31.7265157 C12.007589,31.725479 12.0102506,31.7244424 12.0129123,31.7233448 C12.0187801,31.7210275 12.0245268,31.7187713 12.0303946,31.7164541 C12.0325723,31.7155394 12.0350525,31.7145637 12.0372907,31.713649 C12.0420696,31.7117587 12.0468485,31.7098683 12.0516274,31.707978 C12.0541681,31.7070023 12.0568902,31.7059047 12.0593704,31.704868 C12.0652382,31.7025508 12.07038,31.7005385 12.0762478,31.6982212 C12.0789095,31.6971236 12.0815106,31.696087 12.0841118,31.6950503 C12.0899796,31.6927331 12.0954239,31.6905988 12.1012311,31.6882816 C12.1043163,31.687062 12.1075828,31.6857814 12.110668,31.6845619 C12.114358,31.6830983 12.1183505,31.6815129 12.1220405,31.6800494 C12.1265775,31.67822 12.1312354,31.6763906 12.1357723,31.6745612 C12.1400672,31.6729148 12.1430919,31.6716952 12.1473263,31.6700488 C12.1505324,31.6687682 12.153557,31.6675486 12.1567631,31.666268 C12.1626309,31.6639508 12.1669259,31.6623044 12.1727331,31.6599871 C12.1762417,31.6585846 12.1795083,31.6573041 12.1830168,31.6559015 C12.1856785,31.6548649 12.1880377,31.6538892 12.1906994,31.6528526 C12.197414,31.6502304 12.2038262,31.6476693 12.2105409,31.6450472 C12.2121137,31.6443764 12.2135655,31.6438276 12.2151988,31.6432178 C12.9190275,31.3652126 13.5913396,31.1104406 14.2351599,30.8766455 C14.2355229,30.8765236 14.2359463,30.8764016 14.2363093,30.8762187 C14.2615346,30.8670718 14.2866994,30.8579858 14.3118037,30.8488999 C14.3122272,30.848717 14.3125297,30.848595 14.3129531,30.848473 C15.6932075,30.3491126 16.9404996,29.9472582 18.0792079,29.6237624 C16.3961288,30.341917 15.0702571,31.2554497 14.0420078,32.1786171 C13.0332371,32.4933319 11.9515125,32.8578059 10.7852802,33.2803323 C6.95683921,34.6673092 4.45402798,36.2717997 2.83168317,37.6831683" id="Fill-19" fill="#153747"></path>
                <path d="M9.8019802,32.6933939 C9.8028802,32.6928939 9.8027802,32.6929939 9.8035802,32.6925939 C9.8027802,32.6929939 9.8027802,32.6929939 9.8019802,32.6933939 M9.82738227,32.6814025 L9.82758227,32.6813025 L9.82738227,32.6814025 M9.95318011,32.6239165 L9.95358011,32.6237165 L9.95318011,32.6239165 M9.9657902,32.6181229 L9.9660902,32.6180229 C9.9652902,32.6184229 9.9665902,32.6177229 9.9657902,32.6181229 M9.97827905,32.6127091 C9.97867905,32.6125091 9.97937905,32.6122091 9.97977905,32.6120091 L9.97827905,32.6127091 M9.99088915,32.6068634 C9.99138915,32.6066634 9.99168915,32.6065634 9.99208915,32.6063634 C9.99128915,32.6067634 9.99168915,32.6065634 9.99088915,32.6068634 M10.0033174,32.6015206 C10.0042174,32.6011206 10.0048174,32.6008206 10.0057174,32.6004206 C10.0048174,32.6008206 10.0042174,32.6011206 10.0033174,32.6015206 M10.0157456,32.595956 C10.0166456,32.595556 10.0178456,32.595056 10.0186456,32.594656 C10.0178456,32.594956 10.0165456,32.595556 10.0157456,32.595956 M10.0280526,32.5907132 C10.0297526,32.5899132 10.0304526,32.5895132 10.0322526,32.5887132 C10.0305526,32.5895132 10.0296526,32.5899132 10.0280526,32.5907132 M10.0414508,32.5841241 C10.0418508,32.5839241 10.0424508,32.5836241 10.0428508,32.5834241 C10.0420508,32.5838241 10.0422508,32.5837241 10.0414508,32.5841241 M10.0535152,32.5789813 C10.0544152,32.5785813 10.0560152,32.5778813 10.0569152,32.5774813 C10.0560152,32.5777813 10.0544152,32.5785813 10.0535152,32.5789813 M10.0659435,32.5734761 C10.0672435,32.5728761 10.0683435,32.5723761 10.0696435,32.5717761 C10.0679435,32.5725761 10.0676435,32.5726761 10.0659435,32.5734761 M10.0775836,32.5687333 C10.0797836,32.5677333 10.0817836,32.5668333 10.0839836,32.5658333 C10.0814836,32.5669333 10.0800836,32.5675333 10.0775836,32.5687333 M10.0908605,32.5623253 C10.0926605,32.5615253 10.0934605,32.5612253 10.0951605,32.5604253 C10.0935605,32.5611253 10.0925605,32.5616253 10.0908605,32.5623253 M10.1026825,32.5574419 C10.1048825,32.5564419 10.1067825,32.5555419 10.1089825,32.5545419 C10.1072825,32.5553419 10.1042825,32.5566419 10.1026825,32.5574419 M10.1171114,32.550234 C10.1180114,32.549834 10.1187114,32.549534 10.1196114,32.549134 C10.1188114,32.549434 10.1179114,32.549834 10.1171114,32.550234 M10.1273571,32.5465911 C10.1300571,32.5453911 10.1320571,32.5443911 10.1347571,32.5431911 C10.1322571,32.5443911 10.1298571,32.5453911 10.1273571,32.5465911 M10.156336,32.5336981 C10.159436,32.5322981 10.161536,32.5313981 10.164636,32.5299981 C10.162136,32.5310981 10.158936,32.5325981 10.156336,32.5336981 M10.169128,32.5282147 C10.172228,32.5267147 10.174928,32.5255147 10.178028,32.5241147 C10.175528,32.5253147 10.171628,32.5270147 10.169128,32.5282147 M10.1811925,32.5228878 C10.1842925,32.5214878 10.1875925,32.5199878 10.1906925,32.5185878 C10.1880925,32.5196878 10.1836925,32.5217878 10.1811925,32.5228878 M10.1944695,32.516377 C10.1966695,32.515377 10.1987695,32.514477 10.2009695,32.513477 C10.1984695,32.514577 10.1969695,32.515277 10.1944695,32.516377 M10.2066552,32.5113342 C10.2093552,32.5101342 10.2124552,32.5087342 10.2150552,32.5075342 C10.2117552,32.5090342 10.2100552,32.5098342 10.2066552,32.5113342 M10.2194471,32.505629 C10.2221471,32.504429 10.2252471,32.503029 10.2279471,32.501829 C10.2254471,32.502929 10.2219471,32.504529 10.2194471,32.505629 M10.2315722,32.5004022 C10.2346722,32.4990022 10.2373722,32.4977022 10.2404722,32.4963022 C10.2379722,32.4975022 10.2340722,32.4992022 10.2315722,32.5004022 M10.2452736,32.4936725 C10.2470736,32.4928725 10.2493736,32.4918725 10.2511736,32.4910725 C10.2494736,32.4918725 10.2469736,32.4929725 10.2452736,32.4936725 M10.2576412,32.4884485 C10.2602412,32.4872485 10.2621412,32.4864485 10.2647412,32.4852485 C10.2622412,32.4863485 10.2601412,32.4873485 10.2576412,32.4884485 M10.2698269,32.4834057 C10.2729269,32.4820057 10.2759269,32.4807057 10.2790269,32.4793057 C10.2765269,32.4804057 10.2723269,32.4823057 10.2698269,32.4834057 M10.2815276,32.4784789 C10.2851276,32.4768789 10.2885276,32.4753789 10.2921276,32.4737789 C10.2879276,32.4756789 10.2857276,32.4765789 10.2815276,32.4784789 M10.2948652,32.4724926 C10.2979652,32.4709926 10.3011652,32.4695926 10.3042652,32.4681926 C10.3008652,32.4696926 10.2981652,32.4708926 10.2948652,32.4724926 M10.3063841,32.4678281 C10.3103841,32.4660281 10.3143841,32.4642281 10.3183841,32.4624281 C10.3149841,32.4639281 10.3097841,32.4663281 10.3063841,32.4678281 M10.3176604,32.4633635 C10.3230604,32.4609635 10.3271604,32.4590635 10.3325604,32.4566635 C10.3274604,32.4589635 10.3227604,32.4610635 10.3176604,32.4633635 M10.3279667,32.4593744 C10.3337667,32.4567744 10.3398667,32.4539744 10.3456667,32.4513744 C10.3397667,32.4540744 10.3338667,32.4566744 10.3279667,32.4593744 M10.3454875,32.4500259 C10.3481875,32.4488259 10.3518875,32.4472259 10.3545875,32.4460259 C10.3511875,32.4475259 10.3488875,32.4485259 10.3454875,32.4500259 M10.3580976,32.4505036 C10.3723976,32.4441036 10.3858976,32.4381036 10.4001976,32.4317036 C10.3857976,32.4381036 10.3724976,32.4440036 10.3580976,32.4505036 M10.3888347,32.431374 C10.3924347,32.429774 10.3962347,32.428074 10.3998347,32.426474 C10.3956347,32.428374 10.3930347,32.429474 10.3888347,32.431374 M10.401566,32.4255848 C10.404766,32.4241848 10.408266,32.4225848 10.411466,32.4211848 C10.408866,32.4223848 10.404166,32.4244848 10.401566,32.4255848 M10.4142368,32.4203826 C10.4183368,32.4185826 10.4218368,32.4169826 10.4258368,32.4151826 C10.4224368,32.4166826 10.4176368,32.4188826 10.4142368,32.4203826 M10.4268469,32.4147123 C10.4304469,32.4131123 10.4336469,32.4116123 10.4372469,32.4100123 C10.4338469,32.4115123 10.4302469,32.4131123 10.4268469,32.4147123 M10.4398207,32.4089261 C10.4434207,32.4073261 10.4464207,32.4060261 10.4500207,32.4044261 C10.4466207,32.4059261 10.4432207,32.4074261 10.4398207,32.4089261 M10.4529764,32.4028558 C10.4556764,32.4016558 10.4583764,32.4004558 10.4610764,32.3992558 C10.4585764,32.4003558 10.4554764,32.4017558 10.4529764,32.4028558 M10.4655259,32.3977941 C10.4687259,32.3963941 10.4726259,32.3945941 10.4758259,32.3931941 C10.4724259,32.3946941 10.4690259,32.3962941 10.4655259,32.3977941 M10.4777722,32.3926078 C10.4813722,32.3910078 10.4854722,32.3892078 10.4890722,32.3876078 C10.4856722,32.3891078 10.4811722,32.3911078 10.4777722,32.3926078 M10.4902005,32.3875027 C10.4943005,32.3857027 10.4986005,32.3837027 10.5027005,32.3819027 C10.4984005,32.3838027 10.4945005,32.3856027 10.4902005,32.3875027 M10.5031743,32.381573 C10.5067743,32.379973 10.5106743,32.378273 10.5142743,32.376673 C10.5100743,32.378473 10.5074743,32.379673 10.5031743,32.381573 M10.5156632,32.3765708 C10.5201632,32.3745708 10.5243632,32.3726708 10.5288632,32.3706708 C10.5245632,32.3725708 10.5199632,32.3746708 10.5156632,32.3765708 M10.5276064,32.3713599 C10.5321064,32.3693599 10.5362064,32.3675599 10.5407064,32.3655599 C10.5365064,32.3674599 10.5318064,32.3694599 10.5276064,32.3713599 M10.5415502,32.3650548 C10.5455502,32.3632548 10.5494502,32.3616548 10.5534502,32.3598548 C10.5492502,32.3616548 10.5457502,32.3632548 10.5415502,32.3650548 M10.5548272,32.3590657 C10.5584272,32.3574657 10.5613272,32.3561657 10.5649272,32.3545657 C10.5615272,32.3560657 10.5582272,32.3575657 10.5548272,32.3590657 M10.5683467,32.3530606 C10.5715467,32.3516606 10.5749467,32.3501606 10.5781467,32.3488606 C10.5747467,32.3503606 10.5718467,32.3515606 10.5683467,32.3530606 M10.5806537,32.3478526 C10.5838537,32.3464526 10.5876537,32.3447526 10.5908537,32.3434526 C10.5874537,32.3449526 10.5841537,32.3463526 10.5806537,32.3478526 M10.59096,32.3462138 C10.59956,32.3424138 10.60776,32.3388138 10.61636,32.3350138 C10.60866,32.3384138 10.59866,32.3428138 10.59096,32.3462138 M10.6125427,32.3347115 C10.6171427,32.3327115 10.6208427,32.3310115 10.6254427,32.3290115 C10.6211427,32.3309115 10.6168427,32.3328115 10.6125427,32.3347115 M10.6248496,32.3293413 C10.6289496,32.3275413 10.6332496,32.3256413 10.6373496,32.3238413 C10.6330496,32.3257413 10.6291496,32.3274413 10.6248496,32.3293413 M10.6383085,32.3230899 C10.6415085,32.3216899 10.6449085,32.3201899 10.6481085,32.3187899 C10.6446085,32.3202899 10.6418085,32.3214899 10.6383085,32.3230899 M10.651343,32.3173819 C10.654443,32.3159819 10.657243,32.3147819 10.660443,32.3133819 C10.656943,32.3148819 10.654743,32.3158819 10.651343,32.3173819 M10.6645593,32.3117174 C10.6677593,32.3103174 10.6708593,32.3090174 10.6740593,32.3076174 C10.6714593,32.3087174 10.6671593,32.3106174 10.6645593,32.3117174 M10.676745,32.3069122 C10.680345,32.3053122 10.684545,32.3035122 10.688245,32.3019122 C10.683945,32.3038122 10.681045,32.3050122 10.676745,32.3069122 M10.690022,32.3010043 C10.693222,32.2996043 10.697322,32.2978043 10.700522,32.2965043 C10.697122,32.2980043 10.693522,32.2995043 10.690022,32.3010043 M10.7029352,32.2955774 C10.7066352,32.2939774 10.7098352,32.2925774 10.7135352,32.2909774 C10.7100352,32.2924774 10.7064352,32.2940774 10.7029352,32.2955774 M10.7159091,32.290294 C10.7196091,32.288694 10.7241091,32.286694 10.7277091,32.285094 C10.7234091,32.286994 10.7203091,32.288394 10.7159091,32.290294 M10.727731,32.2854455 C10.731931,32.2836455 10.736831,32.2815455 10.740931,32.2797455 C10.736531,32.2816455 10.732131,32.2835455 10.727731,32.2854455 M10.7415536,32.2793592 C10.7456536,32.2775592 10.7493536,32.2759592 10.7535536,32.2741592 C10.7491536,32.2760592 10.7458536,32.2775592 10.7415536,32.2793592 M10.7541637,32.2740107 C10.7583637,32.2722107 10.7620637,32.2706107 10.7661637,32.2688107 C10.7618637,32.2707107 10.7585637,32.2721107 10.7541637,32.2740107 M10.7682288,32.2677838 C10.7719288,32.2661838 10.7750288,32.2648838 10.7786288,32.2632838 C10.7752288,32.2647838 10.7717288,32.2662838 10.7682288,32.2677838 M10.7802933,32.2629976 C10.7839933,32.2613976 10.7887933,32.2592976 10.7924933,32.2576976 C10.7880933,32.2595976 10.7846933,32.2610976 10.7802933,32.2629976 M10.792964,32.2576708 C10.797164,32.2559708 10.801664,32.2539708 10.805864,32.2521708 C10.801464,32.2540708 10.797364,32.2558708 10.792964,32.2576708 M10.8059985,32.2521628 C10.8100985,32.2503628 10.8143985,32.2485628 10.8184985,32.2467628 C10.8141985,32.2486628 10.8102985,32.2502628 10.8059985,32.2521628 M10.8148498,32.25276 C10.8273498,32.24736 10.8397498,32.24206 10.8522498,32.23666 C10.8400498,32.24196 10.8270498,32.24746 10.8148498,32.25276 M10.8391606,32.2382594 C10.8433606,32.2364594 10.8483606,32.2343594 10.8525606,32.2325594 C10.8481606,32.2344594 10.8435606,32.2364594 10.8391606,32.2382594 M10.8524982,32.2322269 C10.8557982,32.2308269 10.8598982,32.2290269 10.8630982,32.2276269 C10.8586982,32.2295269 10.8568982,32.2303269 10.8524982,32.2322269 M10.8657752,32.2264377 C10.8690752,32.2250377 10.8719752,32.2237377 10.8751752,32.2223377 C10.8725752,32.2235377 10.8684752,32.2252377 10.8657752,32.2264377 M10.8792947,32.2204892 C10.8820947,32.2192892 10.8846947,32.2181892 10.8874947,32.2169892 C10.8848947,32.2180892 10.8819947,32.2193892 10.8792947,32.2204892 M10.8920867,32.2156681 C10.8957867,32.2140681 10.8995867,32.2124681 10.9032867,32.2108681 C10.8988867,32.2127681 10.8964867,32.2137681 10.8920867,32.2156681 M10.904818,32.2104007 C10.908518,32.2088007 10.912918,32.2070007 10.916618,32.2054007 C10.912218,32.2073007 10.909218,32.2085007 10.904818,32.2104007 M10.9179131,32.2052578 C10.9225131,32.2032578 10.9267131,32.2014578 10.9314131,32.1994578 C10.9261131,32.2017578 10.9231131,32.2030578 10.9179131,32.2052578 M10.9303413,32.2000282 C10.9350413,32.1980282 10.9394413,32.1962282 10.9440413,32.1942282 C10.9396413,32.1961282 10.9347413,32.1982282 10.9303413,32.2000282 M10.9438608,32.1943013 C10.9480608,32.1925013 10.9529608,32.1905013 10.9571608,32.1887013 C10.9527608,32.1906013 10.9482608,32.1925013 10.9438608,32.1943013 M10.9571984,32.1885716 C10.9613984,32.1867716 10.9649984,32.1851716 10.9691984,32.1834716 C10.9647984,32.1852716 10.9615984,32.1866716 10.9571984,32.1885716 M10.970536,32.1830665 C10.974736,32.1812665 10.978836,32.1795665 10.983036,32.1777665 C10.978636,32.1796665 10.974936,32.1811665 10.970536,32.1830665 M10.9839343,32.1772368 C10.9876343,32.1757368 10.9913343,32.1741368 10.9951343,32.1725368 C10.9915343,32.1740368 10.9874343,32.1757368 10.9839343,32.1772368 M10.9969687,32.1720723 C11.0012687,32.1702723 11.0052687,32.1685723 11.0094687,32.1667723 C11.0049687,32.1686723 11.0014687,32.1701723 10.9969687,32.1720723 M11.0092757,32.1671643 C11.0134757,32.1653643 11.0186757,32.1631643 11.0228757,32.1613643 C11.0175757,32.1636643 11.0145757,32.1649643 11.0092757,32.1671643 M11.0219464,32.1656484 C11.0336464,32.1607484 11.0460464,32.1554484 11.0577464,32.1505484 C11.0453464,32.1557484 11.0343464,32.1604484 11.0219464,32.1656484 M11.052441,32.150453 C11.059041,32.147653 11.066441,32.144553 11.073041,32.141753 C11.065941,32.144753 11.059541,32.147453 11.052441,32.150453 M11.0700224,32.1418233 C11.0742224,32.1400233 11.0782224,32.1383233 11.0825224,32.1365233 C11.0780224,32.1384233 11.0744224,32.1399233 11.0700224,32.1418233 M11.0832994,32.1358096 C11.0865994,32.1345096 11.0897994,32.1331096 11.0930994,32.1317096 C11.0894994,32.1332096 11.0867994,32.1343096 11.0832994,32.1358096 M11.0972432,32.129761 C11.1000432,32.128661 11.1025432,32.127561 11.1053432,32.126361 C11.1027432,32.127561 11.0999432,32.128661 11.0972432,32.129761 M11.1099746,32.1251805 C11.1137746,32.1235805 11.1180746,32.1217805 11.1218746,32.1201805 C11.1182746,32.1216805 11.1135746,32.1236805 11.1099746,32.1251805 M11.1230697,32.1201971 C11.1277697,32.1181971 11.1321697,32.1162971 11.1368697,32.1142971 C11.1324697,32.1161971 11.1275697,32.1182971 11.1230697,32.1201971 M11.1359223,32.1147863 C11.1402223,32.1129863 11.1448223,32.1109863 11.1491223,32.1091863 C11.1446223,32.1110863 11.1404223,32.1128863 11.1359223,32.1147863 M11.1502905,32.1082754 C11.1535905,32.1068754 11.1570905,32.1054754 11.1603905,32.1040754 C11.1567905,32.1055754 11.1538905,32.1067754 11.1502905,32.1082754 M11.1636281,32.1029297 C11.1674281,32.1013297 11.1706281,32.1000297 11.1744281,32.0984297 C11.1708281,32.0999297 11.1672281,32.1014297 11.1636281,32.1029297 M11.1767232,32.0977841 C11.1805232,32.0961841 11.1848232,32.0943841 11.1886232,32.0927841 C11.1850232,32.0942841 11.1803232,32.0962841 11.1767232,32.0977841 M11.1897577,32.0924355 C11.1935577,32.0908355 11.1979577,32.0890355 11.2017577,32.0874355 C11.1972577,32.0893355 11.1942577,32.0905355 11.1897577,32.0924355 M11.2043684,32.0860464 C11.2071684,32.0848464 11.2108684,32.0833464 11.2136684,32.0821464 C11.2101684,32.0836464 11.2078684,32.0845464 11.2043684,32.0860464 M11.2173423,32.0810007 C11.2206423,32.0796007 11.2247423,32.0779007 11.2281423,32.0765007 C11.2245423,32.0780007 11.2209423,32.0795007 11.2173423,32.0810007 M11.2302555,32.0759144 C11.2340555,32.0743144 11.2384555,32.0725144 11.2422555,32.0709144 C11.2386555,32.0724144 11.2338555,32.0744144 11.2302555,32.0759144 M11.2434719,32.0704659 C11.2472719,32.0689659 11.2514719,32.0671659 11.2552719,32.0655659 C11.2516719,32.0670659 11.2470719,32.0689659 11.2434719,32.0704659 M11.2600226,32.0628173 C11.2619226,32.0620173 11.2643226,32.0610173 11.2662226,32.0602173 C11.2644226,32.0610173 11.2618226,32.0620173 11.2600226,32.0628173 M11.2744515,32.0566905 C11.2758515,32.0560905 11.2779515,32.0552905 11.2794515,32.0546905 C11.2776515,32.0553905 11.2762515,32.0559905 11.2744515,32.0566905 M11.2909416,32.0499128 C11.2923416,32.0493128 11.2935416,32.0488128 11.2949416,32.0482128 C11.2931416,32.0489128 11.2927416,32.0491128 11.2909416,32.0499128 M11.304643,32.0445294 C11.306043,32.0439294 11.308543,32.0429294 11.309943,32.0423294 C11.308143,32.0431294 11.306443,32.0438294 11.304643,32.0445294 M11.3182837,32.0394083 C11.3210837,32.0383083 11.3231837,32.0374083 11.3260837,32.0362083 C11.3233837,32.0373083 11.3209837,32.0383083 11.3182837,32.0394083 M11.3312575,32.0348683 C11.3355575,32.0330683 11.3389575,32.0316683 11.3432575,32.0299683 C11.3396575,32.0313683 11.3348575,32.0333683 11.3312575,32.0348683 M11.3448376,32.0292386 C11.3482376,32.0278386 11.3522376,32.0261386 11.3556376,32.0247386 C11.3520376,32.0262386 11.3484376,32.0277386 11.3448376,32.0292386 M11.3584784,32.0237118 C11.3618784,32.0223118 11.3661784,32.0205118 11.3694784,32.0192118 C11.3658784,32.0207118 11.3620784,32.0222118 11.3584784,32.0237118 M11.3721191,32.0182038 C11.3759191,32.0166038 11.3789191,32.0153038 11.3828191,32.0138038 C11.3792191,32.0152038 11.3757191,32.0167038 11.3721191,32.0182038 M11.3853355,32.0131393 C11.3897355,32.0113393 11.3933355,32.0098393 11.3976355,32.0080393 C11.3940355,32.0095393 11.3890355,32.0116393 11.3853355,32.0131393 M11.3989762,32.0075096 C11.4027762,32.0059096 11.4063762,32.0044096 11.4102762,32.0028096 C11.4065762,32.0043096 11.4025762,32.0060096 11.3989762,32.0075096 M11.4129807,32.0016611 C11.4162807,32.0002611 11.4199807,31.9987611 11.4232807,31.9974611 C11.4196807,31.9989611 11.4165807,32.0001611 11.4129807,32.0016611 M11.4272276,31.9957125 C11.4301276,31.9945125 11.4330276,31.9933125 11.4359276,31.9921125 C11.4331276,31.9932125 11.4299276,31.9946125 11.4272276,31.9957125 M11.4402621,31.9908885 C11.4440621,31.9892885 11.4476621,31.9878885 11.4514621,31.9862885 C11.4478621,31.9877885 11.4438621,31.9893885 11.4402621,31.9908885 M11.453236,31.9857994 C11.457036,31.9841994 11.461036,31.9825994 11.464936,31.9809994 C11.461236,31.9824994 11.456836,31.9842994 11.453236,31.9857994 M11.4670586,31.9802132 C11.4709586,31.9787132 11.4750586,31.9770132 11.4789586,31.9754132 C11.4752586,31.9769132 11.4707586,31.9787132 11.4670586,31.9802132 M11.4814268,31.9741835 C11.4848268,31.9727835 11.4878268,31.9715835 11.4912268,31.9701835 C11.4885268,31.9712835 11.4841268,31.9730835 11.4814268,31.9741835 M11.495795,31.9682972 C11.498695,31.9670972 11.501995,31.9657972 11.504895,31.9645972 C11.501295,31.9660972 11.499495,31.9667972 11.495795,31.9682972 M11.5108908,31.9618487 C11.5127908,31.9610487 11.5153908,31.9600487 11.5173908,31.9592487 C11.5145908,31.9603487 11.5135908,31.9607487 11.5108908,31.9618487 M11.525259,31.9569144 C11.529059,31.9553144 11.532459,31.9540144 11.536359,31.9524144 C11.532659,31.9539144 11.528859,31.9554144 11.525259,31.9569144 M11.5426585,31.9488036 C11.5435585,31.9484036 11.5451585,31.9477036 11.5461585,31.9473036 C11.5443585,31.9481036 11.5444585,31.9480036 11.5426585,31.9488036 M11.5556324,31.9449722 C11.5595324,31.9433722 11.5635324,31.9417722 11.5674324,31.9401722 C11.5628324,31.9420722 11.5602324,31.9430722 11.5556324,31.9449722 M11.5696975,31.9393453 C11.5735975,31.9377453 11.5775975,31.9361453 11.5813975,31.9346453 C11.5777975,31.9360453 11.5732975,31.9378453 11.5696975,31.9393453 M11.5830351,31.9340157 C11.5869351,31.9324157 11.5905351,31.9310157 11.5944351,31.9294157 C11.5908351,31.9309157 11.5867351,31.9325157 11.5830351,31.9340157 M11.5975246,31.9280671 C11.6009246,31.9266671 11.6038246,31.9254671 11.6072246,31.9240671 C11.6035246,31.9255671 11.6012246,31.9265671 11.5975246,31.9280671 M11.6108016,31.9229403 C11.6147016,31.9214403 11.6179016,31.9201403 11.6218016,31.9185403 C11.6181016,31.9200403 11.6145016,31.9214403 11.6108016,31.9229403 M11.6249273,31.9172323 C11.6283273,31.9159323 11.6318273,31.9145323 11.6352273,31.9131323 C11.6315273,31.9146323 11.6286273,31.9158323 11.6249273,31.9172323 M11.638568,31.9119649 C11.642468,31.9103649 11.645268,31.9092649 11.649168,31.9076649 C11.645468,31.9091649 11.642268,31.9104649 11.638568,31.9119649 M11.6526331,31.9064381 C11.6565331,31.9048381 11.6594331,31.9036381 11.6633331,31.9021381 C11.6596331,31.9036381 11.6563331,31.9049381 11.6526331,31.9064381 M11.6654857,31.9017112 C11.6693857,31.9001112 11.6741857,31.8982112 11.6780857,31.8966112 C11.6734857,31.8985112 11.6700857,31.8998112 11.6654857,31.9017112 M11.6799146,31.8957221 C11.6839146,31.8941221 11.6872146,31.8928221 11.6911146,31.8913221 C11.6874146,31.8927221 11.6836146,31.8942221 11.6799146,31.8957221 M11.6939797,31.8901141 C11.6973797,31.8888141 11.7010797,31.8873141 11.7045797,31.8859141 C11.7008797,31.8874141 11.6976797,31.8887141 11.6939797,31.8901141 M11.7084086,31.8843062 C11.7119086,31.8829062 11.7146086,31.8818062 11.7180086,31.8805062 C11.7152086,31.8816062 11.7112086,31.8832062 11.7084086,31.8843062 M11.7216249,31.8793793 C11.7251249,31.8779793 11.7292249,31.8763793 11.7326249,31.8749793 C11.7289249,31.8764793 11.7253249,31.8778793 11.7216249,31.8793793 M11.7364781,31.8732308 C11.7394781,31.8720308 11.7425781,31.8708308 11.7454781,31.8696308 C11.7427781,31.8707308 11.7392781,31.8721308 11.7364781,31.8732308 M11.7517558,31.8669228 C11.7537558,31.8661228 11.7565558,31.8650228 11.7585558,31.8642228 C11.7557558,31.8653228 11.7545558,31.8658228 11.7517558,31.8669228 M11.7698221,31.8646383 C11.7821221,31.8597383 11.7941221,31.8549383 11.8064221,31.8501383 L11.8059221,31.8503383 C11.7935221,31.8552383 11.7823221,31.8597383 11.7698221,31.8646383 M11.7957092,31.8542921 C11.8075092,31.8496921 11.8191092,31.8449921 11.8309092,31.8403921 L11.8298092,31.8407921 C11.8183092,31.8453921 11.8079092,31.8494921 11.7964092,31.8540921 L11.7957092,31.8542921 M11.8211719,31.8444675 C11.8328719,31.8397675 11.8446719,31.8350675 11.8563719,31.8304675 L11.8560719,31.8305675 C11.8444719,31.8351675 11.8337719,31.8394675 11.8221719,31.8440675 L11.8211719,31.8444675 M11.8448765,31.8355213 C11.8571765,31.8307213 11.8699765,31.8256213 11.8821765,31.8207213 L11.8800765,31.8216213 C11.8685765,31.8262213 11.8574765,31.8306213 11.8458765,31.8351213 C11.8449765,31.8355213 11.8457765,31.8352213 11.8448765,31.8355213 M11.8677323,31.826423 C11.8797323,31.821723 11.8916323,31.816923 11.9035323,31.812223 L11.9028323,31.812523 C11.8913323,31.817023 11.8801323,31.821523 11.8685323,31.826123 L11.8677323,31.826423 M11.8939831,31.8160391 C11.9056831,31.8114391 11.9173831,31.8068391 11.9290831,31.8022391 L11.9281831,31.8025391 C11.9166831,31.8071391 11.9059831,31.8113391 11.8944831,31.8159391 L11.8939831,31.8160391 M11.9182939,31.8067711 C11.9301939,31.8019711 11.9418939,31.7973711 11.9538939,31.7926711 L11.9521939,31.7933711 C11.9406939,31.7978711 11.9308939,31.8017711 11.9193939,31.8062711 L11.9182939,31.8067711 M11.9423622,31.7973598 C11.9539622,31.7927598 11.9657622,31.7880598 11.9774622,31.7834598 L11.9754622,31.7842598 C11.9648622,31.7884598 11.9543622,31.7925598 11.9437622,31.7967598 C11.9428622,31.7971598 11.9431622,31.7969598 11.9423622,31.7973598 M11.9659455,31.7880861 C11.9774455,31.7835861 11.9890455,31.7789861 12.0004455,31.7744861 C11.9995455,31.7747861 12.0001455,31.7745861 11.9992455,31.7748861 C11.9887455,31.7790861 11.9779455,31.7833861 11.9673455,31.7875861 L11.9659455,31.7880861 M11.9928632,31.7774427 C12.0039632,31.7730427 12.0146632,31.7688427 12.0257632,31.7644427 C12.0249632,31.7647427 12.0246632,31.7648427 12.0238632,31.7652427 C12.0141632,31.7690427 12.0046632,31.7727427 11.9949632,31.7765427 C11.9940632,31.7769427 11.9937632,31.7770427 11.9928632,31.7774427 M12.0155372,31.7689313 C12.0269372,31.7644313 12.0388372,31.7597313 12.0502372,31.7552313 C12.0484372,31.7559313 12.0460372,31.7569313 12.0442372,31.7576313 C12.0363372,31.7607313 12.0284372,31.7638313 12.0205372,31.7669313 C12.0187372,31.7676313 12.0173372,31.7682313 12.0155372,31.7689313 M12.0384536,31.7600765 C12.0501536,31.7554765 12.0616536,31.7509765 12.0733536,31.7463765 C12.0724536,31.7466765 12.0709536,31.7472765 12.0700536,31.7476765 C12.0603536,31.7514765 12.0518536,31.7547765 12.0421536,31.7585765 C12.0412536,31.7589765 12.0393536,31.7597765 12.0384536,31.7600765 M12.0639769,31.7499274 C12.0749769,31.7456274 12.0862769,31.7411274 12.0971769,31.7369274 C12.0962769,31.7372274 12.0956769,31.7375274 12.0947769,31.7378274 C12.0851769,31.7416274 12.0761769,31.7451274 12.0664769,31.7489274 C12.0656769,31.7493274 12.0648769,31.7496274 12.0639769,31.7499274 M12.089864,31.739132 C12.099364,31.735432 12.108564,31.731832 12.117964,31.728132 C12.116264,31.728832 12.114164,31.729632 12.112364,31.730332 C12.106264,31.732732 12.099664,31.735332 12.093564,31.737732 C12.091764,31.738432 12.091664,31.738432 12.089864,31.739132 M12.114781,31.7294018 C12.123681,31.7259018 12.132681,31.7223018 12.141681,31.7188018 C12.140781,31.7192018 12.138881,31.7199018 12.137981,31.7203018 C12.130981,31.7230018 12.125981,31.7250018 12.118881,31.7277018 C12.118081,31.7281018 12.115681,31.7290018 12.114781,31.7294018 M12.1366062,31.7216527 C12.1470062,31.7176527 12.1577062,31.7133527 12.1681062,31.7093527 L12.1658062,31.7102527 C12.1562062,31.7140527 12.1491062,31.7167527 12.1394062,31.7205527 C12.1385062,31.7209527 12.1375062,31.7213527 12.1366062,31.7216527 M12.1629177,31.7106167 C12.1713177,31.7073167 12.1799177,31.7039167 12.1883177,31.7006167 C12.1848177,31.7020167 12.1819177,31.7031167 12.1784177,31.7045167 C12.1740177,31.7062167 12.1701177,31.7078167 12.1657177,31.7095167 C12.1648177,31.7098167 12.1637177,31.7103167 12.1629177,31.7106167 M12.1905022,31.6979693 C12.1946022,31.6962693 12.1988022,31.6946693 12.2029022,31.6930693 C12.2021022,31.6933693 12.2018022,31.6934693 12.2010022,31.6938693 C12.1983022,31.6948693 12.1959022,31.6957693 12.1933022,31.6968693 C12.1925022,31.6971693 12.1914022,31.6975693 12.1905022,31.6979693" id="Fill-20" fill="#184458"></path>
                <path d="M31.039604,37.635703 C31.041104,37.596703 31.041104,37.566703 31.042604,37.529203 C31.042604,37.527703 31.042604,37.529203 31.042604,37.527703 C31.041104,37.566703 31.041104,37.596703 31.039604,37.635703 M31.045604,37.466203 C31.051604,37.319203 31.056104,37.175203 31.062104,37.029703 C31.056104,37.175203 31.050104,37.320703 31.045604,37.466203" id="Fill-21" fill="#788888"></path>
                <path d="M31.0597048,38.1188119 C31.0387646,37.7750871 31.0329713,37.3998295 31.0481183,36.9842367 C31.0481786,36.9836337 31.0481786,36.9826088 31.048239,36.9820059 C31.0482993,36.9804383 31.0482993,36.9792324 31.0483597,36.9776648 C31.04842,36.976881 31.04842,36.9760369 31.0484804,36.9751929 C31.0486614,36.9693445 31.0489028,36.9634962 31.0491442,36.9576479 C31.0493856,36.9517393 31.0495666,36.9461321 31.049808,36.9402235 C31.0499287,36.9379927 31.049989,36.9354001 31.0501097,36.9331693 C31.0501097,36.9323855 31.0501701,36.931662 31.0501701,36.9308782 C31.0502908,36.9292503 31.0503511,36.9276827 31.0504114,36.9261151 C31.0504718,36.9252108 31.0504718,36.9243064 31.0505321,36.923402 C31.0505925,36.9217741 31.0506528,36.9205683 31.0507132,36.9190007 C31.0507735,36.9180963 31.0507735,36.9170111 31.0508339,36.9161067 C31.0508942,36.9145391 31.0510149,36.9126097 31.0510753,36.9110421 C31.0511356,36.9102583 31.0511356,36.9097157 31.051196,36.9089319 C31.0513166,36.9066408 31.051377,36.9047115 31.0514977,36.9024204 C31.051558,36.9013954 31.0516184,36.900491 31.0516184,36.8994661 C31.0516787,36.8981999 31.0517994,36.8966926 31.0518598,36.8954265 C31.0519201,36.8942207 31.0519805,36.8933163 31.0520408,36.8921105 C31.0521012,36.8908443 31.0521615,36.8896988 31.0522218,36.8884326 C31.0522822,36.8872871 31.0523425,36.8863224 31.0524029,36.8851166 C31.0524632,36.883549 31.0525236,36.8824034 31.0526443,36.8808358 C31.0526443,36.8799315 31.0527046,36.8790271 31.052765,36.8781227 C31.0528857,36.8758919 31.0530063,36.8740228 31.053127,36.871792 C31.0531874,36.870345 31.0532477,36.8691392 31.0533684,36.8676922 C31.0534288,36.8667275 31.0534288,36.8658834 31.0534891,36.8649187 C31.0536098,36.8634717 31.0536702,36.8622659 31.0537305,36.8608792 C31.0537909,36.8599145 31.0538512,36.8590704 31.0539115,36.8581058 C31.0540322,36.8566587 31.0540926,36.8553323 31.0541529,36.8538853 C31.0542133,36.8532221 31.0542736,36.8520163 31.054334,36.851353 C31.0546357,36.8462282 31.0549374,36.8412843 31.0552995,36.8361595 C31.0553599,36.8354962 31.0553599,36.8349536 31.0554202,36.8343507 C31.0555409,36.8326625 31.0556616,36.8312155 31.0557219,36.8295273 C31.0557823,36.8289244 31.0558426,36.8284421 31.0558426,36.8277789 C31.0559633,36.826151 31.056084,36.8244025 31.0562047,36.8227143 C31.0562047,36.8224129 31.0562651,36.8219908 31.0562651,36.8216894 C31.0568082,36.8138514 31.0574116,36.8059532 31.0580151,36.7981152 L31.0580151,36.7975123 C31.2136488,34.741675 32.9462579,33.1325413 35.0825248,31.6930693 L35.4265,32.5426442 C35.4536559,32.6073375 35.4790015,32.6698 35.5049505,32.7333478 C33.1791954,34.2446879 31.2244508,35.9281616 31.0597048,38.1188119" id="Fill-22" fill="#184458"></path>
                <path d="M31.039604,37.8118812 C31.042604,37.800257 31.044104,37.7886329 31.045604,37.7770087 C31.044104,37.7850811 31.044104,37.7915389 31.042604,37.7999341 C31.041104,37.8031631 31.041104,37.8086523 31.039604,37.8118812 M31.048604,37.7634472 C31.059104,37.7011288 31.069604,37.6388105 31.081604,37.5761692 C31.075604,37.6078127 31.071104,37.6378418 31.065104,37.6694853 C31.059104,37.700806 31.054604,37.7318037 31.048604,37.7634472 M31.081604,37.5761692 C31.084604,37.5638993 31.086104,37.5509835 31.089104,37.5383907 C31.086104,37.5503378 31.084604,37.5642222 31.081604,37.5761692 M31.090604,37.5261208 C31.093604,37.5177256 31.095104,37.5090074 31.096604,37.5006122 C31.095104,37.5090074 31.093604,37.5174027 31.090604,37.5261208 M31.099604,37.486082 C31.101104,37.4776868 31.102604,37.4705832 31.104104,37.4625108 C31.102604,37.4709061 31.101104,37.4773639 31.099604,37.486082 M31.107104,37.447012 C31.108604,37.437971 31.111604,37.4289299 31.113104,37.4198889 C31.111604,37.4282842 31.108604,37.4386167 31.107104,37.447012 M31.116104,37.4085877 C31.117604,37.3972864 31.120604,37.3850165 31.123604,37.3737152 C31.120604,37.3859852 31.119104,37.3963177 31.116104,37.4085877 M31.126604,37.3578935 C31.128104,37.3511127 31.131104,37.3430404 31.132604,37.3362596 C31.131104,37.3430404 31.128104,37.3511127 31.126604,37.3578935 M31.137104,37.3185005 C31.138604,37.3123655 31.140104,37.304939 31.141604,37.298804 C31.140104,37.3055848 31.138604,37.3117197 31.137104,37.3185005 M31.146104,37.2810449 C31.147604,37.2736184 31.149104,37.265546 31.152104,37.2581195 C31.149104,37.2665147 31.147604,37.2726497 31.146104,37.2810449 M31.155104,37.2435893 C31.158104,37.2326109 31.161104,37.2206639 31.164104,37.2096855 C31.161104,37.2216326 31.158104,37.2316422 31.155104,37.2435893 M31.170104,37.1877288 C31.171604,37.1828854 31.173104,37.1777191 31.173104,37.1728757 C31.171604,37.178042 31.171604,37.1825625 31.170104,37.1877288 M31.179104,37.1512419 C31.180604,37.1463985 31.182104,37.1412322 31.183604,37.1363888 C31.182104,37.1415551 31.180604,37.1460756 31.179104,37.1512419 M31.189604,37.1137863 C31.191104,37.1095886 31.192604,37.1044224 31.194104,37.1002247 C31.192604,37.1037766 31.191104,37.1102344 31.189604,37.1137863 M31.218104,37.0188557 C31.219604,37.0159496 31.221104,37.011752 31.221104,37.0091689 C31.219604,37.0123978 31.219604,37.0153039 31.218104,37.0188557 M31.228604,36.9833374 C31.230104,36.9807543 31.231604,36.9768796 31.231604,36.9739735 C31.231604,36.9775254 31.230104,36.9801085 31.228604,36.9833374 M31.240604,36.9468505 C31.242104,36.9449132 31.242104,36.9432987 31.242104,36.9413613 C31.242104,36.9429758 31.240604,36.945236 31.240604,36.9468505 M31.285604,36.8151101 C31.285604,36.8138185 31.285604,36.8134957 31.285604,36.8118812 L31.285604,36.8151101" id="Fill-23" fill="#1D576B"></path>
            </g>
        </g>
    </g>
</svg>