<?xml version="1.0" encoding="UTF-8"?>
<svg width="230px" height="32px" viewBox="0 0 230 32" version="1.1" xmlns="http://www.w3.org/2000/svg" xmlns:xlink="http://www.w3.org/1999/xlink">
    <!-- Generator: Sketch 52.3 (67297) - http://www.bohemiancoding.com/sketch -->
    <title>Logo</title>
    <desc>Created with Sketch.</desc>
    <defs>
        <polygon id="path-1" points="0.0291542902 0.00759450558 15.0225046 0.00759450558 15.0225046 16.1230429 0.0291542902 16.1230429"></polygon>
        <polygon id="path-3" points="0 0.0275638416 27.48223 0.0275638416 27.48223 16.5360599 0 16.5360599"></polygon>
        <polygon id="path-5" points="0.00528224858 0.0344489433 22.1741301 0.0344489433 22.1741301 24.1678343 0.00528224858 24.1678343"></polygon>
    </defs>
    <g id="Klickbar-Prototyp" stroke="none" stroke-width="1" fill="none" fill-rule="evenodd">
        <g id="Landingpage-#2" transform="translate(-139.000000, -30.000000)">
            <g id="Logo" transform="translate(139.000000, 29.000000)">
                <g id="Group-9" transform="translate(60.572724, 8.138523)" fill="#3F4658">
                    <path d="M8.30719424,-4.04548469e-05 L0.745677673,17.2175424 L2.69620812,17.2175424 L5.03207097,11.8957073 L12.9545459,11.8957073 L15.2903076,17.2175424 L17.2408381,17.2175424 L9.67972606,-4.04548469e-05 L8.30719424,-4.04548469e-05 Z M9.00524263,2.91371989 L12.1600127,10.1136713 L5.82670531,10.1136713 L9.00524263,2.91371989 Z M36.0218187,-4.04548469e-05 L37.8277231,-4.04548469e-05 L37.8277231,15.4356075 L47.411982,15.4356075 L47.411982,17.2175424 L36.0218187,17.2175424 L36.0218187,-4.04548469e-05 Z M66.1927098,-4.04548469e-05 L77.5346306,-4.04548469e-05 L77.5346306,1.80596505 L67.9987153,1.80596505 L67.9987153,7.70579878 L74.9581626,7.70579878 L74.9581626,9.51170315 L67.9987153,9.51170315 L67.9987153,15.411638 L77.5346306,15.411638 L77.5346306,17.2175424 L66.1927098,17.2175424 L66.1927098,-4.04548469e-05 Z M108.934206,-4.04548469e-05 L111.173787,-4.04548469e-05 L104.864246,8.62068514 L111.173787,17.2175424 L108.934206,17.2175424 L103.756694,10.1379442 L98.5553129,17.2175424 L96.3157326,17.2175424 L102.624767,8.62068514 L96.3157326,-4.04548469e-05 L98.5553129,-4.04548469e-05 L103.756694,7.10362839 L108.934206,-4.04548469e-05 Z M129.95414,-4.04548469e-05 L137.63601,-4.04548469e-05 L137.63601,1.80596505 L134.697977,1.80596505 L134.697977,15.4356075 L137.63601,15.4356075 L137.63601,17.2175424 L129.95414,17.2175424 L129.95414,15.4356075 L132.892072,15.4356075 L132.892072,1.80596505 L129.95414,1.80596505 L129.95414,-4.04548469e-05 Z M169.010969,12.4737261 C169.010969,15.0984366 166.506611,17.2175626 163.448731,17.2175626 L161.979613,17.2175626 C158.921125,17.2175626 156.416869,15.0984366 156.416869,12.4737261 L156.416869,12.3773425 L156.440839,11.7031624 L158.319157,11.7031624 L158.295188,12.4737261 C158.247249,14.0870654 159.956769,15.4116582 161.979613,15.4116582 L163.448731,15.4116582 C165.471473,15.4116582 167.133055,14.0870654 167.133055,12.4737261 C167.133055,10.8361139 165.471473,9.51172337 163.448731,9.51172337 L163.400286,9.51172337 L163.15958,9.51172337 L162.774348,9.51172337 C161.787149,9.46348097 160.462354,9.3431278 159.739931,8.90975525 C157.837542,7.80200041 156.922959,6.45343809 156.922959,4.74381626 C156.922959,2.14307529 159.427215,-2.02274234e-05 162.485096,-2.02274234e-05 L162.918772,-2.02274234e-05 C165.880674,-2.02274234e-05 168.336991,1.97447971 168.481415,4.50300878 L168.529354,5.22543121 L166.65144,5.22543121 L166.602995,4.57522068 C166.482642,3.00992152 164.869505,1.80588414 162.918772,1.80588414 L162.485096,1.80588414 C160.462354,1.80588414 158.825247,3.13027469 158.825247,4.74381626 C158.825247,6.33298378 160.366375,7.6575766 162.292733,7.70581901 L162.413188,7.70581901 L162.461127,7.70581901 L163.183549,7.70581901 L163.183549,7.72978851 C164.002355,7.753758 164.411859,7.77792977 164.43593,7.80200041 L164.507838,7.80200041 C167.133055,8.11491865 169.010969,10.1859034 169.010969,12.4737261 Z" id="Combined-Shape"></path>
                </g>
                <g id="Group-22" transform="translate(0.272724, 0.938523)">
                    <path d="M9.0820866,23.4283279 C1.95354567,26.2634994 0.932216527,29.8872002 0.926873426,29.9062291 C0.776235462,29.7319221 0.643360966,29.5499755 0.528578024,29.3616077 C0.714602318,29.6673362 0.947449053,29.9561918 1.22744631,30.2230188 C2.01278848,30.9720372 2.97946801,31.3679892 4.022732,31.3679892 C5.60485245,31.3679892 6.45398375,30.6824318 6.88785296,30.1069704 C7.34140728,29.5050747 7.82050537,28.5061022 8.39596676,26.9626021 C8.39596676,26.9626021 9.69485597,23.5486883 13.958604,21.7449698 C12.5671479,22.1370316 10.9662798,22.6789345 9.0820866,23.4283279" id="Fill-1" fill="#006289"></path>
                    <path d="M27.1583283,23.3290728 C25.4611906,24.4738089 24.0918568,25.7564813 24.0264741,27.408062 C23.8699775,31.3595199 25.9712224,30.9700828 26.1253287,30.9362431 C25.7772303,31.1124717 25.4062597,31.2367692 25.0171038,31.3053858 C25.833286,31.1636999 26.5708684,30.7798871 27.1784821,30.1725077 C27.9604497,29.3905401 28.3737901,28.4520759 28.3737901,27.4584934 C28.3737901,26.6439985 28.0709206,25.5376953 27.4256708,23.9894614 L27.1583283,23.3290728 Z" id="Fill-3" fill="#007AAA"></path>
                    <g id="Group-7" transform="translate(18.935201, 15.244946)">
                        <mask id="mask-2" fill="white">
                            <use xlink:href="#path-1"></use>
                        </mask>
                        <g id="Clip-6"></g>
                        <path d="M14.7563619,3.14776634 C15.5129732,1.35089071 14.6345017,-0.425877991 12.4009915,0.102057924 C10.1674814,0.629946969 9.14127786,5.15142936 6.61408463,5.82803473 C4.0354289,6.51837281 2.49225684,5.70617452 1.15212265,6.27469926 C-0.188011553,6.843224 0.044600836,8.88185153 0.044600836,8.88185153 L0.856986597,11.6509373 C0.861298573,11.6622328 0.865704289,11.6734345 0.87039122,11.6846363 C1.04929138,12.1191148 1.26615568,12.6275062 1.51493798,13.1950936 C1.80955847,13.8675276 2.09283658,14.3716539 2.38056728,14.7352191 C2.71596406,15.1597145 3.13502257,15.4996107 3.62635355,15.7453934 C4.12748022,15.9960036 4.71058132,16.1230663 5.3592057,16.1230663 C6.01532918,16.1230663 6.63217618,15.9737407 7.19010845,15.6913062 C7.03600216,15.7251458 4.93475723,16.1145361 5.09125386,12.1631251 C5.25370289,8.06154486 13.4568165,6.23411044 14.7563619,3.14776634" id="Fill-5" fill="#009ECE" mask="url(#mask-2)"></path>
                    </g>
                    <path d="M25.8003556,9.4843659 C25.8003556,10.2398054 25.1879612,10.8521999 24.4325217,10.8521999 C23.6770821,10.8521999 23.0646877,10.2398054 23.0646877,9.4843659 C23.0646877,8.72892635 23.6770821,8.11653194 24.4325217,8.11653194 C25.1879612,8.11653194 25.8003556,8.72892635 25.8003556,9.4843659" id="Fill-8" fill="#009ECE"></path>
                    <g id="Group-12" transform="translate(0.000000, 13.370174)">
                        <mask id="mask-4" fill="white">
                            <use xlink:href="#path-3"></use>
                        </mask>
                        <g id="Clip-11"></g>
                        <path d="M26.7473079,2.26107397 C25.1383782,0.737633897 22.4626092,1.34262296 21.3056403,2.30170966 C15.1329521,7.41852604 11.5998966,6.8500013 10.8689228,3.39817031 C10.5997055,2.12684026 11.8158704,0.230601695 14.1868951,0.0275638416 C5.34598387,0.738243198 0.602856508,11.5321986 0.909803623,10.771744 C0.602856508,11.5321986 0.386882724,12.1157215 0.250071207,12.5546526 C0.0841069779,13.0851663 -2.34346553e-05,13.6138521 -2.34346553e-05,14.1260868 C-2.34346553e-05,15.0085422 0.319812741,15.8336764 0.926910921,16.5360599 C0.932207153,16.517031 1.9535363,12.8933302 9.08207723,10.0581587 C17.0426422,6.8919962 19.9516328,7.42555644 23.333441,7.34789399 C27.3332211,7.25607701 28.3717044,3.79918414 26.7473079,2.26107397" id="Fill-10" fill="#007AAA" mask="url(#mask-4)"></path>
                    </g>
                    <g id="Group-15" transform="translate(0.890517, 0.012420)">
                        <mask id="mask-6" fill="white">
                            <use xlink:href="#path-5"></use>
                        </mask>
                        <g id="Clip-14"></g>
                        <path d="M17.5074639,2.20083753 C17.0717667,1.56899236 16.4968678,1.0479931 15.7984213,0.652275509 C15.074103,0.24226278 14.1941786,0.0344442564 13.1831138,0.0344442564 C12.1840944,0.0344442564 11.3103567,0.242403388 10.586179,0.652369247 C9.88337371,1.05038343 9.30538137,1.58216263 8.8679501,2.23378666 C8.49412048,2.79106276 8.14349116,3.48491603 7.82599845,4.29631754 L7.09975848,6.15445136 L0.019305469,24.1294881 C-0.287688515,24.8899427 4.45548572,14.0959873 13.2963969,13.385308 C15.6684059,13.1946436 17.999451,14.111548 19.3186346,14.4817686 C20.6377714,14.8519893 22.0976098,14.629407 22.1700229,13.1951592 C22.2425297,11.7609114 21.3406236,11.1465016 20.6050566,9.32965968 L19.3048082,6.11794017 C18.9655681,5.22657962 18.6800871,4.49832427 18.4555831,3.95281236 C18.1993955,3.3313253 17.8804498,2.74189685 17.5074639,2.20083753" id="Fill-13" fill="#009ECE" mask="url(#mask-6)"></path>
                    </g>
                    <path d="M10.9281375,15.7768427 C11.2510202,14.6841784 12.3850232,13.5520503 14.1868669,13.3977096 C8.18632971,13.8800886 4.07434448,19.0067006 2.14698469,22.0137419 C4.07082929,19.6393426 7.06493459,16.7897354 10.9281375,15.7768427" id="Fill-16" fill="#002028"></path>
                    <path d="M9.0820866,23.4283279 C5.31004448,24.9285677 3.24826351,26.6494682 2.14191343,27.9403896 C3.39890148,26.8555994 5.33807233,25.6223741 8.30429039,24.5562848 C9.2079307,24.2315742 10.0460477,23.9514363 10.8276403,23.7095438 C11.6243249,22.9999893 12.6516064,22.2978402 13.9556513,21.7458134 C12.5648982,22.1377815 10.9649674,22.6794501 9.0820866,23.4283279" id="Fill-18" fill="#002028"></path>
                    <path d="M27.4865072,24.1377278 C27.4662597,24.0883275 27.4466214,24.0397709 27.4256708,23.9894801 L27.1583283,23.3290916 C25.4611906,24.4738276 24.0918568,25.7565469 24.0264741,27.4080339 C24.0131163,27.7447899 24.0172877,28.0476594 24.0341607,28.3242352 C24.162067,26.6212857 25.6801171,25.3126008 27.4865072,24.1377278" id="Fill-20" fill="#002028"></path>
                </g>
            </g>
        </g>
    </g>
</svg>