<?xml version="1.0" encoding="UTF-8"?>
<svg width="30px" height="30px" viewBox="0 0 30 30" version="1.1" xmlns="http://www.w3.org/2000/svg" xmlns:xlink="http://www.w3.org/1999/xlink">
    <!-- Generator: Sketch 52.4 (67378) - http://www.bohemiancoding.com/sketch -->
    <title>Cute spinner Copy</title>
    <desc>Created with Sketch.</desc>
    <defs>
        <path d="M15,30 C6.71572875,30 0,23.2842712 0,15 C0,6.71572875 6.71572875,0 15,0 C23.2842712,0 30,6.71572875 30,15 C30,23.2842712 23.2842712,30 15,30 Z M15,27.3 C21.7931024,27.3 27.3,21.7931024 27.3,15 C27.3,8.20689758 21.7931024,2.7 15,2.7 C8.20689758,2.7 2.7,8.20689758 2.7,15 C2.7,21.7931024 8.20689758,27.3 15,27.3 Z" id="path-1"></path>
        <linearGradient x1="25.247755%" y1="50%" x2="100%" y2="72.6309193%" id="linearGradient-3">
            <stop stop-color="#FFFFFF" stop-opacity="0.6" offset="0%"></stop>
            <stop stop-color="#FFFFFF" stop-opacity="0.4" offset="100%"></stop>
        </linearGradient>
    </defs>
    <g id="9:-Design---Hover-&amp;-Animationer" stroke="none" stroke-width="1" fill="none" fill-rule="evenodd">
        <g id="Cute-spinner">
            <mask id="mask-2" fill="white">
                <use xlink:href="#path-1"></use>
            </mask>
            <use id="Combined-Shape" fill="#FFFFFF" fill-rule="nonzero" opacity="0.300000012" xlink:href="#path-1"></use>
            <g id="Group-2" stroke-width="1" fill-rule="evenodd" mask="url(#mask-2)" fill="url(#linearGradient-3)">
                <g transform="translate(2.058824, 15.588235)" fill-rule="nonzero" id="Combined-Shape">
                    <path d="M21.0989064,11.9327269 L24.3083644,16.6823529 C18.5688733,16.4481949 14.3092589,16.0701793 11.5295212,15.548306 C8.74978341,15.0264327 4.96150935,13.8935222 0.164698985,12.1495747 L2.40521666,10.0346264 C2.15931943,9.79197289 2.00718954,9.45650937 2.00718954,9.08592437 C2.00718954,8.34556114 2.61438506,7.74537815 3.36339869,7.74537815 C3.76077172,7.74537815 4.11822857,7.91430591 4.36627779,8.18347254 L13.0356219,7.10542736e-15 L19.5959647,9.70854731 C19.79402,9.59669389 20.0233542,9.53277311 20.2677923,9.53277311 C21.0168059,9.53277311 21.6240015,10.1329561 21.6240015,10.8733193 C21.6240015,11.3041313 21.4184056,11.6874783 21.0989064,11.9327269 Z"></path>
                </g>
            </g>
        </g>
    </g>
</svg>